<svg width="71" height="42" viewBox="0 0 71 42" fill="none" xmlns="http://www.w3.org/2000/svg">
<g clip-path="url(#clip0_129_2135)">
<path d="M19.8539 15.2536C19.8539 16.1179 19.9473 16.8187 20.1108 17.3326C20.2977 17.8465 20.5313 18.4071 20.8583 19.0145C20.9751 19.2013 21.0218 19.3882 21.0218 19.5517C21.0218 19.7853 20.8817 20.0189 20.578 20.2525L19.1063 21.2336C18.8961 21.3737 18.6859 21.4438 18.499 21.4438C18.2654 21.4438 18.0318 21.327 17.7982 21.1168C17.4712 20.7898 17.1909 20.4394 16.9573 20.0423C16.7237 19.6452 16.4901 19.2013 16.2332 18.6641C14.4111 20.8131 12.1219 21.8877 9.36553 21.8877C7.40335 21.8877 5.83828 21.327 4.69368 20.2058C3.54907 19.0845 2.96509 17.5895 2.96509 15.7208C2.96509 13.7353 3.66587 12.1235 5.09078 10.9088C6.5157 9.69411 8.4078 9.08676 10.8138 9.08676C11.608 9.08676 12.4256 9.15684 13.2899 9.27364C14.1542 9.39044 15.0418 9.57731 15.9762 9.78754V8.08231C15.9762 6.30701 15.6025 5.06897 14.8783 4.34483C14.1308 3.62069 12.8694 3.2703 11.0708 3.2703C10.2532 3.2703 9.41225 3.36374 8.54796 3.57397C7.68367 3.7842 6.84273 4.04116 6.02516 4.36819C5.65141 4.5317 5.3711 4.62514 5.20758 4.67186C5.04407 4.71858 4.92727 4.74194 4.83383 4.74194C4.5068 4.74194 4.34329 4.50834 4.34329 4.0178V2.87319C4.34329 2.49944 4.39001 2.21913 4.5068 2.05562C4.6236 1.8921 4.83383 1.72859 5.16086 1.56507C5.97844 1.14461 6.95953 0.794219 8.10413 0.513907C9.24874 0.210236 10.4634 0.0700786 11.7482 0.0700786C14.5279 0.0700786 16.5602 0.700781 17.8683 1.96218C19.1531 3.22358 19.8071 5.13904 19.8071 7.70856V15.2536H19.8539ZM10.37 18.8042C11.1408 18.8042 11.9351 18.6641 12.776 18.3838C13.6169 18.1034 14.3644 17.5895 14.9951 16.8888C15.3689 16.4449 15.6492 15.9544 15.7893 15.3938C15.9295 14.8331 16.0229 14.1557 16.0229 13.3615V12.3804C15.3455 12.2169 14.6214 12.0768 13.8739 11.9833C13.1264 11.8899 12.4022 11.8432 11.6781 11.8432C10.113 11.8432 8.96843 12.1468 8.19757 12.7775C7.42671 13.4082 7.05296 14.2959 7.05296 15.4638C7.05296 16.5617 7.33327 17.3793 7.91726 17.9399C8.47788 18.5239 9.29545 18.8042 10.37 18.8042ZM29.1275 21.3504C28.707 21.3504 28.4267 21.2803 28.2398 21.1168C28.053 20.9766 27.8894 20.6496 27.7493 20.2058L22.2832 2.14906C22.1431 1.68187 22.073 1.3782 22.073 1.21469C22.073 0.840937 22.2599 0.630704 22.6336 0.630704H24.9228C25.3666 0.630704 25.6703 0.700781 25.8338 0.864296C26.0207 1.00445 26.1609 1.33148 26.301 1.77531L30.2254 17.2392L33.8694 1.77531C33.9862 1.30812 34.1264 1.00445 34.3132 0.864296C34.5001 0.724141 34.8272 0.630704 35.2476 0.630704H37.1164C37.5602 0.630704 37.8639 0.700781 38.0507 0.864296C38.2376 1.00445 38.4011 1.33148 38.4946 1.77531L42.1853 17.426L46.2265 1.77531C46.3666 1.30812 46.5302 1.00445 46.6937 0.864296C46.8805 0.724141 47.1842 0.630704 47.6047 0.630704H49.7771C50.1508 0.630704 50.3611 0.817578 50.3611 1.21469C50.3611 1.33148 50.3377 1.44828 50.3144 1.58843C50.291 1.72859 50.2443 1.91546 50.1508 2.17241L44.5213 20.2291C44.3811 20.6963 44.2176 21 44.0307 21.1402C43.8438 21.2803 43.5402 21.3737 43.1431 21.3737H41.1342C40.6903 21.3737 40.3867 21.3037 40.1998 21.1402C40.0129 20.9766 39.8494 20.673 39.756 20.2058L36.1119 5.1624L32.5146 20.2058C32.3978 20.673 32.2576 20.9766 32.0708 21.1402C31.8839 21.3037 31.5568 21.3737 31.1364 21.3737H29.1275V21.3504ZM59.1442 21.9577C57.9295 21.9577 56.7148 21.8176 55.5468 21.5373C54.3789 21.257 53.4679 20.9533 52.8605 20.6029C52.4868 20.3927 52.2298 20.1591 52.1364 19.9488C52.0429 19.7386 51.9962 19.505 51.9962 19.2948V18.1268C51.9962 17.6363 52.1831 17.4027 52.5335 17.4027C52.6736 17.4027 52.8138 17.426 52.954 17.4727C53.0941 17.5195 53.3043 17.6129 53.5379 17.7063C54.3322 18.0567 55.1964 18.337 56.1075 18.5239C57.0418 18.7108 57.9528 18.8042 58.8872 18.8042C60.3588 18.8042 61.5035 18.5473 62.2977 18.0334C63.0919 17.5195 63.5124 16.772 63.5124 15.8142C63.5124 15.1602 63.3021 14.6229 62.8816 14.1791C62.4612 13.7353 61.667 13.3382 60.5224 12.9644L57.1353 11.9132C55.43 11.376 54.1686 10.5818 53.3978 9.53059C52.6269 8.50278 52.2298 7.35818 52.2298 6.14349C52.2298 5.1624 52.44 4.29811 52.8605 3.55061C53.281 2.80312 53.8416 2.14905 54.5424 1.63515C55.2432 1.09789 56.0374 0.700779 56.9718 0.420468C57.9061 0.140156 58.8872 0 59.915 0C60.4289 0 60.9662 0.0233614 61.4801 0.0934393C62.0174 0.163517 62.5079 0.256952 62.9984 0.350389C63.4656 0.467186 63.9095 0.583984 64.3299 0.724139C64.7504 0.864295 65.0774 1.00445 65.311 1.14461C65.6381 1.33148 65.8716 1.51836 66.0118 1.72859C66.152 1.91546 66.222 2.17242 66.222 2.49945V3.59733C66.222 4.08788 66.0352 4.34483 65.6848 4.34483C65.4979 4.34483 65.1942 4.25139 64.7971 4.06452C63.4656 3.45718 61.9706 3.1535 60.3121 3.1535C58.9807 3.1535 57.9295 3.36374 57.2053 3.80756C56.4812 4.25139 56.1075 4.92881 56.1075 5.88654C56.1075 6.5406 56.3411 7.10122 56.8082 7.54505C57.2754 7.98888 58.1397 8.4327 59.3778 8.82981L62.6948 9.88098C64.3766 10.4182 65.5913 11.1657 66.3155 12.1235C67.0396 13.0812 67.39 14.1791 67.39 15.3938C67.39 16.3982 67.1798 17.3092 66.7827 18.1034C66.3622 18.8977 65.8016 19.5984 65.0774 20.1591C64.3533 20.743 63.489 21.1635 62.4845 21.4672C61.4334 21.8176 60.3355 21.9577 59.1442 21.9577Z" fill="#252F3E"/>
<path fill-rule="evenodd" clip-rule="evenodd" d="M63.5591 33.3101C55.8738 38.9864 44.7081 41.9997 35.1074 41.9997C21.6525 41.9997 9.52903 37.0242 0.372185 28.755C-0.351953 28.101 0.302106 27.2133 1.1664 27.7272C11.0707 33.4736 23.2876 36.9541 35.925 36.9541C44.4512 36.9541 53.8182 35.1788 62.4378 31.5348C63.7459 30.9742 64.8205 32.3757 63.5591 33.3101Z" fill="#252F3E"/>
<path fill-rule="evenodd" clip-rule="evenodd" d="M66.7595 29.6664C65.7784 28.405 60.2656 29.0591 57.7661 29.3628C57.0186 29.4562 56.9019 28.8021 57.5793 28.3116C61.9708 25.2282 69.1888 26.1158 70.0298 27.1436C70.8707 28.1948 69.7962 35.4128 65.6849 38.87C65.0542 39.4072 64.4469 39.1269 64.7272 38.4262C65.6616 36.1136 67.7406 30.9278 66.7595 29.6664Z" fill="#252F3E"/>
</g>
<defs>
<clipPath id="clip0_129_2135">
<rect width="70.5185" height="42" fill="white"/>
</clipPath>
</defs>
</svg>
