<svg width="490" height="368" viewBox="0 0 490 368" fill="none" xmlns="http://www.w3.org/2000/svg">
<g style="mix-blend-mode:screen" opacity="0.2">
<path d="M713.526 582.654C768.23 551.07 786.992 481.152 755.433 426.49L610.716 175.833C593.956 146.805 569.845 122.706 540.816 105.96L384.653 15.877C348.927 -4.73592 304.9 -4.7146 269.162 15.9187L-497.816 458.734C-504.426 462.55 -507.81 470.206 -506.179 477.67C-504.539 485.129 -498.264 490.662 -490.657 491.353L-201.242 517.653L-104.213 685.69C-87.4536 714.718 -63.3521 738.823 -34.3174 755.579L132.208 851.64C167.934 872.253 211.967 872.242 247.705 851.608L713.531 582.663L713.526 582.654ZM138.477 684.498C124.655 692.478 106.993 687.753 99.0187 673.942L-29.2855 451.712C-37.2593 437.901 -32.526 420.232 -18.7045 412.252L373.21 185.981C387.031 178.001 404.694 182.726 412.673 196.547L540.978 418.777C548.951 432.588 544.203 450.253 530.391 458.227L138.477 684.498Z" fill="#1FAAC5"/>
</g>
</svg>
