<svg width="195" height="164" viewBox="0 0 195 164" fill="none" xmlns="http://www.w3.org/2000/svg">
<g filter="url(#filter0_dd_114_2494)">
<rect x="2" y="1" width="191.626" height="160.626" rx="6.1566" fill="white"/>
<rect x="2.5" y="1.5" width="190.626" height="159.626" rx="5.6566" stroke="#333A43" stroke-opacity="0.1"/>
<g clip-path="url(#clip0_114_2494)">
<line x1="-71.8792" y1="16.199" x2="374.294" y2="16.199" stroke="#F3F4F6" stroke-width="0.384787"/>
<line x1="-71.8794" y1="39.2863" x2="374.293" y2="39.2863" stroke="#F3F4F6" stroke-width="0.384787"/>
<line x1="-71.8794" y1="62.3735" x2="374.293" y2="62.3735" stroke="#F3F4F6" stroke-width="0.384787"/>
<line x1="-71.8794" y1="85.4608" x2="374.293" y2="85.4608" stroke="#F3F4F6" stroke-width="0.384787"/>
<line x1="-71.8794" y1="108.548" x2="374.293" y2="108.548" stroke="#F3F4F6" stroke-width="0.384787"/>
<line x1="-71.8794" y1="131.635" x2="374.293" y2="131.635" stroke="#F3F4F6" stroke-width="0.384787"/>
<path fill-rule="evenodd" clip-rule="evenodd" d="M-71.8792 82.6253C2.82831 81.6387 43.9647 111.4 43.9647 111.4C43.9647 111.4 79.4271 137.05 111.58 108.605C142.314 78.1858 152.726 56.4672 182.987 56.4672C217.504 56.7961 219.735 110.235 268.097 110.235C316.458 110.235 317.734 61.7431 374.474 61.9076V154.808L-71.8792 154.973V82.6253Z" fill="url(#paint0_linear_114_2494)"/>
<path d="M-71.8794 82.9815C2.65373 81.9952 43.6941 111.747 43.6941 111.747C43.6941 111.747 79.0738 137.389 111.151 108.953C141.814 78.5434 150.777 56.846 180.967 56.846C220.978 57.228 217.63 110.596 265.878 110.596C314.127 110.596 316.353 62.2703 373.432 62.2703" stroke="#1C64F2" stroke-width="3"/>
<path d="M79.9192 14.0018V160.641" stroke="#E5E7EB" stroke-width="0.384787" stroke-linecap="square" stroke-dasharray="1.92 1.92"/>
<g filter="url(#filter1_d_114_2494)">
<rect x="75" y="117" width="10" height="10" rx="5" fill="#1C64F2"/>
<rect x="76" y="118" width="8" height="8" rx="4" stroke="white" stroke-width="2"/>
</g>
</g>
</g>
<defs>
<filter id="filter0_dd_114_2494" x="0.845638" y="0.230425" width="193.935" height="162.935" filterUnits="userSpaceOnUse" color-interpolation-filters="sRGB">
<feFlood flood-opacity="0" result="BackgroundImageFix"/>
<feColorMatrix in="SourceAlpha" type="matrix" values="0 0 0 0 0 0 0 0 0 0 0 0 0 0 0 0 0 0 127 0" result="hardAlpha"/>
<feOffset dy="0.384787"/>
<feGaussianBlur stdDeviation="0.577181"/>
<feColorMatrix type="matrix" values="0 0 0 0 0 0 0 0 0 0 0 0 0 0 0 0 0 0 0.1 0"/>
<feBlend mode="normal" in2="BackgroundImageFix" result="effect1_dropShadow_114_2494"/>
<feColorMatrix in="SourceAlpha" type="matrix" values="0 0 0 0 0 0 0 0 0 0 0 0 0 0 0 0 0 0 127 0" result="hardAlpha"/>
<feOffset dy="0.384787"/>
<feGaussianBlur stdDeviation="0.384787"/>
<feColorMatrix type="matrix" values="0 0 0 0 0 0 0 0 0 0 0 0 0 0 0 0 0 0 0.06 0"/>
<feBlend mode="normal" in2="effect1_dropShadow_114_2494" result="effect2_dropShadow_114_2494"/>
<feBlend mode="normal" in="SourceGraphic" in2="effect2_dropShadow_114_2494" result="shape"/>
</filter>
<filter id="filter1_d_114_2494" x="73.4609" y="116.23" width="13.0783" height="13.0783" filterUnits="userSpaceOnUse" color-interpolation-filters="sRGB">
<feFlood flood-opacity="0" result="BackgroundImageFix"/>
<feColorMatrix in="SourceAlpha" type="matrix" values="0 0 0 0 0 0 0 0 0 0 0 0 0 0 0 0 0 0 127 0" result="hardAlpha"/>
<feOffset dy="0.769575"/>
<feGaussianBlur stdDeviation="0.769575"/>
<feColorMatrix type="matrix" values="0 0 0 0 0.268354 0 0 0 0 0.268354 0 0 0 0 0.31049 0 0 0 0.15 0"/>
<feBlend mode="normal" in2="BackgroundImageFix" result="effect1_dropShadow_114_2494"/>
<feBlend mode="normal" in="SourceGraphic" in2="effect1_dropShadow_114_2494" result="shape"/>
</filter>
<linearGradient id="paint0_linear_114_2494" x1="-424.491" y1="-80.6549" x2="-424.069" y2="163.366" gradientUnits="userSpaceOnUse">
<stop offset="0.345" stop-color="#1C64F2"/>
<stop offset="1" stop-color="white" stop-opacity="0.01"/>
</linearGradient>
<clipPath id="clip0_114_2494">
<rect width="167" height="136" fill="white" transform="translate(14.3132 13.3132)"/>
</clipPath>
</defs>
</svg>
