<svg width="274" height="104" viewBox="0 0 274 104" fill="none" xmlns="http://www.w3.org/2000/svg">
<g filter="url(#filter0_d_155_964)">
<rect x="16" y="4" width="242" height="72" rx="4" fill="white"/>
<rect x="16.5" y="4.5" width="241" height="71" rx="3.5" stroke="#EEECF2"/>
</g>
<path d="M75.692 34.2V35.712H72.024V38.274H75.272V39.786H72.024V42.488H75.692V44H70.05V34.2H75.692ZM79.4002 36.244V37.406C79.8949 36.5567 80.6976 36.132 81.8082 36.132C82.6949 36.132 83.4183 36.426 83.9783 37.014C84.5383 37.5927 84.8183 38.4 84.8183 39.436V44H82.8583V39.716C82.8583 39.1093 82.7043 38.6473 82.3962 38.33C82.0882 38.0033 81.6682 37.84 81.1362 37.84C80.6043 37.84 80.1796 38.0033 79.8622 38.33C79.5542 38.6473 79.4002 39.1093 79.4002 39.716V44H77.4262V36.244H79.4002ZM91.5082 41.802C91.9188 41.3913 92.1242 40.8313 92.1242 40.122C92.1242 39.4127 91.9188 38.8573 91.5082 38.456C91.0975 38.0453 90.6168 37.84 90.0662 37.84C89.5155 37.84 89.0348 38.0407 88.6242 38.442C88.2228 38.8433 88.0222 39.3987 88.0222 40.108C88.0222 40.8173 88.2275 41.3773 88.6382 41.788C89.0488 42.1987 89.5248 42.404 90.0662 42.404C90.6168 42.404 91.0975 42.2033 91.5082 41.802ZM87.0562 42.992C86.3655 42.236 86.0202 41.2747 86.0202 40.108C86.0202 38.9413 86.3655 37.9893 87.0562 37.252C87.7468 36.5053 88.6242 36.132 89.6882 36.132C90.7522 36.132 91.5642 36.5707 92.1242 37.448V36.244H94.0842V47.696H92.1242V42.698C91.5362 43.6407 90.7195 44.112 89.6742 44.112C88.6288 44.112 87.7562 43.7387 87.0562 42.992ZM101.246 36.244H103.22V44H101.246V42.824C100.751 43.6733 99.9435 44.098 98.8235 44.098C97.9462 44.098 97.2275 43.8087 96.6675 43.23C96.1075 42.642 95.8275 41.83 95.8275 40.794V36.244H97.7875V40.514C97.7875 41.1207 97.9415 41.5873 98.2495 41.914C98.5575 42.2407 98.9775 42.404 99.5095 42.404C100.042 42.404 100.462 42.2407 100.769 41.914C101.087 41.5873 101.246 41.1207 101.246 40.514V36.244ZM108.313 44.112C107.184 44.112 106.265 43.748 105.555 43.02C104.846 42.2827 104.491 41.312 104.491 40.108C104.491 38.904 104.846 37.9427 105.555 37.224C106.274 36.496 107.198 36.132 108.327 36.132C109.466 36.132 110.399 36.4867 111.127 37.196C111.855 37.896 112.219 38.834 112.219 40.01C112.219 40.2807 112.201 40.5327 112.163 40.766H106.507C106.554 41.27 106.741 41.676 107.067 41.984C107.394 42.292 107.809 42.446 108.313 42.446C108.995 42.446 109.499 42.166 109.825 41.606H111.953C111.729 42.3433 111.295 42.9453 110.651 43.412C110.007 43.8787 109.228 44.112 108.313 44.112ZM110.175 39.492C110.147 38.9787 109.956 38.568 109.601 38.26C109.256 37.952 108.836 37.798 108.341 37.798C107.847 37.798 107.431 37.952 107.095 38.26C106.769 38.568 106.573 38.9787 106.507 39.492H110.175ZM116.504 42.348H117.442V44H116.196C115.402 44 114.791 43.818 114.362 43.454C113.932 43.09 113.718 42.488 113.718 41.648V37.854H112.892V36.244H113.718V34.326H115.692V36.244H117.428V37.854H115.692V41.648C115.692 41.9 115.752 42.082 115.874 42.194C115.995 42.2967 116.205 42.348 116.504 42.348ZM121.972 44.112C120.843 44.112 119.924 43.748 119.214 43.02C118.505 42.2827 118.15 41.312 118.15 40.108C118.15 38.904 118.505 37.9427 119.214 37.224C119.933 36.496 120.857 36.132 121.986 36.132C123.125 36.132 124.058 36.4867 124.786 37.196C125.514 37.896 125.878 38.834 125.878 40.01C125.878 40.2807 125.86 40.5327 125.822 40.766H120.166C120.213 41.27 120.4 41.676 120.726 41.984C121.053 42.292 121.468 42.446 121.972 42.446C122.654 42.446 123.158 42.166 123.484 41.606H125.612C125.388 42.3433 124.954 42.9453 124.31 43.412C123.666 43.8787 122.887 44.112 121.972 44.112ZM123.834 39.492C123.806 38.9787 123.615 38.568 123.26 38.26C122.915 37.952 122.495 37.798 122 37.798C121.506 37.798 121.09 37.952 120.754 38.26C120.428 38.568 120.232 38.9787 120.166 39.492H123.834ZM134.514 42.446C135.064 42.446 135.536 42.2453 135.928 41.844C136.329 41.4333 136.53 40.8593 136.53 40.122C136.53 39.3753 136.334 38.8013 135.942 38.4C135.55 37.9987 135.074 37.798 134.514 37.798C133.963 37.798 133.496 37.9987 133.114 38.4C132.731 38.8013 132.54 39.3753 132.54 40.122C132.54 40.8687 132.731 41.4427 133.114 41.844C133.496 42.2453 133.963 42.446 134.514 42.446ZM131.672 43.006C130.916 42.2687 130.538 41.3027 130.538 40.108C130.538 38.9133 130.92 37.952 131.686 37.224C132.451 36.496 133.398 36.132 134.528 36.132C135.666 36.132 136.618 36.496 137.384 37.224C138.149 37.952 138.532 38.9133 138.532 40.108C138.532 41.3027 138.144 42.2687 137.37 43.006C136.604 43.7433 135.652 44.112 134.514 44.112C133.375 44.112 132.428 43.7433 131.672 43.006ZM141.787 36.244V37.406C142.282 36.5567 143.085 36.132 144.195 36.132C145.082 36.132 145.805 36.426 146.365 37.014C146.925 37.5927 147.205 38.4 147.205 39.436V44H145.245V39.716C145.245 39.1093 145.091 38.6473 144.783 38.33C144.475 38.0033 144.055 37.84 143.523 37.84C142.991 37.84 142.567 38.0033 142.249 38.33C141.941 38.6473 141.787 39.1093 141.787 39.716V44H139.813V36.244H141.787ZM148.953 44V33.64H150.927V44H148.953ZM154.931 34.27C154.931 34.606 154.815 34.8907 154.581 35.124C154.348 35.3573 154.063 35.474 153.727 35.474C153.401 35.474 153.121 35.3573 152.887 35.124C152.654 34.8907 152.537 34.606 152.537 34.27C152.537 33.934 152.654 33.6493 152.887 33.416C153.121 33.1827 153.401 33.066 153.727 33.066C154.063 33.066 154.348 33.1827 154.581 33.416C154.815 33.6493 154.931 33.934 154.931 34.27ZM152.747 44V36.244H154.721V44H152.747ZM158.516 36.244V37.406C159.01 36.5567 159.813 36.132 160.924 36.132C161.81 36.132 162.534 36.426 163.094 37.014C163.654 37.5927 163.934 38.4 163.934 39.436V44H161.974V39.716C161.974 39.1093 161.82 38.6473 161.512 38.33C161.204 38.0033 160.784 37.84 160.252 37.84C159.72 37.84 159.295 38.0033 158.978 38.33C158.67 38.6473 158.516 39.1093 158.516 39.716V44H156.542V36.244H158.516ZM168.957 44.112C167.828 44.112 166.909 43.748 166.199 43.02C165.49 42.2827 165.135 41.312 165.135 40.108C165.135 38.904 165.49 37.9427 166.199 37.224C166.918 36.496 167.842 36.132 168.971 36.132C170.11 36.132 171.043 36.4867 171.771 37.196C172.499 37.896 172.863 38.834 172.863 40.01C172.863 40.2807 172.845 40.5327 172.807 40.766H167.151C167.198 41.27 167.385 41.676 167.711 41.984C168.038 42.292 168.453 42.446 168.957 42.446C169.639 42.446 170.143 42.166 170.469 41.606H172.597C172.373 42.3433 171.939 42.9453 171.295 43.412C170.651 43.8787 169.872 44.112 168.957 44.112ZM170.819 39.492C170.791 38.9787 170.6 38.568 170.245 38.26C169.9 37.952 169.48 37.798 168.985 37.798C168.491 37.798 168.075 37.952 167.739 38.26C167.413 38.568 167.217 38.9787 167.151 39.492H170.819Z" fill="#4D4D4F"/>
<path d="M48.4062 30.9375C48.9395 30.9375 49.3906 31.1426 49.8008 31.5117C50.1699 31.9219 50.375 32.373 50.375 32.9062V47.3438C50.375 47.918 50.1699 48.3691 49.8008 48.7383C49.3906 49.1484 48.9395 49.3125 48.4062 49.3125H33.9688C33.3945 49.3125 32.9434 49.1484 32.5742 48.7383C32.1641 48.3691 32 47.918 32 47.3438V32.9062C32 32.373 32.1641 31.9219 32.5742 31.5117C32.9434 31.1426 33.3945 30.9375 33.9688 30.9375H48.4062ZM48.4062 47.3438V32.9062H33.9688V47.3438H48.4062ZM46.9297 37.418C47.0117 37.3359 47.0938 37.2539 47.0938 37.0898C47.0938 36.9668 47.0117 36.8438 46.9297 36.7207L46.0273 35.8184C45.9043 35.7363 45.7812 35.6543 45.6582 35.6543C45.4941 35.6543 45.4121 35.7363 45.3301 35.8184L39.5059 41.5605L37.0859 39.0586C36.9629 38.9766 36.8398 38.9355 36.7168 38.9355C36.5527 38.9355 36.4707 38.9766 36.3887 39.0586L35.4453 40.002C35.3223 40.084 35.2812 40.207 35.2812 40.3301C35.2812 40.4941 35.3223 40.6172 35.4453 40.6992L39.1777 44.4316C39.2598 44.5547 39.3418 44.5957 39.5059 44.5957C39.6289 44.5957 39.752 44.5547 39.875 44.4316L46.9297 37.418Z" fill="#B9B5C8"/>
<path d="M235.938 34.0938L236.656 33.4062C236.802 33.2604 236.979 33.1875 237.188 33.1875C237.396 33.1875 237.573 33.2604 237.719 33.4062L243.781 39.4688C243.927 39.6146 244 39.7917 244 40C244 40.2083 243.927 40.3854 243.781 40.5312L237.719 46.5938C237.573 46.7396 237.396 46.8125 237.188 46.8125C236.979 46.8125 236.802 46.7396 236.656 46.5938L235.938 45.9062C235.792 45.7604 235.719 45.5833 235.719 45.375C235.74 45.1667 235.823 44.9896 235.969 44.8438L239.719 41.25H230.75C230.542 41.25 230.365 41.1771 230.219 41.0312C230.073 40.8854 230 40.7083 230 40.5V39.5C230 39.2917 230.073 39.1146 230.219 38.9688C230.365 38.8229 230.542 38.75 230.75 38.75H239.719L235.969 35.1562C235.823 35.0104 235.74 34.8333 235.719 34.625C235.719 34.4167 235.792 34.2396 235.938 34.0938Z" fill="#DCD9E5"/>
<circle cx="52" cy="27" r="9" fill="#34226B" stroke="white" stroke-width="2"/>
<path d="M49.5889 30.9V29.87C49.7622 29.7167 50.0289 29.4867 50.3889 29.18C50.7489 28.8667 51.0189 28.63 51.1989 28.47C51.3789 28.31 51.5989 28.1 51.8589 27.84C52.1256 27.5733 52.3222 27.35 52.4489 27.17C52.7756 26.7033 52.9389 26.29 52.9389 25.93C52.9389 25.2233 52.6122 24.87 51.9589 24.87C51.6389 24.87 51.3889 24.9767 51.2089 25.19C51.0289 25.4033 50.9356 25.6967 50.9289 26.07H49.5689C49.5756 25.29 49.8022 24.6967 50.2489 24.29C50.7022 23.8833 51.2922 23.68 52.0189 23.68C52.7456 23.68 53.3156 23.8867 53.7289 24.3C54.1422 24.7133 54.3489 25.2333 54.3489 25.86C54.3489 26.3267 54.2289 26.76 53.9889 27.16C53.8689 27.3733 53.7522 27.5633 53.6389 27.73C53.5256 27.89 53.3622 28.0767 53.1489 28.29C52.9422 28.5033 52.7789 28.67 52.6589 28.79C52.5389 28.91 52.3556 29.08 52.1089 29.3C51.8689 29.5133 51.7022 29.6633 51.6089 29.75H54.5189V30.9H49.5889Z" fill="white"/>
<defs>
<filter id="filter0_d_155_964" x="0" y="0" width="274" height="104" filterUnits="userSpaceOnUse" color-interpolation-filters="sRGB">
<feFlood flood-opacity="0" result="BackgroundImageFix"/>
<feColorMatrix in="SourceAlpha" type="matrix" values="0 0 0 0 0 0 0 0 0 0 0 0 0 0 0 0 0 0 127 0" result="hardAlpha"/>
<feOffset dy="12"/>
<feGaussianBlur stdDeviation="8"/>
<feColorMatrix type="matrix" values="0 0 0 0 0.2 0 0 0 0 0.133333 0 0 0 0 0.419608 0 0 0 0.25 0"/>
<feBlend mode="normal" in2="BackgroundImageFix" result="effect1_dropShadow_155_964"/>
<feBlend mode="normal" in="SourceGraphic" in2="effect1_dropShadow_155_964" result="shape"/>
</filter>
</defs>
</svg>
