<svg width="388" height="138" viewBox="0 0 388 138" fill="none" xmlns="http://www.w3.org/2000/svg">
<rect x="17" y="16" width="353" height="34" rx="3" fill="white"/>
<rect x="25" y="24" width="18" height="18" rx="4" fill="#E2E8F0"/>
<path d="M51.54 29.5V28.252H54.036V37H52.656V29.5H51.54ZM56.3113 35.14C57.0793 34.476 57.6833 33.932 58.1233 33.508C58.5713 33.076 58.9433 32.628 59.2393 32.164C59.5353 31.7 59.6833 31.236 59.6833 30.772C59.6833 30.292 59.5673 29.916 59.3353 29.644C59.1113 29.372 58.7553 29.236 58.2673 29.236C57.7953 29.236 57.4273 29.388 57.1633 29.692C56.9073 29.988 56.7713 30.388 56.7553 30.892H55.4353C55.4593 29.98 55.7313 29.284 56.2513 28.804C56.7793 28.316 57.4473 28.072 58.2553 28.072C59.1273 28.072 59.8073 28.312 60.2953 28.792C60.7913 29.272 61.0393 29.912 61.0393 30.712C61.0393 31.288 60.8913 31.844 60.5953 32.38C60.3073 32.908 59.9593 33.384 59.5513 33.808C59.1513 34.224 58.6393 34.708 58.0153 35.26L57.4753 35.74H61.2793V36.88H55.4473V35.884L56.3113 35.14ZM66.7411 25.672L63.4771 39.1H62.1331L65.3851 25.672H66.7411ZM67.9252 32.512C67.9252 31.128 68.1572 30.048 68.6212 29.272C69.0932 28.488 69.9012 28.096 71.0452 28.096C72.1892 28.096 72.9932 28.488 73.4572 29.272C73.9292 30.048 74.1652 31.128 74.1652 32.512C74.1652 33.912 73.9292 35.008 73.4572 35.8C72.9932 36.584 72.1892 36.976 71.0452 36.976C69.9012 36.976 69.0932 36.584 68.6212 35.8C68.1572 35.008 67.9252 33.912 67.9252 32.512ZM72.8212 32.512C72.8212 31.864 72.7772 31.316 72.6892 30.868C72.6092 30.42 72.4412 30.056 72.1852 29.776C71.9292 29.488 71.5492 29.344 71.0452 29.344C70.5412 29.344 70.1612 29.488 69.9052 29.776C69.6492 30.056 69.4772 30.42 69.3892 30.868C69.3092 31.316 69.2692 31.864 69.2692 32.512C69.2692 33.184 69.3092 33.748 69.3892 34.204C69.4692 34.66 69.6372 35.028 69.8932 35.308C70.1572 35.588 70.5412 35.728 71.0452 35.728C71.5492 35.728 71.9292 35.588 72.1852 35.308C72.4492 35.028 72.6212 34.66 72.7012 34.204C72.7812 33.748 72.8212 33.184 72.8212 32.512ZM75.0847 35.176V34.144L79.1167 28.36H80.7727V33.988H81.8887V35.176H80.7727V37H79.4287V35.176H75.0847ZM79.4887 29.752L76.6567 33.988H79.4887V29.752Z" fill="#62748E"/>
<path d="M94.444 32.812C94.444 31.996 94.632 31.264 95.008 30.616C95.392 29.968 95.908 29.464 96.556 29.104C97.212 28.736 97.928 28.552 98.704 28.552C99.592 28.552 100.38 28.772 101.068 29.212C101.764 29.644 102.268 30.26 102.58 31.06H100.936C100.72 30.62 100.42 30.292 100.036 30.076C99.652 29.86 99.208 29.752 98.704 29.752C98.152 29.752 97.66 29.876 97.228 30.124C96.796 30.372 96.456 30.728 96.208 31.192C95.968 31.656 95.848 32.196 95.848 32.812C95.848 33.428 95.968 33.968 96.208 34.432C96.456 34.896 96.796 35.256 97.228 35.512C97.66 35.76 98.152 35.884 98.704 35.884C99.208 35.884 99.652 35.776 100.036 35.56C100.42 35.344 100.72 35.016 100.936 34.576H102.58C102.268 35.376 101.764 35.992 101.068 36.424C100.38 36.856 99.592 37.072 98.704 37.072C97.92 37.072 97.204 36.892 96.556 36.532C95.908 36.164 95.392 35.656 95.008 35.008C94.632 34.36 94.444 33.628 94.444 32.812ZM106.689 37.108C106.065 37.108 105.501 36.968 104.997 36.688C104.493 36.4 104.097 36 103.809 35.488C103.521 34.968 103.377 34.368 103.377 33.688C103.377 33.016 103.525 32.42 103.821 31.9C104.117 31.38 104.521 30.98 105.033 30.7C105.545 30.42 106.117 30.28 106.749 30.28C107.381 30.28 107.953 30.42 108.465 30.7C108.977 30.98 109.381 31.38 109.677 31.9C109.973 32.42 110.121 33.016 110.121 33.688C110.121 34.36 109.969 34.956 109.665 35.476C109.361 35.996 108.945 36.4 108.417 36.688C107.897 36.968 107.321 37.108 106.689 37.108ZM106.689 35.92C107.041 35.92 107.369 35.836 107.673 35.668C107.985 35.5 108.237 35.248 108.429 34.912C108.621 34.576 108.717 34.168 108.717 33.688C108.717 33.208 108.625 32.804 108.441 32.476C108.257 32.14 108.013 31.888 107.709 31.72C107.405 31.552 107.077 31.468 106.725 31.468C106.373 31.468 106.045 31.552 105.741 31.72C105.445 31.888 105.209 32.14 105.033 32.476C104.857 32.804 104.769 33.208 104.769 33.688C104.769 34.4 104.949 34.952 105.309 35.344C105.677 35.728 106.137 35.92 106.689 35.92ZM119.118 30.28C119.638 30.28 120.102 30.388 120.51 30.604C120.926 30.82 121.25 31.14 121.482 31.564C121.722 31.988 121.842 32.5 121.842 33.1V37H120.486V33.304C120.486 32.712 120.338 32.26 120.042 31.948C119.746 31.628 119.342 31.468 118.83 31.468C118.318 31.468 117.91 31.628 117.606 31.948C117.31 32.26 117.162 32.712 117.162 33.304V37H115.806V33.304C115.806 32.712 115.658 32.26 115.362 31.948C115.066 31.628 114.662 31.468 114.15 31.468C113.638 31.468 113.23 31.628 112.926 31.948C112.63 32.26 112.482 32.712 112.482 33.304V37H111.114V30.388H112.482V31.144C112.706 30.872 112.99 30.66 113.334 30.508C113.678 30.356 114.046 30.28 114.438 30.28C114.966 30.28 115.438 30.392 115.854 30.616C116.27 30.84 116.59 31.164 116.814 31.588C117.014 31.188 117.326 30.872 117.75 30.64C118.174 30.4 118.63 30.28 119.118 30.28ZM124.59 31.372C124.822 31.052 125.138 30.792 125.538 30.592C125.946 30.384 126.398 30.28 126.894 30.28C127.478 30.28 128.006 30.42 128.478 30.7C128.95 30.98 129.322 31.38 129.594 31.9C129.866 32.412 130.002 33 130.002 33.664C130.002 34.328 129.866 34.924 129.594 35.452C129.322 35.972 128.946 36.38 128.466 36.676C127.994 36.964 127.47 37.108 126.894 37.108C126.382 37.108 125.926 37.008 125.526 36.808C125.134 36.608 124.822 36.352 124.59 36.04V37H123.222V28.12H124.59V31.372ZM128.61 33.664C128.61 33.208 128.514 32.816 128.322 32.488C128.138 32.152 127.89 31.9 127.578 31.732C127.274 31.556 126.946 31.468 126.594 31.468C126.25 31.468 125.922 31.556 125.61 31.732C125.306 31.908 125.058 32.164 124.866 32.5C124.682 32.836 124.59 33.232 124.59 33.688C124.59 34.144 124.682 34.544 124.866 34.888C125.058 35.224 125.306 35.48 125.61 35.656C125.922 35.832 126.25 35.92 126.594 35.92C126.946 35.92 127.274 35.832 127.578 35.656C127.89 35.472 128.138 35.208 128.322 34.864C128.514 34.52 128.61 34.12 128.61 33.664ZM136.983 30.388V37H135.615V36.22C135.399 36.492 135.115 36.708 134.763 36.868C134.419 37.02 134.051 37.096 133.659 37.096C133.139 37.096 132.671 36.988 132.255 36.772C131.847 36.556 131.523 36.236 131.283 35.812C131.051 35.388 130.935 34.876 130.935 34.276V30.388H132.291V34.072C132.291 34.664 132.439 35.12 132.735 35.44C133.031 35.752 133.435 35.908 133.947 35.908C134.459 35.908 134.863 35.752 135.159 35.44C135.463 35.12 135.615 34.664 135.615 34.072V30.388H136.983ZM140.828 37.108C140.308 37.108 139.84 37.016 139.424 36.832C139.016 36.64 138.692 36.384 138.452 36.064C138.212 35.736 138.084 35.372 138.068 34.972H139.484C139.508 35.252 139.64 35.488 139.88 35.68C140.128 35.864 140.436 35.956 140.804 35.956C141.188 35.956 141.484 35.884 141.692 35.74C141.908 35.588 142.016 35.396 142.016 35.164C142.016 34.916 141.896 34.732 141.656 34.612C141.424 34.492 141.052 34.36 140.54 34.216C140.044 34.08 139.64 33.948 139.328 33.82C139.016 33.692 138.744 33.496 138.512 33.232C138.288 32.968 138.176 32.62 138.176 32.188C138.176 31.836 138.28 31.516 138.488 31.228C138.696 30.932 138.992 30.7 139.376 30.532C139.768 30.364 140.216 30.28 140.72 30.28C141.472 30.28 142.076 30.472 142.532 30.856C142.996 31.232 143.244 31.748 143.276 32.404H141.908C141.884 32.108 141.764 31.872 141.548 31.696C141.332 31.52 141.04 31.432 140.672 31.432C140.312 31.432 140.036 31.5 139.844 31.636C139.652 31.772 139.556 31.952 139.556 32.176C139.556 32.352 139.62 32.5 139.748 32.62C139.876 32.74 140.032 32.836 140.216 32.908C140.4 32.972 140.672 33.056 141.032 33.16C141.512 33.288 141.904 33.42 142.208 33.556C142.52 33.684 142.788 33.876 143.012 34.132C143.236 34.388 143.352 34.728 143.36 35.152C143.36 35.528 143.256 35.864 143.048 36.16C142.84 36.456 142.544 36.688 142.16 36.856C141.784 37.024 141.34 37.108 140.828 37.108ZM146.074 31.504V35.164C146.074 35.412 146.13 35.592 146.242 35.704C146.362 35.808 146.562 35.86 146.842 35.86H147.682V37H146.602C145.986 37 145.514 36.856 145.186 36.568C144.858 36.28 144.694 35.812 144.694 35.164V31.504H143.914V30.388H144.694V28.744H146.074V30.388H147.682V31.504H146.074ZM149.951 30.388V37H148.583V30.388H149.951ZM150.503 28.612L147.851 29.92V28.912L150.503 27.448V28.612ZM153.943 35.776L155.815 30.388H157.267L154.747 37H153.115L150.607 30.388H152.071L153.943 35.776ZM164.001 33.532C164.001 33.78 163.985 34.004 163.953 34.204H158.901C158.941 34.732 159.137 35.156 159.489 35.476C159.841 35.796 160.273 35.956 160.785 35.956C161.521 35.956 162.041 35.648 162.345 35.032H163.821C163.621 35.64 163.257 36.14 162.729 36.532C162.209 36.916 161.561 37.108 160.785 37.108C160.153 37.108 159.585 36.968 159.081 36.688C158.585 36.4 158.193 36 157.905 35.488C157.625 34.968 157.485 34.368 157.485 33.688C157.485 33.008 157.621 32.412 157.893 31.9C158.173 31.38 158.561 30.98 159.057 30.7C159.561 30.42 160.137 30.28 160.785 30.28C161.409 30.28 161.965 30.416 162.453 30.688C162.941 30.96 163.321 31.344 163.593 31.84C163.865 32.328 164.001 32.892 164.001 33.532ZM162.573 33.1C162.565 32.596 162.385 32.192 162.033 31.888C161.681 31.584 161.245 31.432 160.725 31.432C160.253 31.432 159.849 31.584 159.513 31.888C159.177 32.184 158.977 32.588 158.913 33.1H162.573ZM166.356 28.12V37H164.988V28.12H166.356Z" fill="#62748E"/>
<rect x="223" y="31" width="89" height="4" rx="2" fill="#D9D9D9"/>
<rect x="223" y="31" width="79" height="4" rx="2" fill="#5C5EDC"/>
<rect x="320" y="24" width="42" height="18" rx="3" fill="#00E5BA" fill-opacity="0.15"/>
<path d="M330.104 33.46H327.836V35.788H326.252V33.46H323.984V31.996H326.252V29.668H327.836V31.996H330.104V33.46ZM331.506 30.556C331.546 29.756 331.826 29.14 332.346 28.708C332.874 28.268 333.566 28.048 334.422 28.048C335.006 28.048 335.506 28.152 335.922 28.36C336.338 28.56 336.65 28.836 336.858 29.188C337.074 29.532 337.182 29.924 337.182 30.364C337.182 30.868 337.05 31.296 336.786 31.648C336.53 31.992 336.222 32.224 335.862 32.344V32.392C336.326 32.536 336.686 32.792 336.942 33.16C337.206 33.528 337.338 34 337.338 34.576C337.338 35.056 337.226 35.484 337.002 35.86C336.786 36.236 336.462 36.532 336.03 36.748C335.606 36.956 335.094 37.06 334.494 37.06C333.59 37.06 332.854 36.832 332.286 36.376C331.718 35.92 331.418 35.248 331.386 34.36H333.018C333.034 34.752 333.166 35.068 333.414 35.308C333.67 35.54 334.018 35.656 334.458 35.656C334.866 35.656 335.178 35.544 335.394 35.32C335.618 35.088 335.73 34.792 335.73 34.432C335.73 33.952 335.578 33.608 335.274 33.4C334.97 33.192 334.498 33.088 333.858 33.088H333.51V31.708H333.858C334.994 31.708 335.562 31.328 335.562 30.568C335.562 30.224 335.458 29.956 335.25 29.764C335.05 29.572 334.758 29.476 334.374 29.476C333.998 29.476 333.706 29.58 333.498 29.788C333.298 29.988 333.182 30.244 333.15 30.556H331.506ZM340.454 35.236L339.05 38.608H337.97L338.75 35.236H340.454ZM347.112 29.704H343.224V31.756C343.392 31.548 343.632 31.38 343.944 31.252C344.256 31.116 344.588 31.048 344.94 31.048C345.58 31.048 346.104 31.188 346.512 31.468C346.92 31.748 347.216 32.108 347.4 32.548C347.584 32.98 347.676 33.444 347.676 33.94C347.676 34.86 347.412 35.6 346.884 36.16C346.364 36.72 345.62 37 344.652 37C343.74 37 343.012 36.772 342.468 36.316C341.924 35.86 341.616 35.264 341.544 34.528H343.176C343.248 34.848 343.408 35.104 343.656 35.296C343.912 35.488 344.236 35.584 344.628 35.584C345.1 35.584 345.456 35.436 345.696 35.14C345.936 34.844 346.056 34.452 346.056 33.964C346.056 33.468 345.932 33.092 345.684 32.836C345.444 32.572 345.088 32.44 344.616 32.44C344.28 32.44 344 32.524 343.776 32.692C343.552 32.86 343.392 33.084 343.296 33.364H341.688V28.228H347.112V29.704ZM348.523 30.4C348.523 29.792 348.699 29.316 349.051 28.972C349.411 28.628 349.871 28.456 350.431 28.456C350.991 28.456 351.447 28.628 351.799 28.972C352.159 29.316 352.339 29.792 352.339 30.4C352.339 31.016 352.159 31.496 351.799 31.84C351.447 32.184 350.991 32.356 350.431 32.356C349.871 32.356 349.411 32.184 349.051 31.84C348.699 31.496 348.523 31.016 348.523 30.4ZM356.227 28.6L351.511 37H349.879L354.583 28.6H356.227ZM350.419 29.464C349.979 29.464 349.759 29.776 349.759 30.4C349.759 31.032 349.979 31.348 350.419 31.348C350.635 31.348 350.803 31.272 350.923 31.12C351.043 30.96 351.103 30.72 351.103 30.4C351.103 29.776 350.875 29.464 350.419 29.464ZM353.791 35.188C353.791 34.572 353.967 34.096 354.319 33.76C354.679 33.416 355.139 33.244 355.699 33.244C356.259 33.244 356.711 33.416 357.055 33.76C357.407 34.096 357.583 34.572 357.583 35.188C357.583 35.804 357.407 36.284 357.055 36.628C356.711 36.972 356.259 37.144 355.699 37.144C355.131 37.144 354.671 36.972 354.319 36.628C353.967 36.284 353.791 35.804 353.791 35.188ZM355.687 34.252C355.231 34.252 355.003 34.564 355.003 35.188C355.003 35.82 355.231 36.136 355.687 36.136C356.135 36.136 356.359 35.82 356.359 35.188C356.359 34.564 356.135 34.252 355.687 34.252Z" fill="#20B79B"/>
<rect x="17" y="52" width="353" height="34" rx="3" fill="white"/>
<rect x="25" y="60" width="18" height="18" rx="4" fill="#5C5EDC"/>
<path d="M38.6663 65.7916L32.2497 72.2083L29.333 69.2916" stroke="white" stroke-width="2" stroke-linecap="round" stroke-linejoin="round"/>
<path d="M51.54 65.5V64.252H54.036V73H52.656V65.5H51.54ZM56.3113 71.14C57.0793 70.476 57.6833 69.932 58.1233 69.508C58.5713 69.076 58.9433 68.628 59.2393 68.164C59.5353 67.7 59.6833 67.236 59.6833 66.772C59.6833 66.292 59.5673 65.916 59.3353 65.644C59.1113 65.372 58.7553 65.236 58.2673 65.236C57.7953 65.236 57.4273 65.388 57.1633 65.692C56.9073 65.988 56.7713 66.388 56.7553 66.892H55.4353C55.4593 65.98 55.7313 65.284 56.2513 64.804C56.7793 64.316 57.4473 64.072 58.2553 64.072C59.1273 64.072 59.8073 64.312 60.2953 64.792C60.7913 65.272 61.0393 65.912 61.0393 66.712C61.0393 67.288 60.8913 67.844 60.5953 68.38C60.3073 68.908 59.9593 69.384 59.5513 69.808C59.1513 70.224 58.6393 70.708 58.0153 71.26L57.4753 71.74H61.2793V72.88H55.4473V71.884L56.3113 71.14ZM66.7411 61.672L63.4771 75.1H62.1331L65.3851 61.672H66.7411ZM67.9252 68.512C67.9252 67.128 68.1572 66.048 68.6212 65.272C69.0932 64.488 69.9012 64.096 71.0452 64.096C72.1892 64.096 72.9932 64.488 73.4572 65.272C73.9292 66.048 74.1652 67.128 74.1652 68.512C74.1652 69.912 73.9292 71.008 73.4572 71.8C72.9932 72.584 72.1892 72.976 71.0452 72.976C69.9012 72.976 69.0932 72.584 68.6212 71.8C68.1572 71.008 67.9252 69.912 67.9252 68.512ZM72.8212 68.512C72.8212 67.864 72.7772 67.316 72.6892 66.868C72.6092 66.42 72.4412 66.056 72.1852 65.776C71.9292 65.488 71.5492 65.344 71.0452 65.344C70.5412 65.344 70.1612 65.488 69.9052 65.776C69.6492 66.056 69.4772 66.42 69.3892 66.868C69.3092 67.316 69.2692 67.864 69.2692 68.512C69.2692 69.184 69.3092 69.748 69.3892 70.204C69.4692 70.66 69.6372 71.028 69.8932 71.308C70.1572 71.588 70.5412 71.728 71.0452 71.728C71.5492 71.728 71.9292 71.588 72.1852 71.308C72.4492 71.028 72.6212 70.66 72.7012 70.204C72.7812 69.748 72.8212 69.184 72.8212 68.512ZM75.0847 71.176V70.144L79.1167 64.36H80.7727V69.988H81.8887V71.176H80.7727V73H79.4287V71.176H75.0847ZM79.4887 65.752L76.6567 69.988H79.4887V65.752Z" fill="#62748E"/>
<path d="M103.684 64.66V73H102.316V67.288L99.772 73H98.824L96.268 67.288V73H94.9V64.66H96.376L99.304 71.2L102.22 64.66H103.684ZM104.666 69.664C104.666 69 104.802 68.412 105.074 67.9C105.354 67.388 105.73 66.992 106.202 66.712C106.682 66.424 107.21 66.28 107.786 66.28C108.306 66.28 108.758 66.384 109.142 66.592C109.534 66.792 109.846 67.044 110.078 67.348V66.388H111.458V73H110.078V72.016C109.846 72.328 109.53 72.588 109.13 72.796C108.73 73.004 108.274 73.108 107.762 73.108C107.194 73.108 106.674 72.964 106.202 72.676C105.73 72.38 105.354 71.972 105.074 71.452C104.802 70.924 104.666 70.328 104.666 69.664ZM110.078 69.688C110.078 69.232 109.982 68.836 109.79 68.5C109.606 68.164 109.362 67.908 109.058 67.732C108.754 67.556 108.426 67.468 108.074 67.468C107.722 67.468 107.394 67.556 107.09 67.732C106.786 67.9 106.538 68.152 106.346 68.488C106.162 68.816 106.07 69.208 106.07 69.664C106.07 70.12 106.162 70.52 106.346 70.864C106.538 71.208 106.786 71.472 107.09 71.656C107.402 71.832 107.73 71.92 108.074 71.92C108.426 71.92 108.754 71.832 109.058 71.656C109.362 71.48 109.606 71.224 109.79 70.888C109.982 70.544 110.078 70.144 110.078 69.688ZM114.491 67.504V71.164C114.491 71.412 114.547 71.592 114.659 71.704C114.779 71.808 114.979 71.86 115.259 71.86H116.099V73H115.019C114.403 73 113.931 72.856 113.603 72.568C113.275 72.28 113.111 71.812 113.111 71.164V67.504H112.331V66.388H113.111V64.744H114.491V66.388H116.099V67.504H114.491ZM123.06 69.532C123.06 69.78 123.044 70.004 123.012 70.204H117.96C118 70.732 118.196 71.156 118.548 71.476C118.9 71.796 119.332 71.956 119.844 71.956C120.58 71.956 121.1 71.648 121.404 71.032H122.88C122.68 71.64 122.316 72.14 121.788 72.532C121.268 72.916 120.62 73.108 119.844 73.108C119.212 73.108 118.644 72.968 118.14 72.688C117.644 72.4 117.252 72 116.964 71.488C116.684 70.968 116.544 70.368 116.544 69.688C116.544 69.008 116.68 68.412 116.952 67.9C117.232 67.38 117.62 66.98 118.116 66.7C118.62 66.42 119.196 66.28 119.844 66.28C120.468 66.28 121.024 66.416 121.512 66.688C122 66.96 122.38 67.344 122.652 67.84C122.924 68.328 123.06 68.892 123.06 69.532ZM121.632 69.1C121.624 68.596 121.444 68.192 121.092 67.888C120.74 67.584 120.304 67.432 119.784 67.432C119.312 67.432 118.908 67.584 118.572 67.888C118.236 68.184 118.036 68.588 117.972 69.1H121.632ZM125.414 67.348C125.614 67.012 125.878 66.752 126.206 66.568C126.542 66.376 126.938 66.28 127.394 66.28V67.696H127.046C126.51 67.696 126.102 67.832 125.822 68.104C125.55 68.376 125.414 68.848 125.414 69.52V73H124.046V66.388H125.414V67.348ZM128.987 65.512C128.739 65.512 128.531 65.428 128.363 65.26C128.195 65.092 128.111 64.884 128.111 64.636C128.111 64.388 128.195 64.18 128.363 64.012C128.531 63.844 128.739 63.76 128.987 63.76C129.227 63.76 129.431 63.844 129.599 64.012C129.767 64.18 129.851 64.388 129.851 64.636C129.851 64.884 129.767 65.092 129.599 65.26C129.431 65.428 129.227 65.512 128.987 65.512ZM129.659 66.388V73H128.291V66.388H129.659ZM130.639 69.664C130.639 69 130.775 68.412 131.047 67.9C131.327 67.388 131.703 66.992 132.175 66.712C132.655 66.424 133.183 66.28 133.759 66.28C134.279 66.28 134.731 66.384 135.115 66.592C135.507 66.792 135.819 67.044 136.051 67.348V66.388H137.431V73H136.051V72.016C135.819 72.328 135.503 72.588 135.103 72.796C134.703 73.004 134.247 73.108 133.735 73.108C133.167 73.108 132.647 72.964 132.175 72.676C131.703 72.38 131.327 71.972 131.047 71.452C130.775 70.924 130.639 70.328 130.639 69.664ZM136.051 69.688C136.051 69.232 135.955 68.836 135.763 68.5C135.579 68.164 135.335 67.908 135.031 67.732C134.727 67.556 134.399 67.468 134.047 67.468C133.695 67.468 133.367 67.556 133.063 67.732C132.759 67.9 132.511 68.152 132.319 68.488C132.135 68.816 132.043 69.208 132.043 69.664C132.043 70.12 132.135 70.52 132.319 70.864C132.511 71.208 132.759 71.472 133.063 71.656C133.375 71.832 133.703 71.92 134.047 71.92C134.399 71.92 134.727 71.832 135.031 71.656C135.335 71.48 135.579 71.224 135.763 70.888C135.955 70.544 136.051 70.144 136.051 69.688ZM140.236 64.12V73H138.868V64.12H140.236ZM143.974 69.664C143.974 69 144.11 68.412 144.382 67.9C144.662 67.388 145.038 66.992 145.51 66.712C145.99 66.424 146.522 66.28 147.106 66.28C147.538 66.28 147.962 66.376 148.378 66.568C148.802 66.752 149.138 67 149.386 67.312V64.12H150.766V73H149.386V72.004C149.162 72.324 148.85 72.588 148.45 72.796C148.058 73.004 147.606 73.108 147.094 73.108C146.518 73.108 145.99 72.964 145.51 72.676C145.038 72.38 144.662 71.972 144.382 71.452C144.11 70.924 143.974 70.328 143.974 69.664ZM149.386 69.688C149.386 69.232 149.29 68.836 149.098 68.5C148.914 68.164 148.67 67.908 148.366 67.732C148.062 67.556 147.734 67.468 147.382 67.468C147.03 67.468 146.702 67.556 146.398 67.732C146.094 67.9 145.846 68.152 145.654 68.488C145.47 68.816 145.378 69.208 145.378 69.664C145.378 70.12 145.47 70.52 145.654 70.864C145.846 71.208 146.094 71.472 146.398 71.656C146.71 71.832 147.038 71.92 147.382 71.92C147.734 71.92 148.062 71.832 148.366 71.656C148.67 71.48 148.914 71.224 149.098 70.888C149.29 70.544 149.386 70.144 149.386 69.688ZM158.262 69.532C158.262 69.78 158.246 70.004 158.214 70.204H153.162C153.202 70.732 153.398 71.156 153.75 71.476C154.102 71.796 154.534 71.956 155.046 71.956C155.782 71.956 156.302 71.648 156.606 71.032H158.082C157.882 71.64 157.518 72.14 156.99 72.532C156.47 72.916 155.822 73.108 155.046 73.108C154.414 73.108 153.846 72.968 153.342 72.688C152.846 72.4 152.454 72 152.166 71.488C151.886 70.968 151.746 70.368 151.746 69.688C151.746 69.008 151.882 68.412 152.154 67.9C152.434 67.38 152.822 66.98 153.318 66.7C153.822 66.42 154.398 66.28 155.046 66.28C155.67 66.28 156.226 66.416 156.714 66.688C157.202 66.96 157.582 67.344 157.854 67.84C158.126 68.328 158.262 68.892 158.262 69.532ZM156.834 69.1C156.826 68.596 156.646 68.192 156.294 67.888C155.942 67.584 155.506 67.432 154.986 67.432C154.514 67.432 154.11 67.584 153.774 67.888C153.438 68.184 153.238 68.588 153.174 69.1H156.834ZM168.066 69.532C168.066 69.78 168.05 70.004 168.018 70.204H162.966C163.006 70.732 163.202 71.156 163.554 71.476C163.906 71.796 164.338 71.956 164.85 71.956C165.586 71.956 166.106 71.648 166.41 71.032H167.886C167.686 71.64 167.322 72.14 166.794 72.532C166.274 72.916 165.626 73.108 164.85 73.108C164.218 73.108 163.65 72.968 163.146 72.688C162.65 72.4 162.258 72 161.97 71.488C161.69 70.968 161.55 70.368 161.55 69.688C161.55 69.008 161.686 68.412 161.958 67.9C162.238 67.38 162.626 66.98 163.122 66.7C163.626 66.42 164.202 66.28 164.85 66.28C165.474 66.28 166.03 66.416 166.518 66.688C167.006 66.96 167.386 67.344 167.658 67.84C167.93 68.328 168.066 68.892 168.066 69.532ZM166.638 69.1C166.63 68.596 166.45 68.192 166.098 67.888C165.746 67.584 165.31 67.432 164.79 67.432C164.318 67.432 163.914 67.584 163.578 67.888C163.242 68.184 163.042 68.588 162.978 69.1H166.638ZM171.452 73.108C170.932 73.108 170.464 73.016 170.048 72.832C169.64 72.64 169.316 72.384 169.076 72.064C168.836 71.736 168.708 71.372 168.692 70.972H170.108C170.132 71.252 170.264 71.488 170.504 71.68C170.752 71.864 171.06 71.956 171.428 71.956C171.812 71.956 172.108 71.884 172.316 71.74C172.532 71.588 172.64 71.396 172.64 71.164C172.64 70.916 172.52 70.732 172.28 70.612C172.048 70.492 171.676 70.36 171.164 70.216C170.668 70.08 170.264 69.948 169.952 69.82C169.64 69.692 169.368 69.496 169.136 69.232C168.912 68.968 168.8 68.62 168.8 68.188C168.8 67.836 168.904 67.516 169.112 67.228C169.32 66.932 169.616 66.7 170 66.532C170.392 66.364 170.84 66.28 171.344 66.28C172.096 66.28 172.7 66.472 173.156 66.856C173.62 67.232 173.868 67.748 173.9 68.404H172.532C172.508 68.108 172.388 67.872 172.172 67.696C171.956 67.52 171.664 67.432 171.296 67.432C170.936 67.432 170.66 67.5 170.468 67.636C170.276 67.772 170.18 67.952 170.18 68.176C170.18 68.352 170.244 68.5 170.372 68.62C170.5 68.74 170.656 68.836 170.84 68.908C171.024 68.972 171.296 69.056 171.656 69.16C172.136 69.288 172.528 69.42 172.832 69.556C173.144 69.684 173.412 69.876 173.636 70.132C173.86 70.388 173.976 70.728 173.984 71.152C173.984 71.528 173.88 71.864 173.672 72.16C173.464 72.456 173.168 72.688 172.784 72.856C172.408 73.024 171.964 73.108 171.452 73.108ZM174.646 69.688C174.646 69.008 174.782 68.412 175.054 67.9C175.334 67.38 175.718 66.98 176.206 66.7C176.694 66.42 177.254 66.28 177.886 66.28C178.686 66.28 179.346 66.472 179.866 66.856C180.394 67.232 180.75 67.772 180.934 68.476H179.458C179.338 68.148 179.146 67.892 178.882 67.708C178.618 67.524 178.286 67.432 177.886 67.432C177.326 67.432 176.878 67.632 176.542 68.032C176.214 68.424 176.05 68.976 176.05 69.688C176.05 70.4 176.214 70.956 176.542 71.356C176.878 71.756 177.326 71.956 177.886 71.956C178.678 71.956 179.202 71.608 179.458 70.912H180.934C180.742 71.584 180.382 72.12 179.854 72.52C179.326 72.912 178.67 73.108 177.886 73.108C177.254 73.108 176.694 72.968 176.206 72.688C175.718 72.4 175.334 72 175.054 71.488C174.782 70.968 174.646 70.368 174.646 69.688ZM183.305 67.348C183.505 67.012 183.769 66.752 184.097 66.568C184.433 66.376 184.829 66.28 185.285 66.28V67.696H184.937C184.401 67.696 183.993 67.832 183.713 68.104C183.441 68.376 183.305 68.848 183.305 69.52V73H181.937V66.388H183.305V67.348ZM186.879 65.512C186.631 65.512 186.423 65.428 186.255 65.26C186.087 65.092 186.003 64.884 186.003 64.636C186.003 64.388 186.087 64.18 186.255 64.012C186.423 63.844 186.631 63.76 186.879 63.76C187.119 63.76 187.323 63.844 187.491 64.012C187.659 64.18 187.743 64.388 187.743 64.636C187.743 64.884 187.659 65.092 187.491 65.26C187.323 65.428 187.119 65.512 186.879 65.512ZM187.551 66.388V73H186.183V66.388H187.551ZM190.583 67.504V71.164C190.583 71.412 190.639 71.592 190.751 71.704C190.871 71.808 191.071 71.86 191.351 71.86H192.191V73H191.111C190.495 73 190.023 72.856 189.695 72.568C189.367 72.28 189.203 71.812 189.203 71.164V67.504H188.423V66.388H189.203V64.744H190.583V66.388H192.191V67.504H190.583ZM195.96 73.108C195.336 73.108 194.772 72.968 194.268 72.688C193.764 72.4 193.368 72 193.08 71.488C192.792 70.968 192.648 70.368 192.648 69.688C192.648 69.016 192.796 68.42 193.092 67.9C193.388 67.38 193.792 66.98 194.304 66.7C194.816 66.42 195.388 66.28 196.02 66.28C196.652 66.28 197.224 66.42 197.736 66.7C198.248 66.98 198.652 67.38 198.948 67.9C199.244 68.42 199.392 69.016 199.392 69.688C199.392 70.36 199.24 70.956 198.936 71.476C198.632 71.996 198.216 72.4 197.688 72.688C197.168 72.968 196.592 73.108 195.96 73.108ZM195.96 71.92C196.312 71.92 196.64 71.836 196.944 71.668C197.256 71.5 197.508 71.248 197.7 70.912C197.892 70.576 197.988 70.168 197.988 69.688C197.988 69.208 197.896 68.804 197.712 68.476C197.528 68.14 197.284 67.888 196.98 67.72C196.676 67.552 196.348 67.468 195.996 67.468C195.644 67.468 195.316 67.552 195.012 67.72C194.716 67.888 194.48 68.14 194.304 68.476C194.128 68.804 194.04 69.208 194.04 69.688C194.04 70.4 194.22 70.952 194.58 71.344C194.948 71.728 195.408 71.92 195.96 71.92ZM197.256 64.504L194.604 65.812V64.804L197.256 63.34V64.504ZM201.752 67.348C201.952 67.012 202.216 66.752 202.544 66.568C202.88 66.376 203.276 66.28 203.732 66.28V67.696H203.384C202.848 67.696 202.44 67.832 202.16 68.104C201.888 68.376 201.752 68.848 201.752 69.52V73H200.384V66.388H201.752V67.348ZM205.326 65.512C205.078 65.512 204.87 65.428 204.702 65.26C204.534 65.092 204.45 64.884 204.45 64.636C204.45 64.388 204.534 64.18 204.702 64.012C204.87 63.844 205.078 63.76 205.326 63.76C205.566 63.76 205.77 63.844 205.938 64.012C206.106 64.18 206.19 64.388 206.19 64.636C206.19 64.884 206.106 65.092 205.938 65.26C205.77 65.428 205.566 65.512 205.326 65.512ZM205.998 66.388V73H204.63V66.388H205.998ZM210.302 73.108C209.678 73.108 209.114 72.968 208.61 72.688C208.106 72.4 207.71 72 207.422 71.488C207.134 70.968 206.99 70.368 206.99 69.688C206.99 69.016 207.138 68.42 207.434 67.9C207.73 67.38 208.134 66.98 208.646 66.7C209.158 66.42 209.73 66.28 210.362 66.28C210.994 66.28 211.566 66.42 212.078 66.7C212.59 66.98 212.994 67.38 213.29 67.9C213.586 68.42 213.734 69.016 213.734 69.688C213.734 70.36 213.582 70.956 213.278 71.476C212.974 71.996 212.558 72.4 212.03 72.688C211.51 72.968 210.934 73.108 210.302 73.108ZM210.302 71.92C210.654 71.92 210.982 71.836 211.286 71.668C211.598 71.5 211.85 71.248 212.042 70.912C212.234 70.576 212.33 70.168 212.33 69.688C212.33 69.208 212.238 68.804 212.054 68.476C211.87 68.14 211.626 67.888 211.322 67.72C211.018 67.552 210.69 67.468 210.338 67.468C209.986 67.468 209.658 67.552 209.354 67.72C209.058 67.888 208.822 68.14 208.646 68.476C208.47 68.804 208.382 69.208 208.382 69.688C208.382 70.4 208.562 70.952 208.922 71.344C209.29 71.728 209.75 71.92 210.302 71.92Z" fill="#62748E"/>
<rect x="223" y="67" width="89" height="4" rx="2" fill="#D9D9D9"/>
<rect x="223" y="67" width="67" height="4" rx="2" fill="#5C5EDC"/>
<rect x="320" y="60" width="40" height="18" rx="3" fill="#00E5BA" fill-opacity="0.15"/>
<path d="M328.94 68.008V69.424H323.852V68.008H328.94ZM330.416 66.556C330.456 65.756 330.736 65.14 331.256 64.708C331.784 64.268 332.476 64.048 333.332 64.048C333.916 64.048 334.416 64.152 334.832 64.36C335.248 64.56 335.56 64.836 335.768 65.188C335.984 65.532 336.092 65.924 336.092 66.364C336.092 66.868 335.96 67.296 335.696 67.648C335.44 67.992 335.132 68.224 334.772 68.344V68.392C335.236 68.536 335.596 68.792 335.852 69.16C336.116 69.528 336.248 70 336.248 70.576C336.248 71.056 336.136 71.484 335.912 71.86C335.696 72.236 335.372 72.532 334.94 72.748C334.516 72.956 334.004 73.06 333.404 73.06C332.5 73.06 331.764 72.832 331.196 72.376C330.628 71.92 330.328 71.248 330.296 70.36H331.928C331.944 70.752 332.076 71.068 332.324 71.308C332.58 71.54 332.928 71.656 333.368 71.656C333.776 71.656 334.088 71.544 334.304 71.32C334.528 71.088 334.64 70.792 334.64 70.432C334.64 69.952 334.488 69.608 334.184 69.4C333.88 69.192 333.408 69.088 332.768 69.088H332.42V67.708H332.768C333.904 67.708 334.472 67.328 334.472 66.568C334.472 66.224 334.368 65.956 334.16 65.764C333.96 65.572 333.668 65.476 333.284 65.476C332.908 65.476 332.616 65.58 332.408 65.788C332.208 65.988 332.092 66.244 332.06 66.556H330.416ZM339.364 71.236L337.96 74.608H336.88L337.66 71.236H339.364ZM346.023 65.704H342.135V67.756C342.303 67.548 342.543 67.38 342.855 67.252C343.167 67.116 343.499 67.048 343.851 67.048C344.491 67.048 345.015 67.188 345.423 67.468C345.831 67.748 346.127 68.108 346.311 68.548C346.495 68.98 346.587 69.444 346.587 69.94C346.587 70.86 346.323 71.6 345.795 72.16C345.275 72.72 344.531 73 343.563 73C342.651 73 341.923 72.772 341.379 72.316C340.835 71.86 340.527 71.264 340.455 70.528H342.087C342.159 70.848 342.319 71.104 342.567 71.296C342.823 71.488 343.147 71.584 343.539 71.584C344.011 71.584 344.367 71.436 344.607 71.14C344.847 70.844 344.967 70.452 344.967 69.964C344.967 69.468 344.843 69.092 344.595 68.836C344.355 68.572 343.999 68.44 343.527 68.44C343.191 68.44 342.911 68.524 342.687 68.692C342.463 68.86 342.303 69.084 342.207 69.364H340.599V64.228H346.023V65.704ZM347.433 66.4C347.433 65.792 347.609 65.316 347.961 64.972C348.321 64.628 348.781 64.456 349.341 64.456C349.901 64.456 350.357 64.628 350.709 64.972C351.069 65.316 351.249 65.792 351.249 66.4C351.249 67.016 351.069 67.496 350.709 67.84C350.357 68.184 349.901 68.356 349.341 68.356C348.781 68.356 348.321 68.184 347.961 67.84C347.609 67.496 347.433 67.016 347.433 66.4ZM355.137 64.6L350.421 73H348.789L353.493 64.6H355.137ZM349.329 65.464C348.889 65.464 348.669 65.776 348.669 66.4C348.669 67.032 348.889 67.348 349.329 67.348C349.545 67.348 349.713 67.272 349.833 67.12C349.953 66.96 350.013 66.72 350.013 66.4C350.013 65.776 349.785 65.464 349.329 65.464ZM352.701 71.188C352.701 70.572 352.877 70.096 353.229 69.76C353.589 69.416 354.049 69.244 354.609 69.244C355.169 69.244 355.621 69.416 355.965 69.76C356.317 70.096 356.493 70.572 356.493 71.188C356.493 71.804 356.317 72.284 355.965 72.628C355.621 72.972 355.169 73.144 354.609 73.144C354.041 73.144 353.581 72.972 353.229 72.628C352.877 72.284 352.701 71.804 352.701 71.188ZM354.597 70.252C354.141 70.252 353.913 70.564 353.913 71.188C353.913 71.82 354.141 72.136 354.597 72.136C355.045 72.136 355.269 71.82 355.269 71.188C355.269 70.564 355.045 70.252 354.597 70.252Z" fill="#20B79B"/>
<rect x="17" y="88" width="353" height="34" rx="3" fill="white"/>
<rect x="25" y="96" width="18" height="18" rx="4" fill="#E2E8F0"/>
<path d="M52.476 107.14C53.244 106.476 53.848 105.932 54.288 105.508C54.736 105.076 55.108 104.628 55.404 104.164C55.7 103.7 55.848 103.236 55.848 102.772C55.848 102.292 55.732 101.916 55.5 101.644C55.276 101.372 54.92 101.236 54.432 101.236C53.96 101.236 53.592 101.388 53.328 101.692C53.072 101.988 52.936 102.388 52.92 102.892H51.6C51.624 101.98 51.896 101.284 52.416 100.804C52.944 100.316 53.612 100.072 54.42 100.072C55.292 100.072 55.972 100.312 56.46 100.792C56.956 101.272 57.204 101.912 57.204 102.712C57.204 103.288 57.056 103.844 56.76 104.38C56.472 104.908 56.124 105.384 55.716 105.808C55.316 106.224 54.804 106.708 54.18 107.26L53.64 107.74H57.444V108.88H51.612V107.884L52.476 107.14ZM58.1178 107.176V106.144L62.1498 100.36H63.8058V105.988H64.9218V107.176H63.8058V109H62.4618V107.176H58.1178ZM62.5218 101.752L59.6898 105.988H62.5218V101.752ZM70.3153 97.672L67.0513 111.1H65.7073L68.9593 97.672H70.3153ZM71.4994 104.512C71.4994 103.128 71.7314 102.048 72.1954 101.272C72.6674 100.488 73.4754 100.096 74.6194 100.096C75.7634 100.096 76.5674 100.488 77.0314 101.272C77.5034 102.048 77.7394 103.128 77.7394 104.512C77.7394 105.912 77.5034 107.008 77.0314 107.8C76.5674 108.584 75.7634 108.976 74.6194 108.976C73.4754 108.976 72.6674 108.584 72.1954 107.8C71.7314 107.008 71.4994 105.912 71.4994 104.512ZM76.3954 104.512C76.3954 103.864 76.3514 103.316 76.2634 102.868C76.1834 102.42 76.0154 102.056 75.7594 101.776C75.5034 101.488 75.1234 101.344 74.6194 101.344C74.1154 101.344 73.7354 101.488 73.4794 101.776C73.2234 102.056 73.0514 102.42 72.9634 102.868C72.8834 103.316 72.8434 103.864 72.8434 104.512C72.8434 105.184 72.8834 105.748 72.9634 106.204C73.0434 106.66 73.2114 107.028 73.4674 107.308C73.7314 107.588 74.1154 107.728 74.6194 107.728C75.1234 107.728 75.5034 107.588 75.7594 107.308C76.0234 107.028 76.1954 106.66 76.2754 106.204C76.3554 105.748 76.3954 105.184 76.3954 104.512ZM78.6589 107.176V106.144L82.6909 100.36H84.3469V105.988H85.4629V107.176H84.3469V109H83.0029V107.176H78.6589ZM83.0629 101.752L80.2309 105.988H83.0629V101.752Z" fill="#62748E"/>
<path d="M100.288 100.66V101.776H98.068V109H96.7V101.776H94.468V100.66H100.288ZM100.857 105.664C100.857 105 100.993 104.412 101.265 103.9C101.545 103.388 101.921 102.992 102.393 102.712C102.873 102.424 103.401 102.28 103.977 102.28C104.497 102.28 104.949 102.384 105.333 102.592C105.725 102.792 106.037 103.044 106.269 103.348V102.388H107.649V109H106.269V108.016C106.037 108.328 105.721 108.588 105.321 108.796C104.921 109.004 104.465 109.108 103.953 109.108C103.385 109.108 102.865 108.964 102.393 108.676C101.921 108.38 101.545 107.972 101.265 107.452C100.993 106.924 100.857 106.328 100.857 105.664ZM106.269 105.688C106.269 105.232 106.173 104.836 105.981 104.5C105.797 104.164 105.553 103.908 105.249 103.732C104.945 103.556 104.617 103.468 104.265 103.468C103.913 103.468 103.585 103.556 103.281 103.732C102.977 103.9 102.729 104.152 102.537 104.488C102.353 104.816 102.261 105.208 102.261 105.664C102.261 106.12 102.353 106.52 102.537 106.864C102.729 107.208 102.977 107.472 103.281 107.656C103.593 107.832 103.921 107.92 104.265 107.92C104.617 107.92 104.945 107.832 105.249 107.656C105.553 107.48 105.797 107.224 105.981 106.888C106.173 106.544 106.269 106.144 106.269 105.688ZM111.918 105.652L114.054 109H112.506L111.078 106.756L109.734 109H108.306L110.442 105.748L108.306 102.388H109.854L111.282 104.632L112.626 102.388H114.054L111.918 105.652ZM114.259 105.664C114.259 105 114.395 104.412 114.667 103.9C114.947 103.388 115.323 102.992 115.795 102.712C116.275 102.424 116.803 102.28 117.379 102.28C117.899 102.28 118.351 102.384 118.735 102.592C119.127 102.792 119.439 103.044 119.671 103.348V102.388H121.051V109H119.671V108.016C119.439 108.328 119.123 108.588 118.723 108.796C118.323 109.004 117.867 109.108 117.355 109.108C116.787 109.108 116.267 108.964 115.795 108.676C115.323 108.38 114.947 107.972 114.667 107.452C114.395 106.924 114.259 106.328 114.259 105.664ZM119.671 105.688C119.671 105.232 119.575 104.836 119.383 104.5C119.199 104.164 118.955 103.908 118.651 103.732C118.347 103.556 118.019 103.468 117.667 103.468C117.315 103.468 116.987 103.556 116.683 103.732C116.379 103.9 116.131 104.152 115.939 104.488C115.755 104.816 115.663 105.208 115.663 105.664C115.663 106.12 115.755 106.52 115.939 106.864C116.131 107.208 116.379 107.472 116.683 107.656C116.995 107.832 117.323 107.92 117.667 107.92C118.019 107.92 118.347 107.832 118.651 107.656C118.955 107.48 119.199 107.224 119.383 106.888C119.575 106.544 119.671 106.144 119.671 105.688ZM124.887 109.108C124.367 109.108 123.899 109.016 123.483 108.832C123.075 108.64 122.751 108.384 122.511 108.064C122.271 107.736 122.143 107.372 122.127 106.972H123.543C123.567 107.252 123.699 107.488 123.939 107.68C124.187 107.864 124.495 107.956 124.863 107.956C125.247 107.956 125.543 107.884 125.751 107.74C125.967 107.588 126.075 107.396 126.075 107.164C126.075 106.916 125.955 106.732 125.715 106.612C125.483 106.492 125.111 106.36 124.599 106.216C124.103 106.08 123.699 105.948 123.387 105.82C123.075 105.692 122.803 105.496 122.571 105.232C122.347 104.968 122.235 104.62 122.235 104.188C122.235 103.836 122.339 103.516 122.547 103.228C122.755 102.932 123.051 102.7 123.435 102.532C123.827 102.364 124.275 102.28 124.779 102.28C125.531 102.28 126.135 102.472 126.591 102.856C127.055 103.232 127.303 103.748 127.335 104.404H125.967C125.943 104.108 125.823 103.872 125.607 103.696C125.391 103.52 125.099 103.432 124.731 103.432C124.371 103.432 124.095 103.5 123.903 103.636C123.711 103.772 123.615 103.952 123.615 104.176C123.615 104.352 123.679 104.5 123.807 104.62C123.935 104.74 124.091 104.836 124.275 104.908C124.459 104.972 124.731 105.056 125.091 105.16C125.571 105.288 125.963 105.42 126.267 105.556C126.579 105.684 126.847 105.876 127.071 106.132C127.295 106.388 127.411 106.728 127.419 107.152C127.419 107.528 127.315 107.864 127.107 108.16C126.899 108.456 126.603 108.688 126.219 108.856C125.843 109.024 125.399 109.108 124.887 109.108ZM136.371 104.08V105.232H131.439V104.08H136.371ZM141.287 107.14C142.055 106.476 142.659 105.932 143.099 105.508C143.547 105.076 143.919 104.628 144.215 104.164C144.511 103.7 144.659 103.236 144.659 102.772C144.659 102.292 144.543 101.916 144.311 101.644C144.087 101.372 143.731 101.236 143.243 101.236C142.771 101.236 142.403 101.388 142.139 101.692C141.883 101.988 141.747 102.388 141.731 102.892H140.411C140.435 101.98 140.707 101.284 141.227 100.804C141.755 100.316 142.423 100.072 143.231 100.072C144.103 100.072 144.783 100.312 145.271 100.792C145.767 101.272 146.015 101.912 146.015 102.712C146.015 103.288 145.867 103.844 145.571 104.38C145.283 104.908 144.935 105.384 144.527 105.808C144.127 106.224 143.615 106.708 142.991 107.26L142.451 107.74H146.255V108.88H140.423V107.884L141.287 107.14ZM147.097 104.512C147.097 103.128 147.329 102.048 147.793 101.272C148.265 100.488 149.073 100.096 150.217 100.096C151.361 100.096 152.165 100.488 152.629 101.272C153.101 102.048 153.337 103.128 153.337 104.512C153.337 105.912 153.101 107.008 152.629 107.8C152.165 108.584 151.361 108.976 150.217 108.976C149.073 108.976 148.265 108.584 147.793 107.8C147.329 107.008 147.097 105.912 147.097 104.512ZM151.993 104.512C151.993 103.864 151.949 103.316 151.861 102.868C151.781 102.42 151.613 102.056 151.357 101.776C151.101 101.488 150.721 101.344 150.217 101.344C149.713 101.344 149.333 101.488 149.077 101.776C148.821 102.056 148.649 102.42 148.561 102.868C148.481 103.316 148.441 103.864 148.441 104.512C148.441 105.184 148.481 105.748 148.561 106.204C148.641 106.66 148.809 107.028 149.065 107.308C149.329 107.588 149.713 107.728 150.217 107.728C150.721 107.728 151.101 107.588 151.357 107.308C151.621 107.028 151.793 106.66 151.873 106.204C151.953 105.748 151.993 105.184 151.993 104.512ZM155.181 107.14C155.949 106.476 156.553 105.932 156.993 105.508C157.441 105.076 157.813 104.628 158.109 104.164C158.405 103.7 158.553 103.236 158.553 102.772C158.553 102.292 158.437 101.916 158.205 101.644C157.981 101.372 157.625 101.236 157.137 101.236C156.665 101.236 156.297 101.388 156.033 101.692C155.777 101.988 155.641 102.388 155.625 102.892H154.305C154.329 101.98 154.601 101.284 155.121 100.804C155.649 100.316 156.317 100.072 157.125 100.072C157.997 100.072 158.677 100.312 159.165 100.792C159.661 101.272 159.909 101.912 159.909 102.712C159.909 103.288 159.761 103.844 159.465 104.38C159.177 104.908 158.829 105.384 158.421 105.808C158.021 106.224 157.509 106.708 156.885 107.26L156.345 107.74H160.149V108.88H154.317V107.884L155.181 107.14ZM166.63 101.428H162.61V103.816C162.778 103.592 163.026 103.404 163.354 103.252C163.69 103.1 164.046 103.024 164.422 103.024C165.094 103.024 165.638 103.168 166.054 103.456C166.478 103.744 166.778 104.108 166.954 104.548C167.138 104.988 167.23 105.452 167.23 105.94C167.23 106.532 167.114 107.06 166.882 107.524C166.658 107.98 166.318 108.34 165.862 108.604C165.414 108.868 164.862 109 164.206 109C163.334 109 162.634 108.784 162.106 108.352C161.578 107.92 161.262 107.348 161.158 106.636H162.49C162.578 107.012 162.774 107.312 163.078 107.536C163.382 107.752 163.762 107.86 164.218 107.86C164.786 107.86 165.21 107.688 165.49 107.344C165.778 107 165.922 106.544 165.922 105.976C165.922 105.4 165.778 104.96 165.49 104.656C165.202 104.344 164.778 104.188 164.218 104.188C163.826 104.188 163.494 104.288 163.222 104.488C162.958 104.68 162.766 104.944 162.646 105.28H161.35V100.228H166.63V101.428Z" fill="#62748E"/>
<rect x="223" y="103" width="89" height="4" rx="2" fill="#D9D9D9"/>
<rect x="223" y="103" width="34" height="4" rx="2" fill="#5C5EDC"/>
<rect x="320" y="96" width="42" height="18" rx="3" fill="#E50004" fill-opacity="0.15"/>
<path d="M330.104 105.46H327.836V107.788H326.252V105.46H323.984V103.996H326.252V101.668H327.836V103.996H330.104V105.46ZM331.506 102.556C331.546 101.756 331.826 101.14 332.346 100.708C332.874 100.268 333.566 100.048 334.422 100.048C335.006 100.048 335.506 100.152 335.922 100.36C336.338 100.56 336.65 100.836 336.858 101.188C337.074 101.532 337.182 101.924 337.182 102.364C337.182 102.868 337.05 103.296 336.786 103.648C336.53 103.992 336.222 104.224 335.862 104.344V104.392C336.326 104.536 336.686 104.792 336.942 105.16C337.206 105.528 337.338 106 337.338 106.576C337.338 107.056 337.226 107.484 337.002 107.86C336.786 108.236 336.462 108.532 336.03 108.748C335.606 108.956 335.094 109.06 334.494 109.06C333.59 109.06 332.854 108.832 332.286 108.376C331.718 107.92 331.418 107.248 331.386 106.36H333.018C333.034 106.752 333.166 107.068 333.414 107.308C333.67 107.54 334.018 107.656 334.458 107.656C334.866 107.656 335.178 107.544 335.394 107.32C335.618 107.088 335.73 106.792 335.73 106.432C335.73 105.952 335.578 105.608 335.274 105.4C334.97 105.192 334.498 105.088 333.858 105.088H333.51V103.708H333.858C334.994 103.708 335.562 103.328 335.562 102.568C335.562 102.224 335.458 101.956 335.25 101.764C335.05 101.572 334.758 101.476 334.374 101.476C333.998 101.476 333.706 101.58 333.498 101.788C333.298 101.988 333.182 102.244 333.15 102.556H331.506ZM340.454 107.236L339.05 110.608H337.97L338.75 107.236H340.454ZM347.112 101.704H343.224V103.756C343.392 103.548 343.632 103.38 343.944 103.252C344.256 103.116 344.588 103.048 344.94 103.048C345.58 103.048 346.104 103.188 346.512 103.468C346.92 103.748 347.216 104.108 347.4 104.548C347.584 104.98 347.676 105.444 347.676 105.94C347.676 106.86 347.412 107.6 346.884 108.16C346.364 108.72 345.62 109 344.652 109C343.74 109 343.012 108.772 342.468 108.316C341.924 107.86 341.616 107.264 341.544 106.528H343.176C343.248 106.848 343.408 107.104 343.656 107.296C343.912 107.488 344.236 107.584 344.628 107.584C345.1 107.584 345.456 107.436 345.696 107.14C345.936 106.844 346.056 106.452 346.056 105.964C346.056 105.468 345.932 105.092 345.684 104.836C345.444 104.572 345.088 104.44 344.616 104.44C344.28 104.44 344 104.524 343.776 104.692C343.552 104.86 343.392 105.084 343.296 105.364H341.688V100.228H347.112V101.704ZM348.523 102.4C348.523 101.792 348.699 101.316 349.051 100.972C349.411 100.628 349.871 100.456 350.431 100.456C350.991 100.456 351.447 100.628 351.799 100.972C352.159 101.316 352.339 101.792 352.339 102.4C352.339 103.016 352.159 103.496 351.799 103.84C351.447 104.184 350.991 104.356 350.431 104.356C349.871 104.356 349.411 104.184 349.051 103.84C348.699 103.496 348.523 103.016 348.523 102.4ZM356.227 100.6L351.511 109H349.879L354.583 100.6H356.227ZM350.419 101.464C349.979 101.464 349.759 101.776 349.759 102.4C349.759 103.032 349.979 103.348 350.419 103.348C350.635 103.348 350.803 103.272 350.923 103.12C351.043 102.96 351.103 102.72 351.103 102.4C351.103 101.776 350.875 101.464 350.419 101.464ZM353.791 107.188C353.791 106.572 353.967 106.096 354.319 105.76C354.679 105.416 355.139 105.244 355.699 105.244C356.259 105.244 356.711 105.416 357.055 105.76C357.407 106.096 357.583 106.572 357.583 107.188C357.583 107.804 357.407 108.284 357.055 108.628C356.711 108.972 356.259 109.144 355.699 109.144C355.131 109.144 354.671 108.972 354.319 108.628C353.967 108.284 353.791 107.804 353.791 107.188ZM355.687 106.252C355.231 106.252 355.003 106.564 355.003 107.188C355.003 107.82 355.231 108.136 355.687 108.136C356.135 108.136 356.359 107.82 356.359 107.188C356.359 106.564 356.135 106.252 355.687 106.252Z" fill="#B7206C"/>
</svg>
