<svg width="384" height="218" viewBox="0 0 384 218" fill="none" xmlns="http://www.w3.org/2000/svg">
<g filter="url(#filter0_d_391_1574)">
<rect x="37" y="109" width="241" height="77" rx="8" fill="white" shape-rendering="crispEdges"/>
<rect x="47" y="119" width="52" height="52" rx="26" fill="#FF9F43" fill-opacity="0.12"/>
<path d="M71.2898 136.86L62.8198 151C62.6451 151.302 62.5527 151.645 62.5518 151.994C62.5508 152.344 62.6413 152.687 62.8142 152.99C62.9871 153.294 63.2365 153.547 63.5375 153.724C63.8385 153.901 64.1806 153.996 64.5298 154H81.4698C81.819 153.996 82.1611 153.901 82.4621 153.724C82.7631 153.547 83.0124 153.294 83.1854 152.99C83.3583 152.687 83.4488 152.344 83.4478 151.994C83.4468 151.645 83.3544 151.302 83.1798 151L74.7098 136.86C74.5315 136.566 74.2805 136.323 73.981 136.154C73.6814 135.986 73.3435 135.897 72.9998 135.897C72.656 135.897 72.3181 135.986 72.0186 136.154C71.7191 136.323 71.468 136.566 71.2898 136.86Z" stroke="#FF9F43" stroke-width="2" stroke-linecap="round" stroke-linejoin="round"/>
<path d="M73 142V146" stroke="#FF9F43" stroke-width="2" stroke-linecap="round" stroke-linejoin="round"/>
<path d="M73 150H73.01" stroke="#FF9F43" stroke-width="2" stroke-linecap="round" stroke-linejoin="round"/>
<path d="M124.044 141.5H122.448L117.646 134.234V141.5H116.05V131.756H117.646L122.448 139.008V131.756H124.044V141.5ZM129.066 141.626C128.338 141.626 127.68 141.463 127.092 141.136C126.504 140.8 126.042 140.333 125.706 139.736C125.37 139.129 125.202 138.429 125.202 137.636C125.202 136.852 125.375 136.157 125.72 135.55C126.065 134.943 126.537 134.477 127.134 134.15C127.731 133.823 128.399 133.66 129.136 133.66C129.873 133.66 130.541 133.823 131.138 134.15C131.735 134.477 132.207 134.943 132.552 135.55C132.897 136.157 133.07 136.852 133.07 137.636C133.07 138.42 132.893 139.115 132.538 139.722C132.183 140.329 131.698 140.8 131.082 141.136C130.475 141.463 129.803 141.626 129.066 141.626ZM129.066 140.24C129.477 140.24 129.859 140.142 130.214 139.946C130.578 139.75 130.872 139.456 131.096 139.064C131.32 138.672 131.432 138.196 131.432 137.636C131.432 137.076 131.325 136.605 131.11 136.222C130.895 135.83 130.611 135.536 130.256 135.34C129.901 135.144 129.519 135.046 129.108 135.046C128.697 135.046 128.315 135.144 127.96 135.34C127.615 135.536 127.339 135.83 127.134 136.222C126.929 136.605 126.826 137.076 126.826 137.636C126.826 138.467 127.036 139.111 127.456 139.568C127.885 140.016 128.422 140.24 129.066 140.24ZM137.21 140.072L139.394 133.786H141.088L138.148 141.5H136.244L133.318 133.786H135.026L137.21 140.072ZM145.22 141.626C144.492 141.626 143.834 141.463 143.246 141.136C142.658 140.8 142.196 140.333 141.86 139.736C141.524 139.129 141.356 138.429 141.356 137.636C141.356 136.852 141.529 136.157 141.874 135.55C142.219 134.943 142.691 134.477 143.288 134.15C143.885 133.823 144.553 133.66 145.29 133.66C146.027 133.66 146.695 133.823 147.292 134.15C147.889 134.477 148.361 134.943 148.706 135.55C149.051 136.157 149.224 136.852 149.224 137.636C149.224 138.42 149.047 139.115 148.692 139.722C148.337 140.329 147.852 140.8 147.236 141.136C146.629 141.463 145.957 141.626 145.22 141.626ZM145.22 140.24C145.631 140.24 146.013 140.142 146.368 139.946C146.732 139.75 147.026 139.456 147.25 139.064C147.474 138.672 147.586 138.196 147.586 137.636C147.586 137.076 147.479 136.605 147.264 136.222C147.049 135.83 146.765 135.536 146.41 135.34C146.055 135.144 145.673 135.046 145.262 135.046C144.851 135.046 144.469 135.144 144.114 135.34C143.769 135.536 143.493 135.83 143.288 136.222C143.083 136.605 142.98 137.076 142.98 137.636C142.98 138.467 143.19 139.111 143.61 139.568C144.039 140.016 144.576 140.24 145.22 140.24ZM153.066 137.608C153.066 136.833 153.225 136.147 153.542 135.55C153.869 134.953 154.308 134.491 154.858 134.164C155.418 133.828 156.034 133.66 156.706 133.66C157.313 133.66 157.84 133.781 158.288 134.024C158.746 134.257 159.11 134.551 159.38 134.906V133.786H160.99V141.5H159.38V140.352C159.11 140.716 158.741 141.019 158.274 141.262C157.808 141.505 157.276 141.626 156.678 141.626C156.016 141.626 155.409 141.458 154.858 141.122C154.308 140.777 153.869 140.301 153.542 139.694C153.225 139.078 153.066 138.383 153.066 137.608ZM159.38 137.636C159.38 137.104 159.268 136.642 159.044 136.25C158.83 135.858 158.545 135.559 158.19 135.354C157.836 135.149 157.453 135.046 157.042 135.046C156.632 135.046 156.249 135.149 155.894 135.354C155.54 135.55 155.25 135.844 155.026 136.236C154.812 136.619 154.704 137.076 154.704 137.608C154.704 138.14 154.812 138.607 155.026 139.008C155.25 139.409 155.54 139.717 155.894 139.932C156.258 140.137 156.641 140.24 157.042 140.24C157.453 140.24 157.836 140.137 158.19 139.932C158.545 139.727 158.83 139.428 159.044 139.036C159.268 138.635 159.38 138.168 159.38 137.636ZM165.649 140.072L167.833 133.786H169.527L166.587 141.5H164.683L161.757 133.786H163.465L165.649 140.072ZM171.125 132.764C170.836 132.764 170.593 132.666 170.397 132.47C170.201 132.274 170.103 132.031 170.103 131.742C170.103 131.453 170.201 131.21 170.397 131.014C170.593 130.818 170.836 130.72 171.125 130.72C171.405 130.72 171.643 130.818 171.839 131.014C172.035 131.21 172.133 131.453 172.133 131.742C172.133 132.031 172.035 132.274 171.839 132.47C171.643 132.666 171.405 132.764 171.125 132.764ZM171.909 133.786V141.5H170.313V133.786H171.909ZM176.385 141.626C175.778 141.626 175.232 141.519 174.747 141.304C174.271 141.08 173.893 140.781 173.613 140.408C173.333 140.025 173.183 139.601 173.165 139.134H174.817C174.845 139.461 174.999 139.736 175.279 139.96C175.568 140.175 175.927 140.282 176.357 140.282C176.805 140.282 177.15 140.198 177.393 140.03C177.645 139.853 177.771 139.629 177.771 139.358C177.771 139.069 177.631 138.854 177.351 138.714C177.08 138.574 176.646 138.42 176.049 138.252C175.47 138.093 174.999 137.939 174.635 137.79C174.271 137.641 173.953 137.412 173.683 137.104C173.421 136.796 173.291 136.39 173.291 135.886C173.291 135.475 173.412 135.102 173.655 134.766C173.897 134.421 174.243 134.15 174.691 133.954C175.148 133.758 175.671 133.66 176.259 133.66C177.136 133.66 177.841 133.884 178.373 134.332C178.914 134.771 179.203 135.373 179.241 136.138H177.645C177.617 135.793 177.477 135.517 177.225 135.312C176.973 135.107 176.632 135.004 176.203 135.004C175.783 135.004 175.461 135.083 175.237 135.242C175.013 135.401 174.901 135.611 174.901 135.872C174.901 136.077 174.975 136.25 175.125 136.39C175.274 136.53 175.456 136.642 175.671 136.726C175.885 136.801 176.203 136.899 176.623 137.02C177.183 137.169 177.64 137.323 177.995 137.482C178.359 137.631 178.671 137.855 178.933 138.154C179.194 138.453 179.329 138.849 179.339 139.344C179.339 139.783 179.217 140.175 178.975 140.52C178.732 140.865 178.387 141.136 177.939 141.332C177.5 141.528 176.982 141.626 176.385 141.626ZM183.989 141.626C183.261 141.626 182.603 141.463 182.015 141.136C181.427 140.8 180.965 140.333 180.629 139.736C180.293 139.129 180.125 138.429 180.125 137.636C180.125 136.852 180.298 136.157 180.643 135.55C180.988 134.943 181.46 134.477 182.057 134.15C182.654 133.823 183.322 133.66 184.059 133.66C184.796 133.66 185.464 133.823 186.061 134.15C186.658 134.477 187.13 134.943 187.475 135.55C187.82 136.157 187.993 136.852 187.993 137.636C187.993 138.42 187.816 139.115 187.461 139.722C187.106 140.329 186.621 140.8 186.005 141.136C185.398 141.463 184.726 141.626 183.989 141.626ZM183.989 140.24C184.4 140.24 184.782 140.142 185.137 139.946C185.501 139.75 185.795 139.456 186.019 139.064C186.243 138.672 186.355 138.196 186.355 137.636C186.355 137.076 186.248 136.605 186.033 136.222C185.818 135.83 185.534 135.536 185.179 135.34C184.824 135.144 184.442 135.046 184.031 135.046C183.62 135.046 183.238 135.144 182.883 135.34C182.538 135.536 182.262 135.83 182.057 136.222C181.852 136.605 181.749 137.076 181.749 137.636C181.749 138.467 181.959 139.111 182.379 139.568C182.808 140.016 183.345 140.24 183.989 140.24Z" fill="#333A43"/>
<path d="M120.3 153.19H116.95V155.18C117.09 154.993 117.297 154.837 117.57 154.71C117.85 154.583 118.147 154.52 118.46 154.52C119.02 154.52 119.473 154.64 119.82 154.88C120.173 155.12 120.423 155.423 120.57 155.79C120.723 156.157 120.8 156.543 120.8 156.95C120.8 157.443 120.703 157.883 120.51 158.27C120.323 158.65 120.04 158.95 119.66 159.17C119.287 159.39 118.827 159.5 118.28 159.5C117.553 159.5 116.97 159.32 116.53 158.96C116.09 158.6 115.827 158.123 115.74 157.53H116.85C116.923 157.843 117.087 158.093 117.34 158.28C117.593 158.46 117.91 158.55 118.29 158.55C118.763 158.55 119.117 158.407 119.35 158.12C119.59 157.833 119.71 157.453 119.71 156.98C119.71 156.5 119.59 156.133 119.35 155.88C119.11 155.62 118.757 155.49 118.29 155.49C117.963 155.49 117.687 155.573 117.46 155.74C117.24 155.9 117.08 156.12 116.98 156.4H115.9V152.19H120.3V153.19ZM130.804 153.9C131.238 153.9 131.624 153.99 131.964 154.17C132.311 154.35 132.581 154.617 132.774 154.97C132.974 155.323 133.074 155.75 133.074 156.25V159.5H131.944V156.42C131.944 155.927 131.821 155.55 131.574 155.29C131.328 155.023 130.991 154.89 130.564 154.89C130.138 154.89 129.798 155.023 129.544 155.29C129.298 155.55 129.174 155.927 129.174 156.42V159.5H128.044V156.42C128.044 155.927 127.921 155.55 127.674 155.29C127.428 155.023 127.091 154.89 126.664 154.89C126.238 154.89 125.898 155.023 125.644 155.29C125.398 155.55 125.274 155.927 125.274 156.42V159.5H124.134V153.99H125.274V154.62C125.461 154.393 125.698 154.217 125.984 154.09C126.271 153.963 126.578 153.9 126.904 153.9C127.344 153.9 127.738 153.993 128.084 154.18C128.431 154.367 128.698 154.637 128.884 154.99C129.051 154.657 129.311 154.393 129.664 154.2C130.018 154 130.398 153.9 130.804 153.9ZM134.805 153.26C134.598 153.26 134.425 153.19 134.285 153.05C134.145 152.91 134.075 152.737 134.075 152.53C134.075 152.323 134.145 152.15 134.285 152.01C134.425 151.87 134.598 151.8 134.805 151.8C135.005 151.8 135.175 151.87 135.315 152.01C135.455 152.15 135.525 152.323 135.525 152.53C135.525 152.737 135.455 152.91 135.315 153.05C135.175 153.19 135.005 153.26 134.805 153.26ZM135.365 153.99V159.5H134.225V153.99H135.365ZM139.342 153.9C139.775 153.9 140.162 153.99 140.502 154.17C140.848 154.35 141.118 154.617 141.312 154.97C141.505 155.323 141.602 155.75 141.602 156.25V159.5H140.472V156.42C140.472 155.927 140.348 155.55 140.102 155.29C139.855 155.023 139.518 154.89 139.092 154.89C138.665 154.89 138.325 155.023 138.072 155.29C137.825 155.55 137.702 155.927 137.702 156.42V159.5H136.562V153.99H137.702V154.62C137.888 154.393 138.125 154.217 138.412 154.09C138.705 153.963 139.015 153.9 139.342 153.9ZM143.216 159.57C143.009 159.57 142.836 159.5 142.696 159.36C142.556 159.22 142.486 159.047 142.486 158.84C142.486 158.633 142.556 158.46 142.696 158.32C142.836 158.18 143.009 158.11 143.216 158.11C143.416 158.11 143.586 158.18 143.726 158.32C143.866 158.46 143.936 158.633 143.936 158.84C143.936 159.047 143.866 159.22 143.726 159.36C143.586 159.5 143.416 159.57 143.216 159.57ZM146.786 156.72C146.786 156.167 146.899 155.677 147.126 155.25C147.359 154.823 147.672 154.493 148.066 154.26C148.466 154.02 148.906 153.9 149.386 153.9C149.819 153.9 150.196 153.987 150.516 154.16C150.842 154.327 151.102 154.537 151.296 154.79V153.99H152.446V159.5H151.296V158.68C151.102 158.94 150.839 159.157 150.506 159.33C150.172 159.503 149.792 159.59 149.366 159.59C148.892 159.59 148.459 159.47 148.066 159.23C147.672 158.983 147.359 158.643 147.126 158.21C146.899 157.77 146.786 157.273 146.786 156.72ZM151.296 156.74C151.296 156.36 151.216 156.03 151.056 155.75C150.902 155.47 150.699 155.257 150.446 155.11C150.192 154.963 149.919 154.89 149.626 154.89C149.332 154.89 149.059 154.963 148.806 155.11C148.552 155.25 148.346 155.46 148.186 155.74C148.032 156.013 147.956 156.34 147.956 156.72C147.956 157.1 148.032 157.433 148.186 157.72C148.346 158.007 148.552 158.227 148.806 158.38C149.066 158.527 149.339 158.6 149.626 158.6C149.919 158.6 150.192 158.527 150.446 158.38C150.699 158.233 150.902 158.02 151.056 157.74C151.216 157.453 151.296 157.12 151.296 156.74ZM154.973 154.92V157.97C154.973 158.177 155.02 158.327 155.113 158.42C155.213 158.507 155.38 158.55 155.613 158.55H156.313V159.5H155.413C154.9 159.5 154.506 159.38 154.233 159.14C153.96 158.9 153.823 158.51 153.823 157.97V154.92H153.173V153.99H153.823V152.62H154.973V153.99H156.313V154.92H154.973ZM158.204 154.79C158.37 154.51 158.59 154.293 158.864 154.14C159.144 153.98 159.474 153.9 159.854 153.9V155.08H159.564C159.117 155.08 158.777 155.193 158.544 155.42C158.317 155.647 158.204 156.04 158.204 156.6V159.5H157.064V153.99H158.204V154.79ZM160.222 156.72C160.222 156.167 160.335 155.677 160.562 155.25C160.795 154.823 161.108 154.493 161.502 154.26C161.902 154.02 162.342 153.9 162.822 153.9C163.255 153.9 163.632 153.987 163.952 154.16C164.278 154.327 164.538 154.537 164.732 154.79V153.99H165.882V159.5H164.732V158.68C164.538 158.94 164.275 159.157 163.942 159.33C163.608 159.503 163.228 159.59 162.802 159.59C162.328 159.59 161.895 159.47 161.502 159.23C161.108 158.983 160.795 158.643 160.562 158.21C160.335 157.77 160.222 157.273 160.222 156.72ZM164.732 156.74C164.732 156.36 164.652 156.03 164.492 155.75C164.338 155.47 164.135 155.257 163.882 155.11C163.628 154.963 163.355 154.89 163.062 154.89C162.768 154.89 162.495 154.963 162.242 155.11C161.988 155.25 161.782 155.46 161.622 155.74C161.468 156.013 161.392 156.34 161.392 156.72C161.392 157.1 161.468 157.433 161.622 157.72C161.782 158.007 161.988 158.227 162.242 158.38C162.502 158.527 162.775 158.6 163.062 158.6C163.355 158.6 163.628 158.527 163.882 158.38C164.135 158.233 164.338 158.02 164.492 157.74C164.652 157.453 164.732 157.12 164.732 156.74ZM164.272 152.51L162.062 153.6V152.76L164.272 151.54V152.51ZM169.079 159.59C168.646 159.59 168.256 159.513 167.909 159.36C167.569 159.2 167.299 158.987 167.099 158.72C166.899 158.447 166.792 158.143 166.779 157.81H167.959C167.979 158.043 168.089 158.24 168.289 158.4C168.496 158.553 168.752 158.63 169.059 158.63C169.379 158.63 169.626 158.57 169.799 158.45C169.979 158.323 170.069 158.163 170.069 157.97C170.069 157.763 169.969 157.61 169.769 157.51C169.576 157.41 169.266 157.3 168.839 157.18C168.426 157.067 168.089 156.957 167.829 156.85C167.569 156.743 167.342 156.58 167.149 156.36C166.962 156.14 166.869 155.85 166.869 155.49C166.869 155.197 166.956 154.93 167.129 154.69C167.302 154.443 167.549 154.25 167.869 154.11C168.196 153.97 168.569 153.9 168.989 153.9C169.616 153.9 170.119 154.06 170.499 154.38C170.886 154.693 171.092 155.123 171.119 155.67H169.979C169.959 155.423 169.859 155.227 169.679 155.08C169.499 154.933 169.256 154.86 168.949 154.86C168.649 154.86 168.419 154.917 168.259 155.03C168.099 155.143 168.019 155.293 168.019 155.48C168.019 155.627 168.072 155.75 168.179 155.85C168.286 155.95 168.416 156.03 168.569 156.09C168.722 156.143 168.949 156.213 169.249 156.3C169.649 156.407 169.976 156.517 170.229 156.63C170.489 156.737 170.712 156.897 170.899 157.11C171.086 157.323 171.182 157.607 171.189 157.96C171.189 158.273 171.102 158.553 170.929 158.8C170.756 159.047 170.509 159.24 170.189 159.38C169.876 159.52 169.506 159.59 169.079 159.59Z" fill="#333A43" fill-opacity="0.6"/>
<rect x="28" y="121.5" width="24" height="15" rx="7.5" fill="#FF9F43"/>
<path d="M34.324 126.648V124.74H37.648V133.5H35.512V126.648H34.324ZM38.6197 131.856C38.8917 131.64 39.0157 131.54 38.9917 131.556C39.7757 130.908 40.3917 130.376 40.8397 129.96C41.2957 129.544 41.6797 129.108 41.9917 128.652C42.3037 128.196 42.4597 127.752 42.4597 127.32C42.4597 126.992 42.3837 126.736 42.2317 126.552C42.0797 126.368 41.8517 126.276 41.5477 126.276C41.2437 126.276 41.0037 126.392 40.8277 126.624C40.6597 126.848 40.5757 127.168 40.5757 127.584H38.5957C38.6117 126.904 38.7557 126.336 39.0277 125.88C39.3077 125.424 39.6717 125.088 40.1197 124.872C40.5757 124.656 41.0797 124.548 41.6317 124.548C42.5837 124.548 43.2997 124.792 43.7797 125.28C44.2677 125.768 44.5117 126.404 44.5117 127.188C44.5117 128.044 44.2197 128.84 43.6357 129.576C43.0517 130.304 42.3077 131.016 41.4037 131.712H44.6437V133.38H38.6197V131.856Z" fill="white"/>
</g>
<g filter="url(#filter1_d_391_1574)">
<rect x="115" y="24" width="241" height="77" rx="8" fill="white" shape-rendering="crispEdges"/>
<rect x="125" y="34.5" width="52" height="52" rx="26" fill="#5C5EDC" fill-opacity="0.12"/>
<path d="M150 58.5V62.5H154" stroke="#5C5EDC" stroke-width="2" stroke-linecap="round" stroke-linejoin="round"/>
<path d="M150 62.5L151.535 60.895C152.109 60.3433 152.807 59.9367 153.569 59.7089C154.332 59.4812 155.139 59.4389 155.921 59.5856C156.704 59.7324 157.44 60.0638 158.068 60.5525C158.697 61.0411 159.2 61.6728 159.535 62.395" stroke="#5C5EDC" stroke-width="2" stroke-linecap="round" stroke-linejoin="round"/>
<path d="M155 50.5V54.5" stroke="#5C5EDC" stroke-width="2" stroke-linecap="round" stroke-linejoin="round"/>
<path d="M160 66.5L158.465 68.105C157.891 68.6567 157.193 69.0633 156.43 69.2911C155.668 69.5188 154.861 69.5611 154.079 69.4144C153.296 69.2676 152.56 68.9362 151.931 68.4475C151.303 67.9589 150.8 67.3272 150.465 66.605" stroke="#5C5EDC" stroke-width="2" stroke-linecap="round" stroke-linejoin="round"/>
<path d="M160 70.5V66.5H156" stroke="#5C5EDC" stroke-width="2" stroke-linecap="round" stroke-linejoin="round"/>
<path d="M160 57V54.5C160 53.9696 159.789 53.4609 159.414 53.0858C159.039 52.7107 158.53 52.5 158 52.5H144C143.47 52.5 142.961 52.7107 142.586 53.0858C142.211 53.4609 142 53.9696 142 54.5V68.5C142 69.0304 142.211 69.5391 142.586 69.9142C142.961 70.2893 143.47 70.5 144 70.5H148.3" stroke="#5C5EDC" stroke-width="2" stroke-linecap="round" stroke-linejoin="round"/>
<path d="M142 58.5H146" stroke="#5C5EDC" stroke-width="2" stroke-linecap="round" stroke-linejoin="round"/>
<path d="M147 50.5V54.5" stroke="#5C5EDC" stroke-width="2" stroke-linecap="round" stroke-linejoin="round"/>
<path d="M197.256 48.098C196.603 48.098 196.015 47.986 195.492 47.762C194.969 47.5287 194.559 47.202 194.26 46.782C193.961 46.362 193.812 45.872 193.812 45.312H195.52C195.557 45.732 195.721 46.0773 196.01 46.348C196.309 46.6187 196.724 46.754 197.256 46.754C197.807 46.754 198.236 46.6233 198.544 46.362C198.852 46.0913 199.006 45.746 199.006 45.326C199.006 44.9993 198.908 44.7333 198.712 44.528C198.525 44.3227 198.287 44.164 197.998 44.052C197.718 43.94 197.326 43.8187 196.822 43.688C196.187 43.52 195.669 43.352 195.268 43.184C194.876 43.0067 194.54 42.736 194.26 42.372C193.98 42.008 193.84 41.5227 193.84 40.916C193.84 40.356 193.98 39.866 194.26 39.446C194.54 39.026 194.932 38.704 195.436 38.48C195.94 38.256 196.523 38.144 197.186 38.144C198.129 38.144 198.899 38.382 199.496 38.858C200.103 39.3247 200.439 39.9687 200.504 40.79H198.74C198.712 40.4353 198.544 40.132 198.236 39.88C197.928 39.628 197.522 39.502 197.018 39.502C196.561 39.502 196.187 39.6187 195.898 39.852C195.609 40.0853 195.464 40.4213 195.464 40.86C195.464 41.1587 195.553 41.406 195.73 41.602C195.917 41.7887 196.15 41.938 196.43 42.05C196.71 42.162 197.093 42.2833 197.578 42.414C198.222 42.5913 198.745 42.7687 199.146 42.946C199.557 43.1233 199.902 43.3987 200.182 43.772C200.471 44.136 200.616 44.626 200.616 45.242C200.616 45.7367 200.481 46.2033 200.21 46.642C199.949 47.0807 199.561 47.4353 199.048 47.706C198.544 47.9673 197.947 48.098 197.256 48.098ZM202.891 39.264C202.602 39.264 202.359 39.166 202.163 38.97C201.967 38.774 201.869 38.5313 201.869 38.242C201.869 37.9527 201.967 37.71 202.163 37.514C202.359 37.318 202.602 37.22 202.891 37.22C203.171 37.22 203.409 37.318 203.605 37.514C203.801 37.71 203.899 37.9527 203.899 38.242C203.899 38.5313 203.801 38.774 203.605 38.97C203.409 39.166 203.171 39.264 202.891 39.264ZM203.675 40.286V48H202.079V40.286H203.675ZM209.243 40.16C209.849 40.16 210.391 40.286 210.867 40.538C211.352 40.79 211.73 41.1633 212.001 41.658C212.271 42.1527 212.407 42.75 212.407 43.45V48H210.825V43.688C210.825 42.9973 210.652 42.47 210.307 42.106C209.961 41.7327 209.49 41.546 208.893 41.546C208.295 41.546 207.819 41.7327 207.465 42.106C207.119 42.47 206.947 42.9973 206.947 43.688V48H205.351V40.286H206.947V41.168C207.208 40.8507 207.539 40.6033 207.941 40.426C208.351 40.2487 208.785 40.16 209.243 40.16ZM213.49 44.136C213.49 43.3427 213.649 42.6473 213.966 42.05C214.293 41.4433 214.741 40.9767 215.31 40.65C215.88 40.3233 216.533 40.16 217.27 40.16C218.204 40.16 218.974 40.384 219.58 40.832C220.196 41.2707 220.612 41.9007 220.826 42.722H219.104C218.964 42.3393 218.74 42.0407 218.432 41.826C218.124 41.6113 217.737 41.504 217.27 41.504C216.617 41.504 216.094 41.7373 215.702 42.204C215.32 42.6613 215.128 43.3053 215.128 44.136C215.128 44.9667 215.32 45.6153 215.702 46.082C216.094 46.5487 216.617 46.782 217.27 46.782C218.194 46.782 218.806 46.376 219.104 45.564H220.826C220.602 46.348 220.182 46.9733 219.566 47.44C218.95 47.8973 218.185 48.126 217.27 48.126C216.533 48.126 215.88 47.9627 215.31 47.636C214.741 47.3 214.293 46.8333 213.966 46.236C213.649 45.6293 213.49 44.9293 213.49 44.136ZM223.593 41.406C223.826 41.014 224.134 40.7107 224.517 40.496C224.909 40.272 225.371 40.16 225.903 40.16V41.812H225.497C224.872 41.812 224.396 41.9707 224.069 42.288C223.752 42.6053 223.593 43.156 223.593 43.94V48H221.997V40.286H223.593V41.406ZM230.296 48.126C229.568 48.126 228.91 47.9627 228.322 47.636C227.734 47.3 227.272 46.8333 226.936 46.236C226.6 45.6293 226.432 44.9293 226.432 44.136C226.432 43.352 226.605 42.6567 226.95 42.05C227.295 41.4433 227.767 40.9767 228.364 40.65C228.961 40.3233 229.629 40.16 230.366 40.16C231.103 40.16 231.771 40.3233 232.368 40.65C232.965 40.9767 233.437 41.4433 233.782 42.05C234.127 42.6567 234.3 43.352 234.3 44.136C234.3 44.92 234.123 45.6153 233.768 46.222C233.413 46.8287 232.928 47.3 232.312 47.636C231.705 47.9627 231.033 48.126 230.296 48.126ZM230.296 46.74C230.707 46.74 231.089 46.642 231.444 46.446C231.808 46.25 232.102 45.956 232.326 45.564C232.55 45.172 232.662 44.696 232.662 44.136C232.662 43.576 232.555 43.1047 232.34 42.722C232.125 42.33 231.841 42.036 231.486 41.84C231.131 41.644 230.749 41.546 230.338 41.546C229.927 41.546 229.545 41.644 229.19 41.84C228.845 42.036 228.569 42.33 228.364 42.722C228.159 43.1047 228.056 43.576 228.056 44.136C228.056 44.9667 228.266 45.6107 228.686 46.068C229.115 46.516 229.652 46.74 230.296 46.74ZM239.35 40.16C239.956 40.16 240.498 40.286 240.974 40.538C241.459 40.79 241.837 41.1633 242.108 41.658C242.378 42.1527 242.514 42.75 242.514 43.45V48H240.932V43.688C240.932 42.9973 240.759 42.47 240.414 42.106C240.068 41.7327 239.597 41.546 239 41.546C238.402 41.546 237.926 41.7327 237.572 42.106C237.226 42.47 237.054 42.9973 237.054 43.688V48H235.458V40.286H237.054V41.168C237.315 40.8507 237.646 40.6033 238.048 40.426C238.458 40.2487 238.892 40.16 239.35 40.16ZM244.942 39.264C244.652 39.264 244.41 39.166 244.214 38.97C244.018 38.774 243.92 38.5313 243.92 38.242C243.92 37.9527 244.018 37.71 244.214 37.514C244.41 37.318 244.652 37.22 244.942 37.22C245.222 37.22 245.46 37.318 245.656 37.514C245.852 37.71 245.95 37.9527 245.95 38.242C245.95 38.5313 245.852 38.774 245.656 38.97C245.46 39.166 245.222 39.264 244.942 39.264ZM245.726 40.286V48H244.13V40.286H245.726ZM248.815 46.698H252.315V48H246.967V46.698L250.481 41.588H246.967V40.286H252.315V41.588L248.815 46.698ZM253.039 44.108C253.039 43.3333 253.197 42.6473 253.515 42.05C253.841 41.4527 254.28 40.9907 254.831 40.664C255.391 40.328 256.007 40.16 256.679 40.16C257.285 40.16 257.813 40.2813 258.261 40.524C258.718 40.7573 259.082 41.0513 259.353 41.406V40.286H260.963V48H259.353V46.852C259.082 47.216 258.713 47.5193 258.247 47.762C257.78 48.0047 257.248 48.126 256.651 48.126C255.988 48.126 255.381 47.958 254.831 47.622C254.28 47.2767 253.841 46.8007 253.515 46.194C253.197 45.578 253.039 44.8827 253.039 44.108ZM259.353 44.136C259.353 43.604 259.241 43.142 259.017 42.75C258.802 42.358 258.517 42.0593 258.163 41.854C257.808 41.6487 257.425 41.546 257.015 41.546C256.604 41.546 256.221 41.6487 255.867 41.854C255.512 42.05 255.223 42.344 254.999 42.736C254.784 43.1187 254.677 43.576 254.677 44.108C254.677 44.64 254.784 45.1067 254.999 45.508C255.223 45.9093 255.512 46.2173 255.867 46.432C256.231 46.6373 256.613 46.74 257.015 46.74C257.425 46.74 257.808 46.6373 258.163 46.432C258.517 46.2267 258.802 45.928 259.017 45.536C259.241 45.1347 259.353 44.668 259.353 44.136ZM265.887 46.782C266.811 46.782 267.422 46.376 267.721 45.564H269.443C269.238 46.2733 268.869 46.8567 268.337 47.314C267.814 47.762 267.156 48.0233 266.363 48.098V48.672C266.904 48.672 267.343 48.798 267.679 49.05C268.015 49.3113 268.183 49.6753 268.183 50.142C268.183 50.6087 268.015 50.9773 267.679 51.248C267.343 51.528 266.918 51.668 266.405 51.668H264.557V50.66H266.083C266.344 50.66 266.54 50.6227 266.671 50.548C266.802 50.4733 266.867 50.338 266.867 50.142C266.867 49.946 266.802 49.8107 266.671 49.736C266.54 49.6613 266.344 49.624 266.083 49.624H265.313V48.084C264.678 48.0093 264.118 47.7993 263.633 47.454C263.148 47.0993 262.77 46.642 262.499 46.082C262.238 45.5127 262.107 44.864 262.107 44.136C262.107 43.3427 262.266 42.6473 262.583 42.05C262.91 41.4433 263.358 40.9767 263.927 40.65C264.496 40.3233 265.15 40.16 265.887 40.16C266.82 40.16 267.59 40.384 268.197 40.832C268.813 41.2707 269.228 41.9007 269.443 42.722H267.721C267.581 42.3393 267.357 42.0407 267.049 41.826C266.741 41.6113 266.354 41.504 265.887 41.504C265.234 41.504 264.711 41.7373 264.319 42.204C263.936 42.6613 263.745 43.3053 263.745 44.136C263.745 44.9667 263.936 45.6153 264.319 46.082C264.711 46.5487 265.234 46.782 265.887 46.782ZM270.082 44.108C270.082 43.3333 270.24 42.6473 270.558 42.05C270.884 41.4527 271.323 40.9907 271.874 40.664C272.434 40.328 273.05 40.16 273.722 40.16C274.328 40.16 274.856 40.2813 275.304 40.524C275.761 40.7573 276.125 41.0513 276.396 41.406V40.286H278.006V48H276.396V46.852C276.125 47.216 275.756 47.5193 275.29 47.762C274.823 48.0047 274.291 48.126 273.694 48.126C273.031 48.126 272.424 47.958 271.874 47.622C271.323 47.2767 270.884 46.8007 270.558 46.194C270.24 45.578 270.082 44.8827 270.082 44.108ZM276.396 44.136C276.396 43.604 276.284 43.142 276.06 42.75C275.845 42.358 275.56 42.0593 275.206 41.854C274.851 41.6487 274.468 41.546 274.058 41.546C273.647 41.546 273.264 41.6487 272.91 41.854C272.555 42.05 272.266 42.344 272.042 42.736C271.827 43.1187 271.72 43.576 271.72 44.108C271.72 44.64 271.827 45.1067 272.042 45.508C272.266 45.9093 272.555 46.2173 272.91 46.432C273.274 46.6373 273.656 46.74 274.058 46.74C274.468 46.74 274.851 46.6373 275.206 46.432C275.56 46.2267 275.845 45.928 276.06 45.536C276.284 45.1347 276.396 44.668 276.396 44.136ZM272.028 39.488C272.102 38.9467 272.28 38.5407 272.56 38.27C272.84 37.99 273.19 37.85 273.61 37.85C273.787 37.85 273.941 37.878 274.072 37.934C274.202 37.99 274.361 38.074 274.548 38.186C274.688 38.2793 274.804 38.3493 274.898 38.396C275 38.4427 275.112 38.466 275.234 38.466C275.392 38.466 275.523 38.4193 275.626 38.326C275.738 38.2233 275.808 38.074 275.836 37.878H276.732C276.657 38.4193 276.48 38.83 276.2 39.11C275.92 39.3807 275.57 39.516 275.15 39.516C274.972 39.516 274.814 39.488 274.674 39.432C274.534 39.3667 274.38 39.278 274.212 39.166C274.044 39.0633 273.913 38.9933 273.82 38.956C273.736 38.9093 273.638 38.886 273.526 38.886C273.367 38.886 273.232 38.9373 273.12 39.04C273.017 39.1427 272.952 39.292 272.924 39.488H272.028ZM283.028 48.126C282.3 48.126 281.642 47.9627 281.054 47.636C280.466 47.3 280.004 46.8333 279.668 46.236C279.332 45.6293 279.164 44.9293 279.164 44.136C279.164 43.352 279.337 42.6567 279.682 42.05C280.027 41.4433 280.499 40.9767 281.096 40.65C281.693 40.3233 282.361 40.16 283.098 40.16C283.835 40.16 284.503 40.3233 285.1 40.65C285.697 40.9767 286.169 41.4433 286.514 42.05C286.859 42.6567 287.032 43.352 287.032 44.136C287.032 44.92 286.855 45.6153 286.5 46.222C286.145 46.8287 285.66 47.3 285.044 47.636C284.437 47.9627 283.765 48.126 283.028 48.126ZM283.028 46.74C283.439 46.74 283.821 46.642 284.176 46.446C284.54 46.25 284.834 45.956 285.058 45.564C285.282 45.172 285.394 44.696 285.394 44.136C285.394 43.576 285.287 43.1047 285.072 42.722C284.857 42.33 284.573 42.036 284.218 41.84C283.863 41.644 283.481 41.546 283.07 41.546C282.659 41.546 282.277 41.644 281.922 41.84C281.577 42.036 281.301 42.33 281.096 42.722C280.891 43.1047 280.788 43.576 280.788 44.136C280.788 44.9667 280.998 45.6107 281.418 46.068C281.847 46.516 282.384 46.74 283.028 46.74ZM195.646 59.406C195.879 59.014 196.187 58.7107 196.57 58.496C196.962 58.272 197.424 58.16 197.956 58.16V59.812H197.55C196.925 59.812 196.449 59.9707 196.122 60.288C195.805 60.6053 195.646 61.156 195.646 61.94V66H194.05V58.286H195.646V59.406ZM206.073 61.954C206.073 62.2433 206.054 62.5047 206.017 62.738H200.123C200.17 63.354 200.398 63.8487 200.809 64.222C201.22 64.5953 201.724 64.782 202.321 64.782C203.18 64.782 203.786 64.4227 204.141 63.704H205.863C205.63 64.4133 205.205 64.9967 204.589 65.454C203.982 65.902 203.226 66.126 202.321 66.126C201.584 66.126 200.921 65.9627 200.333 65.636C199.754 65.3 199.297 64.8333 198.961 64.236C198.634 63.6293 198.471 62.9293 198.471 62.136C198.471 61.3427 198.63 60.6473 198.947 60.05C199.274 59.4433 199.726 58.9767 200.305 58.65C200.893 58.3233 201.565 58.16 202.321 58.16C203.049 58.16 203.698 58.3187 204.267 58.636C204.836 58.9533 205.28 59.4013 205.597 59.98C205.914 60.5493 206.073 61.2073 206.073 61.954ZM204.407 61.45C204.398 60.862 204.188 60.3907 203.777 60.036C203.366 59.6813 202.858 59.504 202.251 59.504C201.7 59.504 201.229 59.6813 200.837 60.036C200.445 60.3813 200.212 60.8527 200.137 61.45H204.407ZM206.692 62.108C206.692 61.3333 206.85 60.6473 207.168 60.05C207.494 59.4527 207.933 58.9907 208.484 58.664C209.044 58.328 209.66 58.16 210.332 58.16C210.938 58.16 211.466 58.2813 211.914 58.524C212.371 58.7573 212.735 59.0513 213.006 59.406V58.286H214.616V66H213.006V64.852C212.735 65.216 212.366 65.5193 211.9 65.762C211.433 66.0047 210.901 66.126 210.304 66.126C209.641 66.126 209.034 65.958 208.484 65.622C207.933 65.2767 207.494 64.8007 207.168 64.194C206.85 63.578 206.692 62.8827 206.692 62.108ZM213.006 62.136C213.006 61.604 212.894 61.142 212.67 60.75C212.455 60.358 212.17 60.0593 211.816 59.854C211.461 59.6487 211.078 59.546 210.668 59.546C210.257 59.546 209.874 59.6487 209.52 59.854C209.165 60.05 208.876 60.344 208.652 60.736C208.437 61.1187 208.33 61.576 208.33 62.108C208.33 62.64 208.437 63.1067 208.652 63.508C208.876 63.9093 209.165 64.2173 209.52 64.432C209.884 64.6373 210.266 64.74 210.668 64.74C211.078 64.74 211.461 64.6373 211.816 64.432C212.17 64.2267 212.455 63.928 212.67 63.536C212.894 63.1347 213.006 62.668 213.006 62.136ZM217.888 55.64V66H216.292V55.64H217.888ZM220.375 57.264C220.086 57.264 219.843 57.166 219.647 56.97C219.451 56.774 219.353 56.5313 219.353 56.242C219.353 55.9527 219.451 55.71 219.647 55.514C219.843 55.318 220.086 55.22 220.375 55.22C220.655 55.22 220.893 55.318 221.089 55.514C221.285 55.71 221.383 55.9527 221.383 56.242C221.383 56.5313 221.285 56.774 221.089 56.97C220.893 57.166 220.655 57.264 220.375 57.264ZM221.159 58.286V66H219.563V58.286H221.159ZM224.249 64.698H227.749V66H222.401V64.698L225.915 59.588H222.401V58.286H227.749V59.588L224.249 64.698ZM228.473 62.108C228.473 61.3333 228.631 60.6473 228.949 60.05C229.275 59.4527 229.714 58.9907 230.265 58.664C230.825 58.328 231.441 58.16 232.113 58.16C232.719 58.16 233.247 58.2813 233.695 58.524C234.152 58.7573 234.516 59.0513 234.787 59.406V58.286H236.397V66H234.787V64.852C234.516 65.216 234.147 65.5193 233.681 65.762C233.214 66.0047 232.682 66.126 232.085 66.126C231.422 66.126 230.815 65.958 230.265 65.622C229.714 65.2767 229.275 64.8007 228.949 64.194C228.631 63.578 228.473 62.8827 228.473 62.108ZM234.787 62.136C234.787 61.604 234.675 61.142 234.451 60.75C234.236 60.358 233.951 60.0593 233.597 59.854C233.242 59.6487 232.859 59.546 232.449 59.546C232.038 59.546 231.655 59.6487 231.301 59.854C230.946 60.05 230.657 60.344 230.433 60.736C230.218 61.1187 230.111 61.576 230.111 62.108C230.111 62.64 230.218 63.1067 230.433 63.508C230.657 63.9093 230.946 64.2173 231.301 64.432C231.665 64.6373 232.047 64.74 232.449 64.74C232.859 64.74 233.242 64.6373 233.597 64.432C233.951 64.2267 234.236 63.928 234.451 63.536C234.675 63.1347 234.787 62.668 234.787 62.136ZM237.541 62.108C237.541 61.3333 237.7 60.6473 238.017 60.05C238.344 59.4527 238.782 58.9907 239.333 58.664C239.893 58.328 240.514 58.16 241.195 58.16C241.699 58.16 242.194 58.272 242.679 58.496C243.174 58.7107 243.566 59 243.855 59.364V55.64H245.465V66H243.855V64.838C243.594 65.2113 243.23 65.5193 242.763 65.762C242.306 66.0047 241.778 66.126 241.181 66.126C240.509 66.126 239.893 65.958 239.333 65.622C238.782 65.2767 238.344 64.8007 238.017 64.194C237.7 63.578 237.541 62.8827 237.541 62.108ZM243.855 62.136C243.855 61.604 243.743 61.142 243.519 60.75C243.304 60.358 243.02 60.0593 242.665 59.854C242.31 59.6487 241.928 59.546 241.517 59.546C241.106 59.546 240.724 59.6487 240.369 59.854C240.014 60.05 239.725 60.344 239.501 60.736C239.286 61.1187 239.179 61.576 239.179 62.108C239.179 62.64 239.286 63.1067 239.501 63.508C239.725 63.9093 240.014 64.2173 240.369 64.432C240.733 64.6373 241.116 64.74 241.517 64.74C241.928 64.74 242.31 64.6373 242.665 64.432C243.02 64.2267 243.304 63.928 243.519 63.536C243.743 63.1347 243.855 62.668 243.855 62.136ZM246.609 62.108C246.609 61.3333 246.768 60.6473 247.085 60.05C247.412 59.4527 247.851 58.9907 248.401 58.664C248.961 58.328 249.577 58.16 250.249 58.16C250.856 58.16 251.383 58.2813 251.831 58.524C252.289 58.7573 252.653 59.0513 252.923 59.406V58.286H254.533V66H252.923V64.852C252.653 65.216 252.284 65.5193 251.817 65.762C251.351 66.0047 250.819 66.126 250.221 66.126C249.559 66.126 248.952 65.958 248.401 65.622C247.851 65.2767 247.412 64.8007 247.085 64.194C246.768 63.578 246.609 62.8827 246.609 62.108ZM252.923 62.136C252.923 61.604 252.811 61.142 252.587 60.75C252.373 60.358 252.088 60.0593 251.733 59.854C251.379 59.6487 250.996 59.546 250.585 59.546C250.175 59.546 249.792 59.6487 249.437 59.854C249.083 60.05 248.793 60.344 248.569 60.736C248.355 61.1187 248.247 61.576 248.247 62.108C248.247 62.64 248.355 63.1067 248.569 63.508C248.793 63.9093 249.083 64.2173 249.437 64.432C249.801 64.6373 250.184 64.74 250.585 64.74C250.996 64.74 251.379 64.6373 251.733 64.432C252.088 64.2267 252.373 63.928 252.587 63.536C252.811 63.1347 252.923 62.668 252.923 62.136Z" fill="#333A43"/>
<path d="M198.3 77.69H194.95V79.68C195.09 79.4933 195.297 79.3367 195.57 79.21C195.85 79.0833 196.147 79.02 196.46 79.02C197.02 79.02 197.473 79.14 197.82 79.38C198.173 79.62 198.423 79.9233 198.57 80.29C198.723 80.6567 198.8 81.0433 198.8 81.45C198.8 81.9433 198.703 82.3833 198.51 82.77C198.323 83.15 198.04 83.45 197.66 83.67C197.287 83.89 196.827 84 196.28 84C195.553 84 194.97 83.82 194.53 83.46C194.09 83.1 193.827 82.6233 193.74 82.03H194.85C194.923 82.3433 195.087 82.5933 195.34 82.78C195.593 82.96 195.91 83.05 196.29 83.05C196.763 83.05 197.117 82.9067 197.35 82.62C197.59 82.3333 197.71 81.9533 197.71 81.48C197.71 81 197.59 80.6333 197.35 80.38C197.11 80.12 196.757 79.99 196.29 79.99C195.963 79.99 195.687 80.0733 195.46 80.24C195.24 80.4 195.08 80.62 194.98 80.9H193.9V76.69H198.3V77.69ZM208.804 78.4C209.238 78.4 209.624 78.49 209.964 78.67C210.311 78.85 210.581 79.1167 210.774 79.47C210.974 79.8233 211.074 80.25 211.074 80.75V84H209.944V80.92C209.944 80.4267 209.821 80.05 209.574 79.79C209.328 79.5233 208.991 79.39 208.564 79.39C208.138 79.39 207.798 79.5233 207.544 79.79C207.298 80.05 207.174 80.4267 207.174 80.92V84H206.044V80.92C206.044 80.4267 205.921 80.05 205.674 79.79C205.428 79.5233 205.091 79.39 204.664 79.39C204.238 79.39 203.898 79.5233 203.644 79.79C203.398 80.05 203.274 80.4267 203.274 80.92V84H202.134V78.49H203.274V79.12C203.461 78.8933 203.698 78.7167 203.984 78.59C204.271 78.4633 204.578 78.4 204.904 78.4C205.344 78.4 205.738 78.4933 206.084 78.68C206.431 78.8667 206.698 79.1367 206.884 79.49C207.051 79.1567 207.311 78.8933 207.664 78.7C208.018 78.5 208.398 78.4 208.804 78.4ZM212.805 77.76C212.598 77.76 212.425 77.69 212.285 77.55C212.145 77.41 212.075 77.2367 212.075 77.03C212.075 76.8233 212.145 76.65 212.285 76.51C212.425 76.37 212.598 76.3 212.805 76.3C213.005 76.3 213.175 76.37 213.315 76.51C213.455 76.65 213.525 76.8233 213.525 77.03C213.525 77.2367 213.455 77.41 213.315 77.55C213.175 77.69 213.005 77.76 212.805 77.76ZM213.365 78.49V84H212.225V78.49H213.365ZM217.342 78.4C217.775 78.4 218.162 78.49 218.502 78.67C218.848 78.85 219.118 79.1167 219.312 79.47C219.505 79.8233 219.602 80.25 219.602 80.75V84H218.472V80.92C218.472 80.4267 218.348 80.05 218.102 79.79C217.855 79.5233 217.518 79.39 217.092 79.39C216.665 79.39 216.325 79.5233 216.072 79.79C215.825 80.05 215.702 80.4267 215.702 80.92V84H214.562V78.49H215.702V79.12C215.888 78.8933 216.125 78.7167 216.412 78.59C216.705 78.4633 217.015 78.4 217.342 78.4ZM221.216 84.07C221.009 84.07 220.836 84 220.696 83.86C220.556 83.72 220.486 83.5467 220.486 83.34C220.486 83.1333 220.556 82.96 220.696 82.82C220.836 82.68 221.009 82.61 221.216 82.61C221.416 82.61 221.586 82.68 221.726 82.82C221.866 82.96 221.936 83.1333 221.936 83.34C221.936 83.5467 221.866 83.72 221.726 83.86C221.586 84 221.416 84.07 221.216 84.07ZM224.786 81.22C224.786 80.6667 224.899 80.1767 225.126 79.75C225.359 79.3233 225.672 78.9933 226.066 78.76C226.466 78.52 226.906 78.4 227.386 78.4C227.819 78.4 228.196 78.4867 228.516 78.66C228.842 78.8267 229.102 79.0367 229.296 79.29V78.49H230.446V84H229.296V83.18C229.102 83.44 228.839 83.6567 228.506 83.83C228.172 84.0033 227.792 84.09 227.366 84.09C226.892 84.09 226.459 83.97 226.066 83.73C225.672 83.4833 225.359 83.1433 225.126 82.71C224.899 82.27 224.786 81.7733 224.786 81.22ZM229.296 81.24C229.296 80.86 229.216 80.53 229.056 80.25C228.902 79.97 228.699 79.7567 228.446 79.61C228.192 79.4633 227.919 79.39 227.626 79.39C227.332 79.39 227.059 79.4633 226.806 79.61C226.552 79.75 226.346 79.96 226.186 80.24C226.032 80.5133 225.956 80.84 225.956 81.22C225.956 81.6 226.032 81.9333 226.186 82.22C226.346 82.5067 226.552 82.7267 226.806 82.88C227.066 83.0267 227.339 83.1 227.626 83.1C227.919 83.1 228.192 83.0267 228.446 82.88C228.699 82.7333 228.902 82.52 229.056 82.24C229.216 81.9533 229.296 81.62 229.296 81.24ZM232.973 79.42V82.47C232.973 82.6767 233.02 82.8267 233.113 82.92C233.213 83.0067 233.38 83.05 233.613 83.05H234.313V84H233.413C232.9 84 232.506 83.88 232.233 83.64C231.96 83.4 231.823 83.01 231.823 82.47V79.42H231.173V78.49H231.823V77.12H232.973V78.49H234.313V79.42H232.973ZM236.204 79.29C236.37 79.01 236.59 78.7933 236.864 78.64C237.144 78.48 237.474 78.4 237.854 78.4V79.58H237.564C237.117 79.58 236.777 79.6933 236.544 79.92C236.317 80.1467 236.204 80.54 236.204 81.1V84H235.064V78.49H236.204V79.29ZM238.222 81.22C238.222 80.6667 238.335 80.1767 238.562 79.75C238.795 79.3233 239.108 78.9933 239.502 78.76C239.902 78.52 240.342 78.4 240.822 78.4C241.255 78.4 241.632 78.4867 241.952 78.66C242.278 78.8267 242.538 79.0367 242.732 79.29V78.49H243.882V84H242.732V83.18C242.538 83.44 242.275 83.6567 241.942 83.83C241.608 84.0033 241.228 84.09 240.802 84.09C240.328 84.09 239.895 83.97 239.502 83.73C239.108 83.4833 238.795 83.1433 238.562 82.71C238.335 82.27 238.222 81.7733 238.222 81.22ZM242.732 81.24C242.732 80.86 242.652 80.53 242.492 80.25C242.338 79.97 242.135 79.7567 241.882 79.61C241.628 79.4633 241.355 79.39 241.062 79.39C240.768 79.39 240.495 79.4633 240.242 79.61C239.988 79.75 239.782 79.96 239.622 80.24C239.468 80.5133 239.392 80.84 239.392 81.22C239.392 81.6 239.468 81.9333 239.622 82.22C239.782 82.5067 239.988 82.7267 240.242 82.88C240.502 83.0267 240.775 83.1 241.062 83.1C241.355 83.1 241.628 83.0267 241.882 82.88C242.135 82.7333 242.338 82.52 242.492 82.24C242.652 81.9533 242.732 81.62 242.732 81.24ZM242.272 77.01L240.062 78.1V77.26L242.272 76.04V77.01ZM247.079 84.09C246.646 84.09 246.256 84.0133 245.909 83.86C245.569 83.7 245.299 83.4867 245.099 83.22C244.899 82.9467 244.792 82.6433 244.779 82.31H245.959C245.979 82.5433 246.089 82.74 246.289 82.9C246.496 83.0533 246.752 83.13 247.059 83.13C247.379 83.13 247.626 83.07 247.799 82.95C247.979 82.8233 248.069 82.6633 248.069 82.47C248.069 82.2633 247.969 82.11 247.769 82.01C247.576 81.91 247.266 81.8 246.839 81.68C246.426 81.5667 246.089 81.4567 245.829 81.35C245.569 81.2433 245.342 81.08 245.149 80.86C244.962 80.64 244.869 80.35 244.869 79.99C244.869 79.6967 244.956 79.43 245.129 79.19C245.302 78.9433 245.549 78.75 245.869 78.61C246.196 78.47 246.569 78.4 246.989 78.4C247.616 78.4 248.119 78.56 248.499 78.88C248.886 79.1933 249.092 79.6233 249.119 80.17H247.979C247.959 79.9233 247.859 79.7267 247.679 79.58C247.499 79.4333 247.256 79.36 246.949 79.36C246.649 79.36 246.419 79.4167 246.259 79.53C246.099 79.6433 246.019 79.7933 246.019 79.98C246.019 80.1267 246.072 80.25 246.179 80.35C246.286 80.45 246.416 80.53 246.569 80.59C246.722 80.6433 246.949 80.7133 247.249 80.8C247.649 80.9067 247.976 81.0167 248.229 81.13C248.489 81.2367 248.712 81.3967 248.899 81.61C249.086 81.8233 249.182 82.1067 249.189 82.46C249.189 82.7733 249.102 83.0533 248.929 83.3C248.756 83.5467 248.509 83.74 248.189 83.88C247.876 84.02 247.506 84.09 247.079 84.09Z" fill="#333A43" fill-opacity="0.6"/>
</g>
<defs>
<filter id="filter0_d_391_1574" x="0" y="85" width="306" height="133" filterUnits="userSpaceOnUse" color-interpolation-filters="sRGB">
<feFlood flood-opacity="0" result="BackgroundImageFix"/>
<feColorMatrix in="SourceAlpha" type="matrix" values="0 0 0 0 0 0 0 0 0 0 0 0 0 0 0 0 0 0 127 0" result="hardAlpha"/>
<feOffset dy="4"/>
<feGaussianBlur stdDeviation="14"/>
<feComposite in2="hardAlpha" operator="out"/>
<feColorMatrix type="matrix" values="0 0 0 0 0.390372 0 0 0 0 0.367301 0 0 0 0 0.367301 0 0 0 0.25 0"/>
<feBlend mode="normal" in2="BackgroundImageFix" result="effect1_dropShadow_391_1574"/>
<feBlend mode="normal" in="SourceGraphic" in2="effect1_dropShadow_391_1574" result="shape"/>
</filter>
<filter id="filter1_d_391_1574" x="87" y="0" width="297" height="133" filterUnits="userSpaceOnUse" color-interpolation-filters="sRGB">
<feFlood flood-opacity="0" result="BackgroundImageFix"/>
<feColorMatrix in="SourceAlpha" type="matrix" values="0 0 0 0 0 0 0 0 0 0 0 0 0 0 0 0 0 0 127 0" result="hardAlpha"/>
<feOffset dy="4"/>
<feGaussianBlur stdDeviation="14"/>
<feComposite in2="hardAlpha" operator="out"/>
<feColorMatrix type="matrix" values="0 0 0 0 0.390372 0 0 0 0 0.367301 0 0 0 0 0.367301 0 0 0 0.25 0"/>
<feBlend mode="normal" in2="BackgroundImageFix" result="effect1_dropShadow_391_1574"/>
<feBlend mode="normal" in="SourceGraphic" in2="effect1_dropShadow_391_1574" result="shape"/>
</filter>
</defs>
</svg>
