<svg width="274" height="104" viewBox="0 0 274 104" fill="none" xmlns="http://www.w3.org/2000/svg">
<g filter="url(#filter0_d_155_992)">
<rect x="16" y="4" width="242" height="72" rx="4" fill="white"/>
<rect x="16.5" y="4.5" width="241" height="71" rx="3.5" stroke="#EEECF2"/>
</g>
<path d="M78.744 35.228L75.16 45H72.78L69.196 35.228H71.296L73.984 42.998L76.658 35.228H78.744ZM83.0831 45.126C82.3365 45.126 81.6645 44.9627 81.0671 44.636C80.4698 44.3 79.9985 43.8287 79.6531 43.222C79.3171 42.6153 79.1491 41.9153 79.1491 41.122C79.1491 40.3287 79.3218 39.6287 79.6671 39.022C80.0218 38.4153 80.5025 37.9487 81.1091 37.622C81.7158 37.286 82.3925 37.118 83.1391 37.118C83.8858 37.118 84.5625 37.286 85.1691 37.622C85.7758 37.9487 86.2518 38.4153 86.5971 39.022C86.9518 39.6287 87.1291 40.3287 87.1291 41.122C87.1291 41.9153 86.9471 42.6153 86.5831 43.222C86.2285 43.8287 85.7431 44.3 85.1271 44.636C84.5205 44.9627 83.8391 45.126 83.0831 45.126ZM83.0831 43.418C83.4378 43.418 83.7691 43.334 84.0771 43.166C84.3945 42.9887 84.6465 42.7273 84.8331 42.382C85.0198 42.0367 85.1131 41.6167 85.1131 41.122C85.1131 40.3847 84.9171 39.82 84.5251 39.428C84.1425 39.0267 83.6711 38.826 83.1111 38.826C82.5511 38.826 82.0798 39.0267 81.6971 39.428C81.3238 39.82 81.1371 40.3847 81.1371 41.122C81.1371 41.8593 81.3191 42.4287 81.6831 42.83C82.0565 43.222 82.5231 43.418 83.0831 43.418ZM90.5689 38.854V42.606C90.5689 42.8673 90.6295 43.0587 90.7509 43.18C90.8815 43.292 91.0962 43.348 91.3949 43.348H92.3049V45H91.0729C89.4209 45 88.5949 44.1973 88.5949 42.592V38.854H87.6709V37.244H88.5949V35.326H90.5689V37.244H92.3049V38.854H90.5689ZM92.9306 41.094C92.9306 40.31 93.0846 39.6147 93.3926 39.008C93.7099 38.4013 94.1346 37.9347 94.6666 37.608C95.2079 37.2813 95.8099 37.118 96.4726 37.118C97.0513 37.118 97.5553 37.2347 97.9846 37.468C98.4233 37.7013 98.7733 37.9953 99.0346 38.35V37.244H101.009V45H99.0346V43.866C98.7826 44.23 98.4326 44.5333 97.9846 44.776C97.5459 45.0093 97.0373 45.126 96.4586 45.126C95.8053 45.126 95.2079 44.958 94.6666 44.622C94.1346 44.286 93.7099 43.8147 93.3926 43.208C93.0846 42.592 92.9306 41.8873 92.9306 41.094ZM99.0346 41.122C99.0346 40.646 98.9413 40.24 98.7546 39.904C98.5679 39.5587 98.3159 39.2973 97.9986 39.12C97.6813 38.9333 97.3406 38.84 96.9766 38.84C96.6126 38.84 96.2766 38.9287 95.9686 39.106C95.6606 39.2833 95.4086 39.5447 95.2126 39.89C95.0259 40.226 94.9326 40.6273 94.9326 41.094C94.9326 41.5607 95.0259 41.9713 95.2126 42.326C95.4086 42.6713 95.6606 42.9373 95.9686 43.124C96.2859 43.3107 96.6219 43.404 96.9766 43.404C97.3406 43.404 97.6813 43.3153 97.9986 43.138C98.3159 42.9513 98.5679 42.69 98.7546 42.354C98.9413 42.0087 99.0346 41.598 99.0346 41.122ZM105.961 43.446C106.754 43.446 107.272 43.0913 107.515 42.382H109.629C109.433 43.138 109.069 43.754 108.537 44.23C108.014 44.706 107.356 44.9907 106.563 45.084V45.63C107.076 45.63 107.506 45.7607 107.851 46.022C108.206 46.2833 108.383 46.6613 108.383 47.156C108.383 47.66 108.201 48.0473 107.837 48.318C107.482 48.5887 107.044 48.724 106.521 48.724H104.533V47.576H106.199C106.423 47.576 106.591 47.5433 106.703 47.478C106.824 47.4127 106.885 47.296 106.885 47.128C106.885 46.96 106.824 46.8433 106.703 46.778C106.591 46.722 106.423 46.694 106.199 46.694H105.331V45.084C104.696 44.9907 104.136 44.7713 103.651 44.426C103.175 44.0713 102.802 43.614 102.531 43.054C102.27 42.4847 102.139 41.8407 102.139 41.122C102.139 40.3193 102.302 39.6193 102.629 39.022C102.956 38.4153 103.408 37.9487 103.987 37.622C104.566 37.286 105.228 37.118 105.975 37.118C106.936 37.118 107.73 37.3607 108.355 37.846C108.99 38.322 109.414 38.994 109.629 39.862H107.515C107.403 39.526 107.212 39.2647 106.941 39.078C106.68 38.882 106.353 38.784 105.961 38.784C105.401 38.784 104.958 38.9893 104.631 39.4C104.304 39.8013 104.141 40.3753 104.141 41.122C104.141 41.8593 104.304 42.4333 104.631 42.844C104.958 43.2453 105.401 43.446 105.961 43.446ZM110.281 41.094C110.281 40.31 110.435 39.6147 110.743 39.008C111.06 38.4013 111.485 37.9347 112.017 37.608C112.558 37.2813 113.16 37.118 113.823 37.118C114.401 37.118 114.905 37.2347 115.335 37.468C115.773 37.7013 116.123 37.9953 116.385 38.35V37.244H118.359V45H116.385V43.866C116.133 44.23 115.783 44.5333 115.335 44.776C114.896 45.0093 114.387 45.126 113.809 45.126C113.155 45.126 112.558 44.958 112.017 44.622C111.485 44.286 111.06 43.8147 110.743 43.208C110.435 42.592 110.281 41.8873 110.281 41.094ZM116.385 41.122C116.385 40.646 116.291 40.24 116.105 39.904C115.918 39.5587 115.666 39.2973 115.349 39.12C115.031 38.9333 114.691 38.84 114.327 38.84C113.963 38.84 113.627 38.9287 113.319 39.106C113.011 39.2833 112.759 39.5447 112.563 39.89C112.376 40.226 112.283 40.6273 112.283 41.094C112.283 41.5607 112.376 41.9713 112.563 42.326C112.759 42.6713 113.011 42.9373 113.319 43.124C113.636 43.3107 113.972 43.404 114.327 43.404C114.691 43.404 115.031 43.3153 115.349 43.138C115.666 42.9513 115.918 42.69 116.105 42.354C116.291 42.0087 116.385 41.598 116.385 41.122ZM112.073 36.502C112.157 35.886 112.348 35.4287 112.647 35.13C112.955 34.822 113.342 34.668 113.809 34.668C114.005 34.668 114.177 34.7007 114.327 34.766C114.476 34.822 114.644 34.906 114.831 35.018C115.111 35.1953 115.344 35.284 115.531 35.284C115.876 35.284 116.077 35.0833 116.133 34.682H117.183C117.099 35.298 116.903 35.76 116.595 36.068C116.296 36.3667 115.913 36.516 115.447 36.516C115.251 36.516 115.078 36.488 114.929 36.432C114.779 36.3667 114.611 36.278 114.425 36.166C114.154 35.9793 113.921 35.886 113.725 35.886C113.379 35.886 113.174 36.0913 113.109 36.502H112.073ZM123.437 45.126C122.69 45.126 122.018 44.9627 121.421 44.636C120.824 44.3 120.352 43.8287 120.007 43.222C119.671 42.6153 119.503 41.9153 119.503 41.122C119.503 40.3287 119.676 39.6287 120.021 39.022C120.376 38.4153 120.856 37.9487 121.463 37.622C122.07 37.286 122.746 37.118 123.493 37.118C124.24 37.118 124.916 37.286 125.523 37.622C126.13 37.9487 126.606 38.4153 126.951 39.022C127.306 39.6287 127.483 40.3287 127.483 41.122C127.483 41.9153 127.301 42.6153 126.937 43.222C126.582 43.8287 126.097 44.3 125.481 44.636C124.874 44.9627 124.193 45.126 123.437 45.126ZM123.437 43.418C123.792 43.418 124.123 43.334 124.431 43.166C124.748 42.9887 125 42.7273 125.187 42.382C125.374 42.0367 125.467 41.6167 125.467 41.122C125.467 40.3847 125.271 39.82 124.879 39.428C124.496 39.0267 124.025 38.826 123.465 38.826C122.905 38.826 122.434 39.0267 122.051 39.428C121.678 39.82 121.491 40.3847 121.491 41.122C121.491 41.8593 121.673 42.4287 122.037 42.83C122.41 43.222 122.877 43.418 123.437 43.418ZM136.233 45.098C135.318 45.098 134.478 44.8833 133.713 44.454C132.947 44.0247 132.341 43.432 131.893 42.676C131.445 41.9107 131.221 41.0473 131.221 40.086C131.221 39.134 131.445 38.28 131.893 37.524C132.341 36.7587 132.947 36.1613 133.713 35.732C134.478 35.3027 135.318 35.088 136.233 35.088C137.157 35.088 137.997 35.3027 138.753 35.732C139.518 36.1613 140.12 36.7587 140.559 37.524C141.007 38.28 141.231 39.134 141.231 40.086C141.231 41.0473 141.007 41.9107 140.559 42.676C140.12 43.432 139.518 44.0247 138.753 44.454C137.987 44.8833 137.147 45.098 136.233 45.098ZM136.233 43.348C136.821 43.348 137.339 43.2173 137.787 42.956C138.235 42.6853 138.585 42.3027 138.837 41.808C139.089 41.3133 139.215 40.7393 139.215 40.086C139.215 39.4327 139.089 38.8633 138.837 38.378C138.585 37.8833 138.235 37.5053 137.787 37.244C137.339 36.9827 136.821 36.852 136.233 36.852C135.645 36.852 135.122 36.9827 134.665 37.244C134.217 37.5053 133.867 37.8833 133.615 38.378C133.363 38.8633 133.237 39.4327 133.237 40.086C133.237 40.7393 133.363 41.3133 133.615 41.808C133.867 42.3027 134.217 42.6853 134.665 42.956C135.122 43.2173 135.645 43.348 136.233 43.348ZM146.707 37.132C147.631 37.132 148.378 37.426 148.947 38.014C149.516 38.5927 149.801 39.4047 149.801 40.45V45H147.841V40.716C147.841 40.1 147.687 39.6287 147.379 39.302C147.071 38.966 146.651 38.798 146.119 38.798C145.578 38.798 145.148 38.966 144.831 39.302C144.523 39.6287 144.369 40.1 144.369 40.716V45H142.409V37.244H144.369V38.21C144.63 37.874 144.962 37.6127 145.363 37.426C145.774 37.23 146.222 37.132 146.707 37.132ZM153.345 34.64V45H151.385V34.64H153.345ZM155.995 36.32C155.65 36.32 155.361 36.2127 155.127 35.998C154.903 35.774 154.791 35.4987 154.791 35.172C154.791 34.8453 154.903 34.5747 155.127 34.36C155.361 34.136 155.65 34.024 155.995 34.024C156.341 34.024 156.625 34.136 156.849 34.36C157.083 34.5747 157.199 34.8453 157.199 35.172C157.199 35.4987 157.083 35.774 156.849 35.998C156.625 36.2127 156.341 36.32 155.995 36.32ZM156.961 37.244V45H155.001V37.244H156.961ZM162.916 37.132C163.84 37.132 164.586 37.426 165.156 38.014C165.725 38.5927 166.01 39.4047 166.01 40.45V45H164.05V40.716C164.05 40.1 163.896 39.6287 163.588 39.302C163.28 38.966 162.86 38.798 162.328 38.798C161.786 38.798 161.357 38.966 161.04 39.302C160.732 39.6287 160.578 40.1 160.578 40.716V45H158.618V37.244H160.578V38.21C160.839 37.874 161.17 37.6127 161.572 37.426C161.982 37.23 162.43 37.132 162.916 37.132ZM174.804 40.954C174.804 41.234 174.785 41.486 174.748 41.71H169.078C169.124 42.27 169.32 42.7087 169.666 43.026C170.011 43.3433 170.436 43.502 170.94 43.502C171.668 43.502 172.186 43.1893 172.494 42.564H174.608C174.384 43.3107 173.954 43.9267 173.32 44.412C172.685 44.888 171.906 45.126 170.982 45.126C170.235 45.126 169.563 44.9627 168.966 44.636C168.378 44.3 167.916 43.8287 167.58 43.222C167.253 42.6153 167.09 41.9153 167.09 41.122C167.09 40.3193 167.253 39.6147 167.58 39.008C167.906 38.4013 168.364 37.9347 168.952 37.608C169.54 37.2813 170.216 37.118 170.982 37.118C171.719 37.118 172.377 37.2767 172.956 37.594C173.544 37.9113 173.996 38.364 174.314 38.952C174.64 39.5307 174.804 40.198 174.804 40.954ZM172.774 40.394C172.764 39.89 172.582 39.4887 172.228 39.19C171.873 38.882 171.439 38.728 170.926 38.728C170.44 38.728 170.03 38.8773 169.694 39.176C169.367 39.4653 169.166 39.8713 169.092 40.394H172.774Z" fill="#4D4D4F"/>
<path d="M51.7143 42.2857H49.4286V44.5714H50.2286C50.4179 44.5714 50.5714 44.7 50.5714 44.8571V45.4286C50.5714 45.5857 50.4179 45.7143 50.2286 45.7143H32.6286C32.4393 45.7143 32.2857 45.5857 32.2857 45.4286V44.8571C32.2857 44.7 32.4393 44.5714 32.6286 44.5714H33.4286V42.2857H31.1429C30.5107 42.2857 30 42.7964 30 43.4286V46.8571C30 47.4893 30.5107 48 31.1429 48H51.7143C52.3464 48 52.8571 47.4893 52.8571 46.8571V43.4286C52.8571 42.7964 52.3464 42.2857 51.7143 42.2857ZM48.2857 44.5714V33.1536C48.2857 32.5143 47.7679 32 47.1321 32H35.7286C35.0893 32 34.5714 32.5179 34.5714 33.1536V44.5714H48.2857ZM37.5429 38.0714L38.4536 37.1679C38.6036 37.0179 38.8464 37.0179 38.9964 37.1714L40.4714 38.6571L43.8714 35.2857C44.0214 35.1357 44.2643 35.1357 44.4143 35.2893L45.3179 36.2C45.4679 36.35 45.4679 36.5929 45.3143 36.7429L40.7321 41.2857C40.5821 41.4357 40.3393 41.4357 40.1893 41.2821L37.5429 38.6143C37.3893 38.4643 37.3929 38.2214 37.5429 38.0714Z" fill="#B9B5C8"/>
<path d="M235.938 34.0938L236.656 33.4062C236.802 33.2604 236.979 33.1875 237.188 33.1875C237.396 33.1875 237.573 33.2604 237.719 33.4062L243.781 39.4688C243.927 39.6146 244 39.7917 244 40C244 40.2083 243.927 40.3854 243.781 40.5312L237.719 46.5938C237.573 46.7396 237.396 46.8125 237.188 46.8125C236.979 46.8125 236.802 46.7396 236.656 46.5938L235.938 45.9062C235.792 45.7604 235.719 45.5833 235.719 45.375C235.74 45.1667 235.823 44.9896 235.969 44.8438L239.719 41.25H230.75C230.542 41.25 230.365 41.1771 230.219 41.0312C230.073 40.8854 230 40.7083 230 40.5V39.5C230 39.2917 230.073 39.1146 230.219 38.9688C230.365 38.8229 230.542 38.75 230.75 38.75H239.719L235.969 35.1562C235.823 35.0104 235.74 34.8333 235.719 34.625C235.719 34.4167 235.792 34.2396 235.938 34.0938Z" fill="#DCD9E5"/>
<circle cx="52" cy="27" r="9" fill="#34226B" stroke="white" stroke-width="2"/>
<path d="M49.5668 25.62C49.5868 24.9667 49.8168 24.46 50.2568 24.1C50.7035 23.7333 51.2835 23.55 51.9968 23.55C52.7168 23.55 53.2802 23.7333 53.6868 24.1C54.0935 24.46 54.2968 24.9167 54.2968 25.47C54.2968 25.8967 54.1868 26.2567 53.9668 26.55C53.7468 26.8367 53.5002 27.0267 53.2268 27.12V27.16C54.0268 27.4333 54.4268 28.0367 54.4268 28.97C54.4268 29.59 54.2135 30.09 53.7868 30.47C53.3602 30.85 52.7735 31.04 52.0268 31.04C51.2802 31.04 50.6702 30.85 50.1968 30.47C49.7235 30.09 49.4768 29.5333 49.4568 28.8H50.8168C50.8302 29.1267 50.9402 29.39 51.1468 29.59C51.3602 29.7833 51.6435 29.88 51.9968 29.88C52.3502 29.88 52.6168 29.7867 52.7968 29.6C52.9835 29.4067 53.0768 29.1333 53.0768 28.78C53.0768 28.4267 52.9502 28.1667 52.6968 28C52.4502 27.8267 52.0568 27.74 51.5168 27.74H51.2268V26.59H51.5168C52.4635 26.59 52.9368 26.2733 52.9368 25.64C52.9368 25.3667 52.8502 25.15 52.6768 24.99C52.5035 24.83 52.2568 24.75 51.9368 24.75C51.6168 24.75 51.3768 24.84 51.2168 25.02C51.0568 25.2 50.9635 25.4 50.9368 25.62H49.5668Z" fill="white"/>
<defs>
<filter id="filter0_d_155_992" x="0" y="0" width="274" height="104" filterUnits="userSpaceOnUse" color-interpolation-filters="sRGB">
<feFlood flood-opacity="0" result="BackgroundImageFix"/>
<feColorMatrix in="SourceAlpha" type="matrix" values="0 0 0 0 0 0 0 0 0 0 0 0 0 0 0 0 0 0 127 0" result="hardAlpha"/>
<feOffset dy="12"/>
<feGaussianBlur stdDeviation="8"/>
<feColorMatrix type="matrix" values="0 0 0 0 0.2 0 0 0 0 0.133333 0 0 0 0 0.419608 0 0 0 0.25 0"/>
<feBlend mode="normal" in2="BackgroundImageFix" result="effect1_dropShadow_155_992"/>
<feBlend mode="normal" in="SourceGraphic" in2="effect1_dropShadow_155_992" result="shape"/>
</filter>
</defs>
</svg>
