<svg width="243" height="42" viewBox="0 0 243 42" fill="none" xmlns="http://www.w3.org/2000/svg">
<g clip-path="url(#clip0_129_2125)">
<path d="M157.062 32.5847C155.075 32.6308 153.098 32.2713 151.254 31.5279C149.409 30.7846 147.736 29.6731 146.336 28.2613C144.935 26.8495 143.838 25.1671 143.109 23.3168C142.381 21.4665 142.038 19.4871 142.1 17.4997C142.049 15.525 142.399 13.5605 143.13 11.7255C143.861 9.89041 144.957 8.22306 146.352 6.82465C147.743 5.40268 149.411 4.28319 151.254 3.53637C153.097 2.78955 155.075 2.43149 157.062 2.48465C159.053 2.43559 161.029 2.83295 162.846 3.64755C164.663 4.46216 166.275 5.67333 167.562 7.19215L164.99 9.76465C164.046 8.57184 162.84 7.61322 161.465 6.96359C160.09 6.31396 158.583 5.99091 157.062 6.01965C155.58 5.98346 154.107 6.25041 152.731 6.80411C151.356 7.35781 150.108 8.1866 149.065 9.23965C147.999 10.3266 147.167 11.62 146.619 13.0405C146.071 14.461 145.82 15.9784 145.88 17.4997C145.815 19.0267 146.064 20.5508 146.612 21.9776C147.16 23.4045 147.995 24.7036 149.065 25.7947C150.106 26.8511 151.353 27.6821 152.729 28.236C154.105 28.79 155.58 29.055 157.062 29.0147C158.745 29.0065 160.403 28.6219 161.918 27.8891C163.432 27.1563 164.762 26.0938 165.812 24.7797L168.507 27.4047C167.143 29.0354 165.426 30.3341 163.485 31.2022C161.471 32.1265 159.279 32.5984 157.062 32.5847ZM175.21 3.13215V31.9547H171.5V3.13215H175.21ZM178.395 22.0847C178.355 20.7032 178.587 19.3274 179.08 18.036C179.572 16.7447 180.315 15.5633 181.265 14.5597C182.205 13.5853 183.338 12.8176 184.592 12.3054C185.845 11.7932 187.191 11.5477 188.545 11.5847C189.894 11.5461 191.235 11.791 192.483 12.3034C193.731 12.8159 194.858 13.5845 195.79 14.5597C196.75 15.5574 197.5 16.7374 197.996 18.0298C198.491 19.3223 198.723 20.7011 198.677 22.0847C198.728 23.4688 198.499 24.849 198.003 26.1422C197.506 27.4354 196.754 28.6148 195.79 29.6097C194.86 30.5883 193.734 31.3593 192.486 31.872C191.237 32.3847 189.894 32.6276 188.545 32.5847C187.191 32.6259 185.843 32.3825 184.589 31.87C183.335 31.3575 182.203 30.5875 181.265 29.6097C180.315 28.606 179.572 27.4246 179.08 26.1333C178.587 24.8419 178.355 23.4661 178.395 22.0847ZM182.105 22.0847C182.02 23.9773 182.687 25.8268 183.96 27.2297C184.549 27.8547 185.26 28.3527 186.048 28.6931C186.836 29.0334 187.686 29.209 188.545 29.209C189.404 29.209 190.254 29.0334 191.042 28.6931C191.83 28.3527 192.541 27.8547 193.13 27.2297C194.403 25.8268 195.07 23.9773 194.985 22.0847C195.067 20.2031 194.4 18.3657 193.13 16.9747C192.546 16.3404 191.838 15.834 191.049 15.4877C190.259 15.1414 189.407 14.9626 188.545 14.9626C187.683 14.9626 186.831 15.1414 186.041 15.4877C185.252 15.834 184.543 16.3404 183.96 16.9747C182.69 18.3657 182.023 20.2031 182.105 22.0847ZM219.152 31.9547H215.652V29.2072H215.477C214.852 30.2343 213.956 31.0697 212.887 31.6222C211.777 32.2513 210.523 32.5829 209.247 32.5847C208.224 32.651 207.198 32.5014 206.237 32.1456C205.275 31.7899 204.399 31.2359 203.665 30.5197C202.278 28.8794 201.582 26.7653 201.722 24.6222V12.2497H205.415V24.3947C205.338 25.0522 205.411 25.7186 205.63 26.3434C205.849 26.9682 206.208 27.5349 206.678 28.0004C207.149 28.466 207.719 28.8182 208.347 29.0304C208.974 29.2425 209.641 29.3089 210.297 29.2247C211.006 29.237 211.708 29.0854 212.349 28.7819C212.989 28.4783 213.551 28.031 213.99 27.4747C214.988 26.2725 215.517 24.7492 215.477 23.1872V12.2497H219.187L219.152 31.9547ZM231.682 32.5847C230.423 32.5844 229.178 32.3122 228.034 31.7867C226.889 31.2611 225.871 30.4947 225.05 29.5396C223.212 27.4957 222.212 24.8335 222.25 22.0847C222.19 19.35 223.165 16.6936 224.98 14.6472C225.795 13.6835 226.811 12.91 227.957 12.3809C229.103 11.8518 230.35 11.58 231.612 11.5847C232.993 11.5613 234.358 11.8799 235.585 12.5122C236.709 13.0665 237.664 13.9126 238.35 14.9622H238.507L238.42 12.2497V3.13215H242.112V31.9547H238.612V29.2072H238.455C237.769 30.2567 236.814 31.1028 235.69 31.6572C234.452 32.2951 233.075 32.6139 231.682 32.5847ZM232.295 29.2072C233.14 29.2344 233.98 29.0708 234.752 28.7284C235.525 28.386 236.21 27.8737 236.757 27.2297C237.981 25.8039 238.608 23.961 238.507 22.0847C238.592 20.2212 237.967 18.395 236.757 16.9747C236.212 16.3262 235.528 15.8086 234.755 15.4603C233.983 15.1119 233.142 14.9417 232.295 14.9622C231.449 14.9491 230.61 15.1227 229.839 15.4705C229.068 15.8183 228.383 16.3319 227.832 16.9747C226.623 18.395 225.998 20.2212 226.082 22.0847C225.985 23.9499 226.612 25.7806 227.832 27.1947C228.383 27.8374 229.068 28.351 229.839 28.6988C230.61 29.0466 231.449 29.2202 232.295 29.2072Z" fill="#5F6368"/>
<path d="M16.6075 32.5847C12.2529 32.5991 8.06793 30.8971 4.95938 27.8475C1.85083 24.7979 0.0690248 20.6463 0 16.2922C0.0690248 11.9381 1.85083 7.78653 4.95938 4.73694C8.06793 1.68735 12.2529 -0.0146364 16.6075 -0.00027961C18.6825 -0.0348344 20.7435 0.345171 22.6697 1.11746C24.5959 1.88975 26.3486 3.03879 27.825 4.49722L24.6575 7.62972C22.4978 5.55016 19.6054 4.40577 16.6075 4.44472C15.0553 4.43997 13.5176 4.74394 12.0839 5.33896C10.6502 5.93398 9.34916 6.80816 8.25644 7.91064C7.16373 9.01313 6.30117 10.3219 5.71894 11.7608C5.13671 13.1997 4.84643 14.7401 4.865 16.2922C4.84643 17.8444 5.13671 19.3847 5.71894 20.8236C6.30117 22.2625 7.16373 23.5713 8.25644 24.6738C9.34916 25.7763 10.6502 26.6505 12.0839 27.2455C13.5176 27.8405 15.0553 28.1445 16.6075 28.1397C18.1366 28.2025 19.6619 27.9437 21.0848 27.38C22.5076 26.8162 23.7963 25.9602 24.8675 24.8672C26.2955 23.3271 27.1538 21.3449 27.3 19.2497H16.6075V14.8222H31.6575C31.8216 15.7404 31.8978 16.6721 31.885 17.6047C32.0035 21.4452 30.6083 25.1784 28 27.9997C26.5321 29.5246 24.7581 30.7215 22.7946 31.5117C20.831 32.302 18.7225 32.6677 16.6075 32.5847Z" fill="#4285F4"/>
<path d="M55.1602 22.0846C55.2176 23.4844 54.9915 24.8814 54.4955 26.1916C53.9994 27.5019 53.2436 28.6983 52.2735 29.7091C51.3034 30.7198 50.139 31.5241 48.8502 32.0734C47.5614 32.6228 46.1749 32.906 44.7739 32.906C43.3729 32.906 41.9864 32.6228 40.6976 32.0734C39.4088 31.5241 38.2444 30.7198 37.2743 29.7091C36.3042 28.6983 35.5484 27.5019 35.0523 26.1916C34.5563 24.8814 34.3302 23.4844 34.3877 22.0846C34.3302 20.6848 34.5563 19.2878 35.0523 17.9776C35.5484 16.6674 36.3042 15.4709 37.2743 14.4602C38.2444 13.4494 39.4088 12.6452 40.6976 12.0958C41.9864 11.5464 43.3729 11.2632 44.7739 11.2632C46.1749 11.2632 47.5614 11.5464 48.8502 12.0958C50.139 12.6452 51.3034 13.4494 52.2735 14.4602C53.2436 15.4709 53.9994 16.6674 54.4955 17.9776C54.9915 19.2878 55.2176 20.6848 55.1602 22.0846ZM50.6102 22.0846C50.6873 21.2717 50.5938 20.4516 50.3357 19.6769C50.0775 18.9021 49.6603 18.1899 49.1108 17.5858C48.5614 16.9817 47.8918 16.4991 47.1449 16.1688C46.3981 15.8385 45.5905 15.6679 44.7739 15.6679C43.9573 15.6679 43.1497 15.8385 42.4029 16.1688C41.656 16.4991 40.9864 16.9817 40.437 17.5858C39.8875 18.1899 39.4703 18.9021 39.2122 19.6769C38.954 20.4516 38.8605 21.2717 38.9377 22.0846C38.8605 22.8975 38.954 23.7177 39.2122 24.4924C39.4703 25.2671 39.8875 25.9793 40.437 26.5834C40.9864 27.1875 41.656 27.6701 42.4029 28.0004C43.1497 28.3307 43.9573 28.5013 44.7739 28.5013C45.5905 28.5013 46.3981 28.3307 47.1449 28.0004C47.8918 27.6701 48.5614 27.1875 49.1108 26.5834C49.6603 25.9793 50.0775 25.2671 50.3357 24.4924C50.5938 23.7177 50.6873 22.8975 50.6102 22.0846Z" fill="#EA4335"/>
<path d="M78.4526 22.0846C78.5101 23.4844 78.284 24.8814 77.788 26.1916C77.2919 27.5019 76.5361 28.6983 75.566 29.7091C74.5959 30.7198 73.4315 31.5241 72.1427 32.0734C70.8539 32.6228 69.4674 32.906 68.0664 32.906C66.6654 32.906 65.2789 32.6228 63.9901 32.0734C62.7013 31.5241 61.5369 30.7198 60.5668 29.7091C59.5966 28.6983 58.8409 27.5019 58.3448 26.1916C57.8488 24.8814 57.6227 23.4844 57.6801 22.0846C57.6227 20.6848 57.8488 19.2878 58.3448 17.9776C58.8409 16.6674 59.5966 15.4709 60.5668 14.4602C61.5369 13.4494 62.7013 12.6452 63.9901 12.0958C65.2789 11.5464 66.6654 11.2632 68.0664 11.2632C69.4674 11.2632 70.8539 11.5464 72.1427 12.0958C73.4315 12.6452 74.5959 13.4494 75.566 14.4602C76.5361 15.4709 77.2919 16.6674 77.788 17.9776C78.284 19.2878 78.5101 20.6848 78.4526 22.0846ZM73.9026 22.0846C73.965 21.279 73.8602 20.4692 73.5948 19.706C73.3293 18.9429 72.909 18.2428 72.3601 17.6498C71.8113 17.0568 71.1457 16.5837 70.4053 16.2601C69.665 15.9365 68.8657 15.7695 68.0576 15.7695C67.2496 15.7695 66.4503 15.9365 65.7099 16.2601C64.9695 16.5837 64.304 17.0568 63.7552 17.6498C63.2063 18.2428 62.786 18.9429 62.5205 19.706C62.2551 20.4692 62.1503 21.279 62.2126 22.0846C62.1503 22.8902 62.2551 23.7 62.5205 24.4632C62.786 25.2264 63.2063 25.9264 63.7552 26.5194C64.304 27.1124 64.9695 27.5856 65.7099 27.9091C66.4503 28.2327 67.2496 28.3997 68.0576 28.3997C68.8657 28.3997 69.665 28.2327 70.4053 27.9091C71.1457 27.5856 71.8113 27.1124 72.3601 26.5194C72.909 25.9264 73.3293 25.2264 73.5948 24.4632C73.8602 23.7 73.965 22.8902 73.9026 22.0846Z" fill="#FBBC04"/>
<path d="M101.15 12.2498V31.0798C101.15 38.8148 96.5475 41.9998 91.1225 41.9998C89.126 42.0107 87.1713 41.4275 85.5072 40.3244C83.8431 39.2212 82.5448 37.648 81.7775 35.8048L85.82 34.0548C86.2274 35.1277 86.9434 36.056 87.8777 36.7225C88.8121 37.389 89.9229 37.7639 91.07 37.7998C94.57 37.7998 96.705 35.6473 96.705 31.6398V30.1348H96.6C95.9 30.9247 95.0366 31.5529 94.0696 31.976C93.1026 32.399 92.0552 32.6067 91 32.5848C88.2152 32.5848 85.5445 31.4785 83.5754 29.5094C81.6062 27.5402 80.5 24.8695 80.5 22.0848C80.5 19.3 81.6062 16.6293 83.5754 14.6601C85.5445 12.691 88.2152 11.5848 91 11.5848C92.0516 11.5653 93.0952 11.7707 94.0609 12.1872C95.0267 12.6037 95.8924 13.2217 96.6 13.9998H96.7575V12.2498H101.15ZM97.0725 22.1548C97.1368 21.3613 97.0407 20.5631 96.7901 19.8076C96.5394 19.0521 96.1393 18.3547 95.6135 17.7571C95.0877 17.1595 94.447 16.6738 93.7296 16.3289C93.0121 15.984 92.2326 15.7871 91.4375 15.7498C90.6299 15.7788 89.8361 15.9684 89.1025 16.3073C88.3688 16.6463 87.71 17.1278 87.1643 17.724C86.6187 18.3201 86.1971 19.0189 85.9243 19.7796C85.6514 20.5403 85.5327 21.3477 85.575 22.1548C85.5375 22.9563 85.6601 23.7573 85.9358 24.511C86.2114 25.2646 86.6345 25.9557 87.1803 26.5439C87.7262 27.1321 88.3838 27.6056 89.1148 27.9367C89.8457 28.2678 90.6354 28.4499 91.4375 28.4723C92.2295 28.4441 93.0075 28.2557 93.7246 27.9184C94.4418 27.5811 95.083 27.1019 95.6097 26.5098C96.1364 25.9177 96.5376 25.2249 96.789 24.4734C97.0404 23.7218 97.1369 22.9271 97.0725 22.1373V22.1548Z" fill="#4285F4"/>
<path d="M109.253 1.11914V31.9541H104.633V1.11914H109.253Z" fill="#34A853"/>
<path d="M127.453 25.5493L131.058 27.9993C130.095 29.4357 128.793 30.6121 127.267 31.4242C125.74 32.2362 124.037 32.6588 122.308 32.6543C120.932 32.674 119.567 32.4144 118.295 31.8912C117.023 31.368 115.87 30.5921 114.907 29.6105C113.943 28.6289 113.188 27.462 112.689 26.1804C112.189 24.8988 111.955 23.5291 112 22.1543C111.795 19.7908 112.467 17.4346 113.888 15.5348C115.309 13.6349 117.379 12.3244 119.704 11.8529C122.029 11.3814 124.446 11.7819 126.495 12.9782C128.544 14.1744 130.081 16.0827 130.813 18.3393L131.285 19.5468L117.285 25.3393C117.721 26.3199 118.441 27.1473 119.352 27.715C120.263 28.2826 121.323 28.5645 122.395 28.5243C123.422 28.501 124.426 28.2154 125.311 27.6947C126.196 27.174 126.933 26.4354 127.453 25.5493ZM116.41 21.7693L125.825 17.8843C125.448 17.1874 124.877 16.6147 124.182 16.2357C123.486 15.8568 122.695 15.6878 121.905 15.7493C121.149 15.783 120.407 15.9655 119.721 16.2865C119.035 16.6074 118.419 17.0604 117.909 17.6196C117.399 18.1788 117.004 18.8331 116.746 19.5452C116.489 20.2572 116.375 21.013 116.41 21.7693Z" fill="#EA4335"/>
</g>
<defs>
<clipPath id="clip0_129_2125">
<rect width="242.113" height="42" fill="white"/>
</clipPath>
</defs>
</svg>
