<svg width="148" height="42" viewBox="0 0 148 42" fill="none" xmlns="http://www.w3.org/2000/svg">
<g clip-path="url(#clip0_30_569)">
<path d="M38.3834 19.7245V25.8938H35.0635V9.26953H41.1146C43.077 9.26953 44.5556 9.7405 45.5533 10.6825C46.5499 11.6244 47.0488 12.9042 47.0488 14.5207C47.0488 16.1064 46.5341 17.3696 45.5067 18.3112C44.4782 19.2532 43.0139 19.7242 41.115 19.7242H38.3834V19.7245ZM43.6815 14.5211C43.6815 13.6891 43.4541 13.0535 42.9989 12.6133C42.543 12.1739 41.7976 11.9545 40.7621 11.9545H38.3834V17.0637H40.7621C42.708 17.0637 43.6815 16.2161 43.6815 14.5211Z" fill="#696E78"/>
<path d="M58.433 13.4846C59.4453 14.019 60.2424 14.7919 60.8234 15.8046C61.4037 16.817 61.6938 18.0058 61.6938 19.3718C61.6938 20.737 61.4037 21.9225 60.8234 22.9272C60.2424 23.9319 59.4453 24.7047 58.433 25.2465C57.4206 25.7879 56.2787 26.0593 55.007 26.0593C53.736 26.0593 52.5934 25.7882 51.5811 25.2465C50.5687 24.7051 49.7716 23.9319 49.1914 22.9272C48.6103 21.9225 48.3198 20.7374 48.3198 19.3718C48.3198 18.0058 48.61 16.817 49.1914 15.8046C49.7716 14.7922 50.5687 14.019 51.5811 13.4846C52.5934 12.9509 53.736 12.6846 55.007 12.6846C56.2787 12.6846 57.4206 12.9512 58.433 13.4846ZM52.6529 16.5342C52.0084 17.186 51.6871 18.132 51.6871 19.3718C51.6871 20.6116 52.008 21.5575 52.6529 22.2086C53.2959 22.8604 54.0808 23.1861 55.007 23.1861C55.9332 23.1861 56.7181 22.8604 57.3619 22.2086C58.0056 21.5575 58.3277 20.6119 58.3277 19.3718C58.3277 18.1316 58.0056 17.186 57.3619 16.5342C56.7181 15.8831 55.9332 15.5574 55.007 15.5574C54.0808 15.5574 53.2959 15.8831 52.6529 16.5342Z" fill="#696E78"/>
<path d="M64.0022 7.7983C64.379 7.46121 64.8738 7.29248 65.4856 7.29248C66.0978 7.29248 66.5926 7.46121 66.969 7.7983C67.3457 8.13613 67.5342 8.57225 67.5342 9.10485C67.5342 9.62351 67.3457 10.0516 66.969 10.3887C66.5922 10.7265 66.0974 10.8952 65.4856 10.8952C64.8734 10.8952 64.3786 10.7265 64.0022 10.3887C63.6255 10.0516 63.437 9.62351 63.437 9.10485C63.437 8.57188 63.6255 8.13576 64.0022 7.7983ZM67.134 12.8488V25.8938H63.8141V12.8488H67.134Z" fill="#696E78"/>
<path d="M81.2856 14.1445C82.1798 15.133 82.627 16.5225 82.627 18.3117V25.8939H79.3309V18.6884C79.3309 17.653 79.0638 16.8482 78.5301 16.2749C77.9964 15.7023 77.2661 15.4155 76.3403 15.4155C75.3984 15.4155 74.6453 15.7225 74.0797 16.3343C73.5141 16.9461 73.232 17.8257 73.232 18.9712V25.8939H69.9121V12.8489H73.232V15.4631C73.5768 14.5839 74.1461 13.8973 74.9391 13.4024C75.7322 12.9084 76.6462 12.6611 77.6825 12.6611C79.19 12.6611 80.3906 13.1556 81.2856 14.1445Z" fill="#696E78"/>
<path d="M92.2807 23.0452V25.8942H90.5388C89.0782 25.8942 87.9605 25.5413 87.1833 24.8349C86.4064 24.1284 86.0176 22.951 86.0176 21.3025V15.6508H84.2041V12.8488H86.0176V9.62354H89.3375V12.8488H92.2576V15.6508H89.3375V21.3491C89.3375 21.9771 89.463 22.4173 89.7142 22.6678C89.9655 22.919 90.3891 23.0452 90.9859 23.0452H92.2807Z" fill="#696E78"/>
<path d="M24.711 8.70563C24.711 6.63833 23.0351 4.9624 20.9678 4.9624H11.4881C10.3903 4.9624 9.31191 5.25145 8.36152 5.80018L3.24902 8.75222C2.07929 9.4275 1.35889 10.6757 1.35889 12.0263V41.0111C1.35889 41.2608 1.52065 41.482 1.75907 41.558C1.99749 41.6335 2.25719 41.5462 2.40134 41.3419L7.88688 33.5694L14.2421 33.569C15.3399 33.569 16.4183 33.2803 17.3691 32.7316L22.8209 29.5837C23.9906 28.9084 24.7114 27.6602 24.7114 26.3096V8.70563H24.711ZM18.1827 26.6709C18.1827 27.1932 17.7594 27.6165 17.2371 27.6165H8.8325C8.31017 27.6165 7.88651 27.1932 7.88651 26.6709V11.8601C7.88651 11.3378 8.3098 10.9145 8.8325 10.9145H17.2371C17.7594 10.9145 18.1827 11.3382 18.1827 11.8601V26.6709Z" fill="#696E78"/>
<path d="M116.922 9.44111L112.232 26H110.384L106.215 11.8811L101.951 26L100.15 26.0237L95.5544 9.44111H97.3311L101.121 23.9627L105.362 9.44111H107.21L111.332 23.9627L115.146 9.44111H116.922ZM130.925 18.8695C130.925 19.438 130.909 19.8723 130.877 20.1724H120.146C120.193 21.1516 120.43 21.9886 120.857 22.6835C121.283 23.3784 121.844 23.9074 122.538 24.2707C123.233 24.6181 123.991 24.7918 124.813 24.7918C125.887 24.7918 126.787 24.5313 127.513 24.0101C128.256 23.4889 128.745 22.7861 128.982 21.9017H130.735C130.419 23.1652 129.74 24.1996 128.698 25.005C127.671 25.7947 126.376 26.1895 124.813 26.1895C123.597 26.1895 122.507 25.921 121.544 25.3841C120.58 24.8313 119.822 24.0575 119.269 23.0625C118.732 22.0518 118.464 20.8752 118.464 19.5328C118.464 18.1904 118.732 17.0138 119.269 16.0031C119.806 14.9923 120.556 14.2185 121.52 13.6815C122.483 13.1446 123.581 12.8761 124.813 12.8761C126.044 12.8761 127.118 13.1446 128.034 13.6815C128.966 14.2185 129.677 14.945 130.166 15.8609C130.672 16.7611 130.925 17.764 130.925 18.8695ZM129.243 18.8221C129.258 17.8587 129.061 17.0375 128.65 16.3584C128.256 15.6793 127.711 15.1661 127.016 14.8186C126.321 14.4712 125.563 14.2974 124.742 14.2974C123.51 14.2974 122.46 14.6923 121.591 15.4819C120.722 16.2716 120.241 17.385 120.146 18.8221H129.243ZM135.356 15.932C135.783 15.0318 136.438 14.2974 137.322 13.7289C138.223 13.1604 139.281 12.8761 140.497 12.8761C141.681 12.8761 142.739 13.1525 143.671 13.7052C144.603 14.2422 145.329 15.016 145.85 16.0268C146.387 17.0217 146.656 18.1825 146.656 19.5091C146.656 20.8357 146.387 22.0044 145.85 23.0151C145.329 24.0259 144.595 24.8076 143.647 25.3604C142.716 25.9131 141.665 26.1895 140.497 26.1895C139.265 26.1895 138.199 25.9131 137.299 25.3604C136.414 24.7918 135.767 24.0575 135.356 23.1573V26H133.722V8.46985H135.356V15.932ZM144.974 19.5091C144.974 18.4352 144.761 17.5113 144.334 16.7374C143.924 15.9478 143.355 15.3477 142.629 14.9371C141.902 14.5264 141.081 14.3211 140.165 14.3211C139.281 14.3211 138.467 14.5343 137.725 14.9607C136.999 15.3872 136.422 15.9952 135.996 16.7848C135.569 17.5745 135.356 18.4905 135.356 19.5328C135.356 20.5751 135.569 21.4911 135.996 22.2808C136.422 23.0704 136.999 23.6784 137.725 24.1048C138.467 24.5313 139.281 24.7445 140.165 24.7445C141.081 24.7445 141.902 24.5392 142.629 24.1285C143.355 23.7021 143.924 23.0941 144.334 22.3045C144.761 21.499 144.974 20.5672 144.974 19.5091Z" fill="#696E78"/>
</g>
<defs>
<clipPath id="clip0_30_569">
<rect width="146.992" height="42" fill="white" transform="translate(0.879883)"/>
</clipPath>
</defs>
</svg>
