<svg width="230" height="52" viewBox="0 0 230 52" fill="none" xmlns="http://www.w3.org/2000/svg">
<g clip-path="url(#clip0_83_88)">
<path d="M46.2867 24.2221V31.7976H42.21V11.3838H49.6405C52.0503 11.3838 53.8659 11.9621 55.091 13.1188C56.3148 14.2755 56.9274 15.847 56.9274 17.832C56.9274 19.7791 56.2954 21.3304 55.0338 22.4866C53.7709 23.6433 51.9728 24.2216 49.641 24.2216H46.2867V24.2221ZM52.7925 17.8324C52.7925 16.8109 52.5133 16.0303 51.9543 15.4898C51.3944 14.9502 50.4792 14.6809 49.2077 14.6809H46.2867V20.9547H49.2077C51.5971 20.9547 52.7925 19.9138 52.7925 17.8324Z" fill="white"/>
<path d="M70.9068 16.5595C72.1499 17.2158 73.1287 18.1648 73.8421 19.4084C74.5547 20.6516 74.911 22.1114 74.911 23.7887C74.911 25.4652 74.5547 26.9209 73.8421 28.1546C73.1287 29.3883 72.1499 30.3374 70.9068 31.0026C69.6636 31.6674 68.2615 32.0008 66.6999 32.0008C65.1392 32.0008 63.7361 31.6679 62.493 31.0026C61.2498 30.3378 60.271 29.3883 59.5585 28.1546C58.845 26.9209 58.4883 25.4656 58.4883 23.7887C58.4883 22.1114 58.8446 20.6516 59.5585 19.4084C60.271 18.1653 61.2498 17.2158 62.493 16.5595C63.7361 15.9042 65.1392 15.5771 66.6999 15.5771C68.2615 15.5771 69.6636 15.9046 70.9068 16.5595ZM63.8091 20.3043C63.0177 21.1047 62.6231 22.2663 62.6231 23.7887C62.6231 25.3111 63.0172 26.4728 63.8091 27.2723C64.5987 28.0727 65.5626 28.4726 66.6999 28.4726C67.8372 28.4726 68.8011 28.0727 69.5915 27.2723C70.382 26.4728 70.7775 25.3116 70.7775 23.7887C70.7775 22.2659 70.382 21.1047 69.5915 20.3043C68.8011 19.5048 67.8372 19.1048 66.6999 19.1048C65.5626 19.1048 64.5987 19.5048 63.8091 20.3043Z" fill="white"/>
<path d="M77.7454 9.57718C78.2079 9.16325 78.8156 8.95605 79.5669 8.95605C80.3186 8.95605 80.9262 9.16325 81.3883 9.57718C81.8509 9.99202 82.0824 10.5276 82.0824 11.1816C82.0824 11.8185 81.8509 12.3441 81.3883 12.758C80.9258 13.1729 80.3182 13.3801 79.5669 13.3801C78.8151 13.3801 78.2075 13.1729 77.7454 12.758C77.2828 12.3441 77.0513 11.8185 77.0513 11.1816C77.0513 10.5271 77.2828 9.99157 77.7454 9.57718ZM81.591 15.779V31.7977H77.5143V15.779H81.591Z" fill="white"/>
<path d="M98.969 17.3703C100.067 18.5842 100.616 20.2904 100.616 22.4875V31.7981H96.5688V22.9501C96.5688 21.6786 96.2409 20.6903 95.5855 19.9863C94.9301 19.2832 94.0334 18.931 92.8965 18.931C91.7398 18.931 90.8151 19.308 90.1206 20.0593C89.426 20.8106 89.0797 21.8907 89.0797 23.2974V31.7981H85.0029V15.7794H89.0797V18.9896C89.5031 17.9099 90.2021 17.0667 91.1759 16.4591C92.1497 15.8524 93.2722 15.5488 94.5446 15.5488C96.3958 15.5488 97.87 16.156 98.969 17.3703Z" fill="white"/>
<path d="M112.47 28.2996V31.798H110.331C108.538 31.798 107.165 31.3647 106.211 30.4972C105.257 29.6297 104.78 28.1839 104.78 26.1597V19.2196H102.553V15.7789H104.78V11.8184H108.856V15.7789H112.442V19.2196H108.856V26.2169C108.856 26.988 109.01 27.5285 109.319 27.8361C109.627 28.1447 110.148 28.2996 110.881 28.2996H112.47Z" fill="white"/>
<path d="M29.4972 10.6903C29.4972 8.15171 27.4392 6.09375 24.9007 6.09375H13.2601C11.912 6.09375 10.5877 6.44868 9.42071 7.12251L3.14278 10.7475C1.7064 11.5767 0.821777 13.1095 0.821777 14.7679V50.36C0.821777 50.6667 1.02041 50.9383 1.31318 51.0315C1.60595 51.1243 1.92485 51.0171 2.10186 50.7663L8.83787 41.2219L16.6418 41.2214C17.9899 41.2214 19.3142 40.867 20.4816 40.1931L27.1762 36.3276C28.6126 35.4984 29.4977 33.9656 29.4977 32.3072V10.6903H29.4972ZM21.4807 32.7509C21.4807 33.3923 20.9609 33.912 20.3195 33.912H9.99905C9.35766 33.912 8.83742 33.3923 8.83742 32.7509V14.5639C8.83742 13.9225 9.35721 13.4027 9.99905 13.4027H20.3195C20.9609 13.4027 21.4807 13.9229 21.4807 14.5639V32.7509Z" fill="#1FAAC5"/>
<path d="M133.391 32H131.355L120.097 14.8953V32H118.061V11.6664H120.097L131.355 28.742V11.6664H133.391V32ZM152.083 23.244C152.083 23.9422 152.063 24.4755 152.024 24.844H138.847C138.905 26.0463 139.196 27.0742 139.72 27.9275C140.243 28.7808 140.932 29.4304 141.785 29.8765C142.638 30.3031 143.569 30.5164 144.578 30.5164C145.896 30.5164 147.002 30.1964 147.894 29.5565C148.805 28.9165 149.406 28.0535 149.697 26.9675H151.85C151.462 28.5189 150.628 29.7892 149.348 30.7782C148.088 31.7479 146.497 32.2327 144.578 32.2327C143.084 32.2327 141.746 31.903 140.563 31.2437C139.38 30.5649 138.449 29.6147 137.771 28.3929C137.111 27.1517 136.782 25.707 136.782 24.0585C136.782 22.4101 137.111 20.9654 137.771 19.7242C138.43 18.483 139.351 17.5328 140.534 16.8734C141.717 16.2141 143.065 15.8844 144.578 15.8844C146.09 15.8844 147.409 16.2141 148.534 16.8734C149.678 17.5328 150.551 18.4249 151.152 19.5497C151.772 20.6551 152.083 21.8865 152.083 23.244ZM150.017 23.1859C150.037 22.0029 149.794 20.9944 149.29 20.1605C148.805 19.3266 148.136 18.6964 147.283 18.2697C146.43 17.8431 145.499 17.6298 144.49 17.6298C142.978 17.6298 141.688 18.1146 140.621 19.0842C139.555 20.0539 138.963 21.4211 138.847 23.1859H150.017ZM158.164 17.8334V27.6947C158.164 28.6644 158.349 29.3335 158.717 29.7019C159.086 30.0704 159.735 30.2546 160.666 30.2546H162.528V32H160.346C158.911 32 157.844 31.6703 157.146 31.011C156.448 30.3322 156.099 29.2268 156.099 27.6947V17.8334H153.888V16.1171H156.099V12.1318H158.164V16.1171H162.528V17.8334H158.164ZM186.54 16.1171L181.565 32H179.529L175.137 18.677L170.744 32H168.679L163.704 16.1171H165.77L169.726 29.9346L174.177 16.1171H176.213L180.605 29.9637L184.533 16.1171H186.54ZM195.977 32.2327C194.484 32.2327 193.136 31.903 191.934 31.2437C190.751 30.5649 189.81 29.6147 189.112 28.3929C188.433 27.1517 188.094 25.707 188.094 24.0585C188.094 22.4101 188.443 20.9751 189.141 19.7533C189.839 18.5121 190.79 17.5619 191.992 16.9025C193.194 16.2238 194.542 15.8844 196.035 15.8844C197.529 15.8844 198.876 16.2238 200.079 16.9025C201.301 17.5619 202.251 18.5121 202.93 19.7533C203.628 20.9751 203.977 22.4101 203.977 24.0585C203.977 25.6876 203.628 27.1226 202.93 28.3638C202.231 29.605 201.272 30.5649 200.05 31.2437C198.828 31.903 197.47 32.2327 195.977 32.2327ZM195.977 30.4583C197.024 30.4583 197.994 30.2255 198.886 29.7601C199.778 29.2753 200.496 28.5577 201.039 27.6075C201.601 26.6378 201.882 25.4548 201.882 24.0585C201.882 22.6622 201.611 21.489 201.068 20.5387C200.525 19.5691 199.807 18.8515 198.915 18.3861C198.023 17.9013 197.054 17.6588 196.006 17.6588C194.959 17.6588 193.989 17.9013 193.097 18.3861C192.205 18.8515 191.488 19.5691 190.945 20.5387C190.421 21.489 190.159 22.6622 190.159 24.0585C190.159 25.4548 190.421 26.6378 190.945 27.6075C191.488 28.5577 192.196 29.2753 193.068 29.7601C193.96 30.2255 194.93 30.4583 195.977 30.4583ZM209.434 18.9388C209.88 17.9497 210.559 17.1837 211.47 16.6407C212.401 16.0977 213.536 15.8262 214.874 15.8262V17.9497H214.321C212.847 17.9497 211.664 18.3473 210.772 19.1424C209.88 19.9375 209.434 21.2659 209.434 23.1277V32H207.398V16.1171H209.434V18.9388ZM226.228 32L219.683 24.8731V32H217.646V10.4737H219.683V23.215L226.082 16.1171H228.933L221.399 24.0295L228.991 32H226.228Z" fill="white"/>
</g>
<defs>
<clipPath id="clip0_83_88">
<rect width="229.734" height="51.6923" fill="white"/>
</clipPath>
</defs>
</svg>
