<svg width="154" height="42" viewBox="0 0 154 42" fill="none" xmlns="http://www.w3.org/2000/svg">
<g clip-path="url(#clip0_30_580)">
<path d="M38.2748 19.6768V25.8311H34.9629V9.24707H40.9994C42.9571 9.24707 44.4321 9.7169 45.4274 10.6566C46.4216 11.5962 46.9192 12.8729 46.9192 14.4855C46.9192 16.0674 46.4058 17.3276 45.3809 18.2669C44.3549 19.2066 42.8941 19.6764 40.9998 19.6764H38.2748V19.6768ZM43.5601 14.4859C43.5601 13.656 43.3332 13.0219 42.8791 12.5828C42.4243 12.1444 41.6807 11.9256 40.6478 11.9256H38.2748V17.0224H40.6478C42.589 17.0224 43.5601 16.1768 43.5601 14.4859Z" fill="#696E78"/>
<path d="M58.2757 13.4519C59.2856 13.985 60.0808 14.756 60.6604 15.7663C61.2392 16.7762 61.5287 17.9622 61.5287 19.3248C61.5287 20.6868 61.2392 21.8694 60.6604 22.8717C60.0808 23.8739 59.2856 24.6449 58.2757 25.1853C57.2658 25.7254 56.1267 25.9962 54.858 25.9962C53.5901 25.9962 52.4503 25.7258 51.4404 25.1853C50.4304 24.6452 49.6353 23.8739 49.0564 22.8717C48.4768 21.8694 48.187 20.6871 48.187 19.3248C48.187 17.9622 48.4765 16.7762 49.0564 15.7663C49.6353 14.7564 50.4304 13.985 51.4404 13.4519C52.4503 12.9195 53.5901 12.6538 54.858 12.6538C56.1267 12.6538 57.2658 12.9198 58.2757 13.4519ZM52.5096 16.4941C51.8667 17.1443 51.5461 18.088 51.5461 19.3248C51.5461 20.5616 51.8663 21.5053 52.5096 22.1548C53.151 22.805 53.9341 23.13 54.858 23.13C55.782 23.13 56.565 22.805 57.2072 22.1548C57.8494 21.5053 58.1707 20.562 58.1707 19.3248C58.1707 18.0877 57.8494 17.1443 57.2072 16.4941C56.565 15.8446 55.782 15.5197 54.858 15.5197C53.9341 15.5197 53.151 15.8446 52.5096 16.4941Z" fill="#696E78"/>
<path d="M63.8314 7.7795C64.2072 7.44322 64.7009 7.2749 65.3112 7.2749C65.9219 7.2749 66.4156 7.44322 66.791 7.7795C67.1668 8.11651 67.3549 8.55158 67.3549 9.08289C67.3549 9.60029 67.1668 10.0273 66.791 10.3636C66.4152 10.7006 65.9216 10.8689 65.3112 10.8689C64.7005 10.8689 64.2069 10.7006 63.8314 10.3636C63.4557 10.0273 63.2676 9.60029 63.2676 9.08289C63.2676 8.55121 63.4557 8.11614 63.8314 7.7795ZM66.9556 12.8178V25.8312H63.6437V12.8178H66.9556Z" fill="#696E78"/>
<path d="M81.0735 14.1101C81.9656 15.0963 82.4117 16.4824 82.4117 18.2673V25.8312H79.1235V18.6431C79.1235 17.6101 78.8571 16.8073 78.3247 16.2354C77.7923 15.6642 77.0638 15.378 76.1402 15.378C75.2005 15.378 74.4493 15.6843 73.8851 16.2947C73.3208 16.905 73.0394 17.7825 73.0394 18.9252V25.8312H69.7275V12.8177H73.0394V15.4256C73.3834 14.5485 73.9513 13.8635 74.7424 13.3699C75.5335 12.877 76.4454 12.6304 77.4791 12.6304C78.983 12.6304 80.1807 13.1236 81.0735 14.1101Z" fill="#696E78"/>
<path d="M92.042 22.9893V25.8314H90.3042C88.8472 25.8314 87.7322 25.4794 86.9568 24.7746C86.1818 24.0699 85.794 22.8953 85.794 21.2509V15.6128H83.9849V12.8176H85.794V9.6001H89.1059V12.8176H92.0189V15.6128H89.1059V21.2973C89.1059 21.9238 89.231 22.3629 89.4817 22.6128C89.7323 22.8635 90.1549 22.9893 90.7503 22.9893H92.042Z" fill="#696E78"/>
<path d="M24.635 8.68437C24.635 6.62207 22.9632 4.9502 20.9009 4.9502H11.4441C10.3489 4.9502 9.27315 5.23854 8.32506 5.78595L3.22492 8.73085C2.05801 9.4045 1.33936 10.6497 1.33936 11.997V40.9117C1.33936 41.1609 1.50072 41.3815 1.73857 41.4573C1.97641 41.5326 2.23548 41.4456 2.37929 41.2417L7.85156 33.488L14.1914 33.4876C15.2866 33.4876 16.3624 33.1996 17.3109 32.6522L22.7495 29.5119C23.9164 28.8383 24.6354 27.5931 24.6354 26.2458V8.68437H24.635ZM18.1225 26.6062C18.1225 27.1273 17.7002 27.5495 17.1791 27.5495H8.79489C8.27383 27.5495 7.8512 27.1273 7.8512 26.6062V11.8312C7.8512 11.3102 8.27346 10.8879 8.79489 10.8879H17.1791C17.7002 10.8879 18.1225 11.3106 18.1225 11.8312V26.6062Z" fill="#696E78"/>
<path d="M101.593 26.1654C100.506 26.1654 99.5453 25.9764 98.7103 25.5983C97.8911 25.2201 97.2451 24.6924 96.7725 24.0149C96.2999 23.3374 96.0478 22.5812 96.0163 21.7462H97.765C97.8438 22.5497 98.1983 23.2587 98.8285 23.8731C99.4587 24.4718 100.38 24.7711 101.593 24.7711C102.712 24.7711 103.594 24.4875 104.24 23.9204C104.902 23.3374 105.233 22.6049 105.233 21.7226C105.233 21.0136 105.052 20.4465 104.689 20.0211C104.327 19.5799 103.878 19.257 103.342 19.0522C102.807 18.8316 102.066 18.5953 101.121 18.3432C100.018 18.0439 99.1436 17.7524 98.4976 17.4688C97.8517 17.1852 97.3003 16.7441 96.8434 16.1454C96.3865 15.5467 96.1581 14.7354 96.1581 13.7113C96.1581 12.8605 96.3786 12.1043 96.8198 11.4426C97.2609 10.7652 97.8832 10.2374 98.6867 9.85927C99.4902 9.48115 100.412 9.29209 101.452 9.29209C102.98 9.29209 104.209 9.67021 105.138 10.4264C106.084 11.1669 106.627 12.1279 106.769 13.3096H104.973C104.863 12.6321 104.492 12.0334 103.862 11.5135C103.232 10.9779 102.381 10.71 101.31 10.71C100.317 10.71 99.4902 10.9779 98.8285 11.5135C98.1668 12.0334 97.8359 12.7503 97.8359 13.664C97.8359 14.3572 98.0171 14.9165 98.3795 15.3419C98.7418 15.7673 99.1909 16.0903 99.7265 16.3108C100.278 16.5314 101.018 16.7677 101.948 17.0198C103.019 17.3191 103.886 17.6185 104.547 17.9178C105.209 18.2014 105.768 18.6425 106.225 19.2412C106.682 19.8399 106.911 20.6434 106.911 21.6517C106.911 22.4237 106.706 23.1563 106.296 23.8495C105.887 24.5427 105.28 25.102 104.477 25.5274C103.673 25.9527 102.712 26.1654 101.593 26.1654ZM109.115 19.5248C109.115 18.2014 109.375 17.0434 109.895 16.0509C110.43 15.0426 111.163 14.2706 112.092 13.7349C113.038 13.1835 114.101 12.9078 115.283 12.9078C116.512 12.9078 117.567 13.1914 118.449 13.7586C119.347 14.3257 119.993 15.0505 120.387 15.9327V13.0969H122.042V26H120.387V23.1405C119.978 24.0228 119.324 24.7554 118.426 25.3383C117.544 25.9055 116.488 26.1891 115.259 26.1891C114.093 26.1891 113.038 25.9133 112.092 25.3619C111.163 24.8105 110.43 24.0307 109.895 23.0224C109.375 22.014 109.115 20.8482 109.115 19.5248ZM120.387 19.5484C120.387 18.5086 120.175 17.5948 119.749 16.8071C119.324 16.0194 118.741 15.4128 118 14.9874C117.276 14.5621 116.472 14.3494 115.59 14.3494C114.676 14.3494 113.857 14.5542 113.132 14.9638C112.407 15.3734 111.832 15.9721 111.407 16.7598C110.997 17.5318 110.793 18.4535 110.793 19.5248C110.793 20.5804 110.997 21.5099 111.407 22.3134C111.832 23.1011 112.407 23.7077 113.132 24.1331C113.857 24.5427 114.676 24.7475 115.59 24.7475C116.472 24.7475 117.276 24.5348 118 24.1094C118.741 23.6841 119.324 23.0775 119.749 22.2898C120.175 21.502 120.387 20.5882 120.387 19.5484ZM124.825 19.5248C124.825 18.2014 125.085 17.0434 125.605 16.0509C126.141 15.0426 126.874 14.2706 127.803 13.7349C128.748 13.1835 129.812 12.9078 130.993 12.9078C132.222 12.9078 133.278 13.1914 134.16 13.7586C135.058 14.3257 135.704 15.0505 136.098 15.9327V13.0969H137.752V26H136.098V23.1405C135.688 24.0228 135.035 24.7554 134.137 25.3383C133.254 25.9055 132.199 26.1891 130.97 26.1891C129.804 26.1891 128.748 25.9133 127.803 25.3619C126.874 24.8105 126.141 24.0307 125.605 23.0224C125.085 22.014 124.825 20.8482 124.825 19.5248ZM136.098 19.5484C136.098 18.5086 135.885 17.5948 135.46 16.8071C135.035 16.0194 134.452 15.4128 133.711 14.9874C132.986 14.5621 132.183 14.3494 131.301 14.3494C130.387 14.3494 129.568 14.5542 128.843 14.9638C128.118 15.3734 127.543 15.9721 127.118 16.7598C126.708 17.5318 126.503 18.4535 126.503 19.5248C126.503 20.5804 126.708 21.5099 127.118 22.3134C127.543 23.1011 128.118 23.7077 128.843 24.1331C129.568 24.5427 130.387 24.7475 131.301 24.7475C132.183 24.7475 132.986 24.5348 133.711 24.1094C134.452 23.6841 135.035 23.0775 135.46 22.2898C135.885 21.502 136.098 20.5882 136.098 19.5484ZM146.302 26.1654C145.215 26.1654 144.254 25.9764 143.419 25.5983C142.6 25.2201 141.954 24.6924 141.482 24.0149C141.009 23.3374 140.757 22.5812 140.725 21.7462H142.474C142.553 22.5497 142.907 23.2587 143.537 23.8731C144.168 24.4718 145.089 24.7711 146.302 24.7711C147.421 24.7711 148.303 24.4875 148.949 23.9204C149.611 23.3374 149.942 22.6049 149.942 21.7226C149.942 21.0136 149.761 20.4465 149.398 20.0211C149.036 19.5799 148.587 19.257 148.051 19.0522C147.516 18.8316 146.775 18.5953 145.83 18.3432C144.727 18.0439 143.853 17.7524 143.207 17.4688C142.561 17.1852 142.009 16.7441 141.552 16.1454C141.096 15.5467 140.867 14.7354 140.867 13.7113C140.867 12.8605 141.088 12.1043 141.529 11.4426C141.97 10.7652 142.592 10.2374 143.396 9.85927C144.199 9.48115 145.121 9.29209 146.161 9.29209C147.689 9.29209 148.918 9.67021 149.847 10.4264C150.793 11.1669 151.336 12.1279 151.478 13.3096H149.682C149.572 12.6321 149.201 12.0334 148.571 11.5135C147.941 10.9779 147.09 10.71 146.019 10.71C145.026 10.71 144.199 10.9779 143.537 11.5135C142.876 12.0334 142.545 12.7503 142.545 13.664C142.545 14.3572 142.726 14.9165 143.088 15.3419C143.451 15.7673 143.9 16.0903 144.436 16.3108C144.987 16.5314 145.727 16.7677 146.657 17.0198C147.728 17.3191 148.595 17.6185 149.256 17.9178C149.918 18.2014 150.477 18.6425 150.934 19.2412C151.391 19.8399 151.62 20.6434 151.62 21.6517C151.62 22.4237 151.415 23.1563 151.005 23.8495C150.596 24.5427 149.989 25.102 149.186 25.5274C148.382 25.9527 147.421 26.1654 146.302 26.1654Z" fill="#696E78"/>
</g>
<defs>
<clipPath id="clip0_30_580">
<rect width="152.541" height="42" fill="white" transform="translate(0.644043)"/>
</clipPath>
</defs>
</svg>
