<svg width="275" height="426" viewBox="0 0 275 426" fill="none" xmlns="http://www.w3.org/2000/svg">
<path d="M240.644 1.72785e-05H119.291C106.358 -0.00884481 93.651 3.39144 82.4457 9.85925L22.2555 44.6978C15.4906 48.6051 9.87226 54.2278 5.96551 61.0002C2.05876 67.7726 0.00138014 75.4559 0.000317399 83.2774V419.193C-0.0134313 420.611 0.419799 421.998 1.23836 423.155C2.05692 424.313 3.21909 425.182 4.55952 425.639C5.89994 426.097 7.35034 426.12 8.70427 425.704C10.0582 425.288 11.2467 424.455 12.1006 423.324L76.882 337.396H151.701C164.625 337.39 177.319 333.976 188.508 327.498L252.706 290.36C259.486 286.458 265.118 280.832 269.033 274.051C272.947 267.27 275.006 259.575 275 251.742V34.3709C274.99 25.2516 271.366 16.5093 264.924 10.0646C258.482 3.61995 249.749 1.14305e-05 240.644 1.72785e-05ZM198.118 255.95C198.118 257.414 197.831 258.863 197.271 260.216C196.712 261.568 195.892 262.796 194.859 263.831C193.826 264.866 192.599 265.687 191.249 266.247C189.899 266.807 188.452 267.096 186.991 267.096H88.0095C85.0583 267.096 82.228 265.921 80.1411 263.831C78.0543 261.741 76.882 258.906 76.882 255.95V81.3289C76.882 78.3731 78.0543 75.5382 80.1411 73.448C82.228 71.3579 85.0583 70.1837 88.0095 70.1837H186.991C189.942 70.1837 192.772 71.3579 194.859 73.448C196.946 75.5382 198.118 78.3731 198.118 81.3289V255.95Z" fill="#5C5EDC"/>
</svg>
