<svg width="530" height="806" viewBox="0 0 530 806" fill="none" xmlns="http://www.w3.org/2000/svg">
<g clip-path="url(#clip0_183_1902)">
<rect width="545" height="806" fill="#5C5EDC"/>
<path d="M567.552 900.767C596.699 871.62 596.717 824.381 567.592 795.256L434.04 661.704C418.573 646.237 399.305 635.12 378.179 629.467L264.533 599.061C238.532 592.102 210.784 599.552 191.743 618.593L-216.91 1027.25C-220.432 1030.77 -221.271 1036.17 -218.983 1040.59C-216.689 1045.02 -211.8 1047.45 -206.888 1046.6L-20.0222 1014.29L69.5173 1103.82C84.9839 1119.29 104.247 1130.41 125.378 1136.07L246.566 1168.5C272.566 1175.45 300.319 1168.01 319.361 1148.97L567.557 900.772L567.552 900.767ZM222.289 1062.08C214.924 1069.45 202.993 1069.45 195.634 1062.09L77.2285 943.688C69.8698 936.329 69.8691 924.393 77.2333 917.029L286.049 708.213C293.413 700.849 305.344 700.845 312.708 708.209L431.114 826.614C438.473 833.973 438.463 845.91 431.104 853.269L222.289 1062.08Z" fill="#23BBD9"/>
<path d="M567.552 426.767C596.699 397.62 596.717 350.381 567.592 321.256L434.04 187.704C418.573 172.237 399.305 161.12 378.179 155.467L264.533 125.061C238.532 118.102 210.784 125.552 191.743 144.593L-216.91 553.246C-220.432 556.768 -221.271 562.165 -218.983 566.594C-216.689 571.019 -211.8 573.447 -206.888 572.597L-20.0222 540.294L69.5173 629.824C84.9839 645.29 104.247 656.413 125.378 662.071L246.566 694.496C272.566 701.454 300.319 694.01 319.361 674.969L567.557 426.772L567.552 426.767ZM222.289 588.084C214.924 595.448 202.993 595.453 195.634 588.094L77.2285 469.688C69.8698 462.329 69.8691 450.393 77.2333 443.029L286.049 234.213C293.413 226.849 305.344 226.845 312.708 234.209L431.114 352.614C438.473 359.973 438.463 371.91 431.104 379.269L222.289 588.084Z" fill="#23BBD9"/>
<path d="M567.552 -42.2331C596.699 -71.3797 596.717 -118.619 567.592 -147.744L434.04 -281.296C418.573 -296.763 399.305 -307.88 378.179 -313.533L264.533 -343.939C238.532 -350.898 210.784 -343.448 191.743 -324.407L-216.91 84.2459C-220.432 87.7677 -221.271 93.165 -218.983 97.5945C-216.689 102.019 -211.8 104.447 -206.888 103.597L-20.0222 71.2945L69.5173 160.824C84.9839 176.29 104.247 187.413 125.378 193.071L246.566 225.496C272.566 232.454 300.319 225.01 319.361 205.969L567.557 -42.2279L567.552 -42.2331ZM222.289 119.084C214.924 126.448 202.993 126.453 195.634 119.094L77.2285 0.688134C69.8698 -6.67056 69.8691 -18.6071 77.2333 -25.9714L286.049 -234.787C293.413 -242.151 305.344 -242.155 312.708 -234.791L431.114 -116.386C438.473 -109.027 438.463 -97.0904 431.104 -89.7314L222.289 119.084Z" fill="#23BBD9"/>
</g>
<defs>
<clipPath id="clip0_183_1902">
<rect width="545" height="806" fill="white"/>
</clipPath>
</defs>
</svg>
