<svg width="268" height="416" viewBox="0 0 268 416" fill="none" xmlns="http://www.w3.org/2000/svg">
<path d="M116.255 1.68729e-05H234.519C243.392 1.11622e-05 251.902 3.53497 258.18 9.82837C264.458 16.1218 267.99 24.6588 268 33.5641V245.832C268.006 253.481 266 260.996 262.185 267.618C258.37 274.24 252.881 279.733 246.273 283.544L183.71 319.81C172.806 326.136 160.435 329.47 147.84 329.476H74.925L11.7926 413.387C10.9604 414.491 9.80216 415.305 8.4827 415.711C7.16324 416.117 5.74976 416.095 4.44346 415.648C3.13715 415.201 2.00456 414.352 1.20684 413.222C0.409113 412.092 -0.0130894 410.738 0.00030932 409.353V81.3225C0.00134501 73.6846 2.00636 66.1817 5.81366 59.5682C9.62096 52.9548 15.0963 47.4641 21.689 43.6485L80.3471 9.62781C91.2672 3.31183 103.651 -0.00863719 116.255 1.68729e-05Z" fill="#D9D9D9"/>
</svg>
