<svg width="180" height="24" viewBox="0 0 180 24" fill="none" xmlns="http://www.w3.org/2000/svg">
<path d="M139.843 0.721854C135.588 0.580559 130.988 3.02958 128.806 7.6386C127.453 10.2399 126.42 13.1365 125.733 15.9794C125.671 16.2309 125.615 16.4821 125.561 16.7322C125.492 17.1363 125.487 17.655 125.523 18.1849C125.692 20.423 127.679 23.1285 130.954 23.2826H133.169H133.193H134.84C139.093 23.4239 143.691 20.9747 145.874 16.3657C147.228 13.7631 148.261 10.8642 148.947 8.0228C149.008 7.76983 149.067 7.51855 149.12 7.26988C149.19 6.86442 149.195 6.34706 149.157 5.81726C148.989 3.57769 147.001 0.874451 143.726 0.721854H141.485H139.843ZM66.8975 0.929386L68.6371 23.064H69.7189H71.9002H72.1253C72.1197 23.0628 72.1111 23.064 72.1054 23.064C72.1295 23.064 72.1535 23.064 72.1761 23.064H72.3108C73.0045 23.0425 73.6243 22.6803 73.993 22.1279H73.9953L88.2174 0.929386H84.5394L74.3507 16.145L73.1564 0.929386H66.8975ZM90.7585 0.929386L82.5966 23.064H88.8621L97.0218 0.929386H90.7585ZM105.46 0.929386C99.832 0.998338 97.3449 7.25902 100.419 11.2703C101.979 13.175 104.207 15.15 105.464 17.2355C106.261 18.363 105.409 20.244 103.886 20.2624H100.793H93.9487L92.9199 23.064H105.502C110.433 23.0493 113.769 17.2429 110.46 12.7893C108.933 10.5328 106.511 8.99287 105.078 6.78868C104.226 5.63855 105.082 3.75075 106.621 3.73097H109.811H115.869L116.9 0.929386H105.46ZM121.236 0.929386L113.079 23.064H119.342L127.502 0.929386H121.236ZM155.054 0.929386L146.859 23.064H150.087L155.734 7.8086L155.763 8.08237L160.836 21.7835C161.14 22.5041 161.838 23.0201 162.657 23.064H165.609L173.806 0.929386H170.579L165.039 15.8888L159.143 0.929386H158.282H155.054ZM141.273 3.01127C142.455 3.1017 143.393 4.09539 143.393 5.30069C143.402 5.5974 143.351 5.89017 143.24 6.15727L139.101 17.4298C138.266 19.5931 136.325 20.9187 134.019 20.9865H133.407C132.226 20.8961 131.288 19.9024 131.288 18.6971C131.279 18.4003 131.331 18.104 131.442 17.8383L135.58 6.56567C136.416 4.4024 138.357 3.07988 140.666 3.01342H141.273V3.01127Z" fill="#F1F5F9"/>
<path d="M8.8387 0.929421L0.676758 23.064H7.32861L11.2319 12.478H19.151L15.2477 23.064H20.4447C21.3235 23.064 22.0787 22.5092 22.3853 21.7349C22.3887 21.7236 22.3921 21.7202 22.3966 21.7146L30.0596 0.928856H23.4077L20.2661 9.4507H12.347L15.4886 0.928856L8.8387 0.929421ZM34.2871 0.929421L26.1274 23.064H32.777L40.9367 0.929421H40.7447H34.4814H34.2871ZM45.4626 0.929421L37.3028 23.064H43.9525L47.0808 14.5753L48.7432 13.2992L53.1543 21.8519L53.1565 21.8406C53.1622 21.8519 53.1645 21.8553 53.1678 21.861C53.5296 22.6113 54.3237 23.1059 55.2011 23.0466C55.1857 23.0466 55.1687 23.0579 55.1504 23.0579H60.7978L53.7728 9.43623L64.8533 0.927612H59.8837L49.0438 9.25074L52.1126 0.927612H45.4629L45.4626 0.929421Z" fill="#D71820"/>
<path d="M178.709 2.88613C178.709 4.11968 177.742 5.08614 176.483 5.08614C175.236 5.08614 174.243 4.11968 174.243 2.88613C174.243 1.67948 175.236 0.71167 176.483 0.71167C177.742 0.71167 178.709 1.67948 178.709 2.88613ZM174.8 2.88613C174.8 3.85405 175.515 4.62269 176.495 4.62269C177.451 4.62269 178.153 3.85405 178.153 2.8989C178.153 1.93245 177.451 1.14968 176.483 1.14968C175.515 1.14968 174.8 1.93245 174.8 2.88613ZM176.138 4.02643H175.635V1.85186C175.833 1.81229 176.111 1.78517 176.47 1.78517C176.88 1.78517 177.066 1.85186 177.224 1.94477C177.345 2.03746 177.436 2.2104 177.436 2.42235C177.436 2.66119 177.251 2.84623 176.986 2.92535V2.95248C177.198 3.03161 177.318 3.19121 177.384 3.48228C177.451 3.81438 177.49 3.94719 177.542 4.02632H177C176.933 3.94719 176.894 3.74791 176.827 3.49641C176.788 3.25768 176.655 3.15165 176.377 3.15165H176.138V4.02643ZM176.151 2.79288H176.389C176.668 2.79288 176.894 2.70132 176.894 2.47502C176.894 2.27721 176.748 2.14439 176.429 2.14439C176.298 2.14439 176.204 2.15683 176.151 2.17039V2.79288Z" fill="#6C6E71"/>
</svg>
