<svg width="118" height="24" viewBox="0 0 118 24" fill="none" xmlns="http://www.w3.org/2000/svg">
<path d="M93.5085 6.4884C88.8271 6.4884 85.0322 10.3158 85.0322 15.0365C85.0322 19.7567 88.8271 23.5841 93.5085 23.5841C95.0534 23.5841 96.5013 23.1658 97.7483 22.4379V23.5847H101.986V15.0363C101.986 10.3153 98.1905 6.4884 93.5085 6.4884ZM97.7463 15.0363V15.0787C97.7238 17.4195 95.8354 19.3102 93.5083 19.3102C91.1674 19.3102 89.2696 17.397 89.2696 15.0363C89.2696 12.6761 91.1674 10.7617 93.5083 10.7617C95.8496 10.7617 97.7463 12.6761 97.7463 15.0363Z" fill="#00B26B"/>
<path d="M32.5115 18.9871C32.0826 19.1935 31.6033 19.3113 31.0959 19.3113C29.2758 19.3113 27.7997 17.8229 27.7997 15.9871L27.8006 10.7633L31.0088 10.7626C31.0088 10.7618 31.5401 8.87876 31.5401 6.48926L27.8006 6.49001V1.48938C25.4303 1.48938 23.5615 2.12088 23.5615 2.12088C23.5615 2.12088 23.5626 4.68926 23.5621 6.48869L23.5615 15.9779C23.5615 15.9811 23.5615 15.9841 23.5615 15.9871C23.5615 20.1826 26.9349 23.5846 31.0957 23.5846C32.5199 23.5846 33.851 23.1848 34.9874 22.4918C33.9289 21.5253 33.0785 20.3314 32.5115 18.9871Z" fill="#00B26B"/>
<path d="M86.855 7.58115C85.7191 6.88853 84.3877 6.4884 82.9627 6.4884C78.8024 6.4884 75.4287 9.89059 75.4287 14.0857C75.4287 14.0891 75.4291 14.0919 75.4291 14.0949V23.5843H79.667L79.6674 14.0857C79.6674 12.2503 81.143 10.7617 82.9627 10.7617C83.4706 10.7617 83.9502 10.8793 84.3793 11.0859C84.9464 9.74115 85.7968 8.54772 86.855 7.58115Z" fill="#00B26B"/>
<path d="M3.3415 1.12903C2.06173 1.12903 1.02441 2.17528 1.02441 3.46528C1.02441 4.7564 2.06173 5.80265 3.3415 5.80265C4.62164 5.80265 5.65896 4.7564 5.65896 3.46528C5.65896 2.17528 4.62164 1.12903 3.3415 1.12903Z" fill="#00B26B"/>
<path d="M14.5931 6.48914C10.4323 6.48914 7.05859 9.89076 7.05859 14.0863C7.05859 14.0863 7.05897 14.0921 7.05897 14.0951V23.5848H11.2971V14.0863C11.2971 12.2504 12.773 10.7621 14.5933 10.7621C16.4143 10.7621 17.8897 12.2504 17.8897 14.0863V23.5848H22.128V14.0863C22.128 9.89076 18.7546 6.48914 14.5931 6.48914Z" fill="#00B26B"/>
<path d="M1.22266 23.5849H5.46098V6.48938C3.09034 6.48938 1.22266 7.12088 1.22266 7.12088V23.5849Z" fill="#00B26B"/>
<path d="M51.1602 23.5844H55.3987V1.48938C53.0795 1.49013 51.2394 2.09425 51.1641 2.11957L51.1602 23.5844Z" fill="#00B26B"/>
<path d="M65.5872 6.4885C64.043 6.4885 62.5967 6.907 61.35 7.63488L61.3489 1.48938C59.0264 1.49013 57.1834 2.09613 57.1139 2.11957C57.1139 2.11957 57.1104 15.0265 57.1104 15.0366C57.1104 19.7568 60.9062 23.5842 65.587 23.5842C70.2695 23.5842 74.064 19.7568 74.064 15.0366C74.0642 10.3159 70.2695 6.4885 65.5872 6.4885ZM65.5872 19.3103C63.2467 19.3103 61.3489 17.3965 61.3489 15.0364L61.35 15.0046C61.3671 12.6584 63.2573 10.7622 65.5872 10.7622C67.9288 10.7622 69.8262 12.6758 69.8262 15.0364C69.8262 17.3965 67.9286 19.3103 65.5872 19.3103Z" fill="#00B26B"/>
<path d="M49.8714 17.0608C47.6854 16.1854 45.7738 16.122 45.7738 16.122C45.2431 18.1804 43.2633 19.5649 41.1192 19.2799C40.6376 19.2163 40.1858 19.0721 39.7747 18.8644L49.3612 11.4463C48.1796 8.883 45.7636 6.96506 42.779 6.56869C38.1389 5.95275 33.8827 9.24656 33.2717 13.9254C32.6607 18.6045 35.9272 22.8967 40.5666 23.5127C44.854 24.0821 48.8123 21.1766 49.8714 17.0608ZM37.4686 14.4831C37.7744 12.1412 39.9047 10.4931 42.226 10.8011C42.7076 10.8651 43.1594 11.0094 43.5705 11.217L37.5188 15.8998C37.4264 15.4457 37.4052 14.9691 37.4686 14.4831Z" fill="#00B26B"/>
<path d="M111.534 13.1899L108.745 13.1871C108.081 13.1871 107.543 12.6443 107.543 11.9742C107.543 11.3048 108.081 10.7618 108.745 10.7618H114.834C114.859 10.6855 115.459 8.84442 115.459 6.5063C115.459 6.5063 108.864 6.50574 108.459 6.50574C105.612 6.50574 103.305 8.83261 103.305 11.7032C103.305 14.5739 105.612 16.903 108.459 16.903H111.247C111.911 16.903 112.45 17.446 112.45 18.1157C112.45 18.7855 111.911 19.3283 111.247 19.3283H104.34C104.315 19.4044 103.716 21.2457 103.715 23.584C103.715 23.584 111.431 23.5844 111.534 23.5844C114.38 23.5844 116.688 21.2579 116.688 18.3869C116.688 15.5168 114.38 13.1899 111.534 13.1899Z" fill="#00B26B"/>
</svg>
