<svg width="148" height="24" viewBox="0 0 148 24" fill="none" xmlns="http://www.w3.org/2000/svg">
<g clip-path="url(#clip0_158_1148)">
<path d="M20.2204 21.8227C19.6524 22.0594 19.0871 22.296 18.6111 22.5327C17.9994 22.8056 17.3661 23.0272 16.7178 23.1954C16.0551 23.3847 15.3451 23.574 14.5844 23.716C13.7557 23.855 12.916 23.9184 12.0758 23.9053C10.47 23.9264 8.87139 23.6866 7.34243 23.1954C5.95311 22.7563 4.6878 21.9938 3.65043 20.9707C2.57043 19.9252 1.7446 18.646 1.23643 17.2314C0.639674 15.545 0.35108 13.7652 0.384429 11.9767C0.354058 10.2497 0.642903 8.53204 1.23643 6.91001C1.75573 5.48705 2.5796 4.19471 3.65043 3.12335C4.70245 2.10811 5.96203 1.33297 7.34243 0.851349C8.87762 0.308402 10.4954 0.0361359 12.1238 0.0466817C13.4167 0.0406443 14.7051 0.199713 15.9578 0.52002C17.4332 0.875383 18.8629 1.39949 20.2184 2.08201V5.72668H19.9864C18.8098 4.74748 17.483 3.96433 16.0571 3.40735C14.7212 2.92672 13.3108 2.68635 11.8911 2.69735C10.776 2.67664 9.66714 2.86944 8.62443 3.26535C7.63894 3.65156 6.75024 4.24941 6.0211 5.01668C5.22835 5.8535 4.63031 6.85515 4.26976 7.95001C3.83291 9.26185 3.62477 10.639 3.65443 12.0214C3.61833 13.4429 3.85949 14.858 4.36443 16.1873C4.76146 17.2372 5.35595 18.2012 6.11576 19.0274C6.85119 19.7766 7.73932 20.3586 8.71976 20.734C9.73274 21.1175 10.808 21.3101 11.8911 21.302C13.3618 21.3206 14.8229 21.0637 16.1991 20.5447C17.5668 20.0079 18.8318 19.2393 19.9384 18.2727H20.1751C20.2204 18.1807 20.2204 21.8227 20.2204 21.8227Z" fill="white"/>
<path d="M35.6061 14.8613C35.6061 12.6366 35.1328 10.9799 34.2334 9.89061C33.7684 9.34944 33.1848 8.92274 32.5281 8.64363C31.8714 8.36453 31.1592 8.24053 30.4468 8.28128C29.7281 8.2465 29.0108 8.37299 28.3474 8.65145C27.684 8.92992 27.0913 9.35332 26.6128 9.89061C25.7134 10.9793 25.2401 12.636 25.2401 14.8613C25.2401 17.0386 25.7134 18.6479 26.6128 19.7846C27.0678 20.3407 27.6484 20.7808 28.3067 21.0688C28.965 21.3568 29.6822 21.4844 30.3994 21.4413C31.1154 21.4737 31.8292 21.3412 32.4857 21.054C33.1423 20.7667 33.7241 20.3324 34.1861 19.7846C35.1328 18.6513 35.6061 16.992 35.6061 14.8613ZM38.7301 14.8613C38.7301 17.6542 37.9728 19.8791 36.4581 21.5359C35.6886 22.35 34.7543 22.9906 33.7176 23.415C32.6809 23.8395 31.5656 24.038 30.4461 23.9973C29.3183 24.0489 28.1927 23.8556 27.1467 23.4307C26.1007 23.0058 25.1591 22.3594 24.3868 21.5359C22.8721 19.9279 22.1621 17.704 22.1621 14.8613C22.1621 12.0186 22.9194 9.84328 24.3868 8.18661C25.163 7.36816 26.1052 6.72513 27.1502 6.30062C28.1953 5.87612 29.319 5.67994 30.4461 5.72528C31.5674 5.6691 32.6874 5.86051 33.7264 6.28589C34.7655 6.71128 35.6981 7.36021 36.4581 8.18661C37.9728 9.84328 38.7301 12.0206 38.7301 14.8613Z" fill="white"/>
<path d="M56.0553 23.4793H53.0259V13.6333C53.0289 12.8894 52.9814 12.1461 52.884 11.4086C52.8268 10.8412 52.6493 10.2926 52.3633 9.79926C52.0727 9.361 51.6618 9.01587 51.18 8.80526C50.5583 8.57847 49.9009 8.46556 49.2393 8.47193C48.3426 8.48816 47.4579 8.68119 46.636 9.03993C45.7135 9.44447 44.8402 9.95263 44.0326 10.5546V23.4779H41.002V6.20127H44.0313V8.14193C44.9254 7.42827 45.9122 6.83913 46.9646 6.3906C47.9376 5.97828 48.9845 5.76889 50.0413 5.77526C50.862 5.72207 51.6845 5.84679 52.4525 6.14088C53.2206 6.43498 53.916 6.89152 54.4913 7.47926C55.5326 8.6126 56.0059 10.2246 56.0059 12.3553L56.0533 23.4793H56.0553Z" fill="white"/>
<path d="M70.1143 23.3374C69.51 23.5024 68.8923 23.614 68.2683 23.6707C67.6723 23.7597 67.0709 23.8071 66.4683 23.8127C64.6223 23.8127 63.2497 23.3394 62.3023 22.3927C61.355 21.446 60.8823 19.9314 60.8823 17.848V8.66271H58.8477V6.20138H60.883V1.23071H63.9143V6.20138H70.163V8.66271H63.9143V16.5207C63.9143 17.42 63.9143 18.13 63.9617 18.654C64.0022 19.1521 64.1473 19.636 64.3877 20.074C64.608 20.4774 64.9583 20.7943 65.3817 20.9734C65.9874 21.1939 66.6312 21.2905 67.275 21.2574C67.8015 21.259 68.3261 21.1954 68.837 21.068C69.3577 20.926 69.7363 20.8314 69.9703 20.7347H70.1597L70.1123 23.338L70.1143 23.3374Z" fill="white"/>
<path d="M83.8886 9.42004H83.7466C83.3092 9.31828 82.8668 9.23929 82.4213 9.18338C81.9175 9.14163 81.412 9.12583 80.9066 9.13605C79.9713 9.12564 79.0469 9.33648 78.2086 9.75137C77.3165 10.1573 76.4746 10.6656 75.6999 11.266V23.4794H72.6699V6.24871H75.6992V8.80471C76.6628 8.00338 77.7294 7.33477 78.8706 6.81671C79.7542 6.44286 80.7038 6.24972 81.6632 6.24871C82.0417 6.23403 82.4207 6.24986 82.7966 6.29604C83.0332 6.34337 83.3646 6.39071 83.8379 6.43804L83.8853 9.42004H83.8886Z" fill="white"/>
<path d="M98.5172 14.8613C98.5172 12.6366 98.0439 10.9799 97.1446 9.89061C96.6795 9.34944 96.0959 8.92274 95.4392 8.64363C94.7825 8.36453 94.0703 8.24053 93.3579 8.28128C92.6397 8.2512 91.9238 8.37983 91.261 8.658C90.5982 8.93616 90.0049 9.35701 89.5232 9.89061C88.6239 10.9793 88.1506 12.636 88.1506 14.8613C88.1506 17.0386 88.6239 18.6479 89.5232 19.7846C89.9849 20.3454 90.5736 20.7882 91.2404 21.0763C91.9072 21.3643 92.6331 21.4895 93.3579 21.4413C94.0738 21.4737 94.7876 21.3412 95.4442 21.054C96.1008 20.7667 96.6825 20.3324 97.1446 19.7846C98.0439 18.6959 98.5172 16.992 98.5172 14.8613ZM101.641 14.8613C101.641 17.6542 100.884 19.8791 99.3692 21.5359C98.5997 22.35 97.6654 22.9906 96.6287 23.415C95.592 23.8395 94.4767 24.038 93.3572 23.9973C92.2289 24.0535 91.1019 23.8623 90.0552 23.4371C89.0085 23.0119 88.0675 22.3631 87.2979 21.5359C85.8312 19.9266 85.0732 17.702 85.0732 14.8613C85.0732 12.0206 85.8306 9.84328 87.2979 8.18661C88.0741 7.36816 89.0163 6.72513 90.0614 6.30062C91.1064 5.87612 92.2302 5.67994 93.3572 5.72528C94.4786 5.6691 95.5985 5.86051 96.6376 6.28589C97.6766 6.71128 98.6092 7.36021 99.3692 8.18661C100.884 9.84328 101.641 12.0206 101.641 14.8613Z" fill="white"/>
<path d="M106.99 0.0946045H103.961V23.5266H106.99V0.0946045Z" fill="white"/>
<path d="M132.695 20.4499H130.187V3.59992H132.695C133.948 3.58541 135.199 3.68045 136.435 3.88392C137.448 4.0669 138.425 4.41891 139.322 4.92525C140.499 5.53315 141.458 6.49088 142.068 7.66659C142.728 9.02148 143.053 10.5152 143.015 12.0219C143.064 13.5053 142.773 14.9803 142.163 16.3333C141.601 17.4537 140.731 18.3899 139.654 19.0313C138.744 19.6022 137.731 19.9874 136.672 20.1646C135.354 20.3401 134.026 20.4349 132.696 20.4486M145.763 6.01059C144.833 4.31619 143.458 2.90827 141.786 1.93925C140.636 1.313 139.411 0.835829 138.141 0.519259C136.273 0.135876 134.368 -0.0387541 132.461 -0.00141158H126.021V23.9513H132.506C134.314 23.9865 136.122 23.8438 137.903 23.5253C139.236 23.2441 140.514 22.7488 141.689 22.0586C143.349 21.0691 144.708 19.645 145.618 17.9399C146.61 16.1459 147.116 14.1233 147.085 12.0733C147.225 9.96879 146.765 7.86776 145.759 6.01392" fill="#AA2527"/>
<path d="M123.133 6.81653H119.204V23.8579H123.133V6.81653Z" fill="#AA2527"/>
<path d="M123.559 2.46124C123.578 2.93344 123.455 3.40062 123.207 3.8027C122.959 4.20477 122.596 4.52336 122.165 4.71749C121.734 4.91163 121.255 4.97243 120.789 4.89208C120.323 4.81174 119.892 4.59391 119.552 4.26663C119.211 3.93934 118.975 3.51755 118.876 3.0555C118.777 2.59344 118.818 2.11226 118.994 1.67381C119.171 1.23537 119.474 0.859717 119.866 0.595158C120.258 0.330599 120.719 0.189228 121.192 0.189233C121.807 0.177969 122.401 0.410721 122.844 0.836532C123.288 1.26234 123.545 1.84653 123.559 2.46124Z" fill="#AA2527"/>
</g>
<defs>
<clipPath id="clip0_158_1148">
<rect width="146.71" height="24" fill="white" transform="translate(0.386719)"/>
</clipPath>
</defs>
</svg>
